/* XPM */
static char * dl_remove_button_xpm[] = {
"16 16 2 1",
" 	c #FFFFFF",
".	c #000000",
"                ",
"  ............  ",
" .            . ",
" . .        . . ",
" .  .      .  . ",
" .   .    .   . ",
" .    .  .    . ",
" .     ..     . ",
" .     ..     . ",
" .    .  .    . ",
" .   .    .   . ",
" .  .      .  . ",
" . .        . . ",
" .            . ",
"  ............  ",
"                "};
