/* XPM */
static char *render_mib_texture_vector[] = {
/* width height num_colors chars_per_pixel */
"    32    32      256            2",
/* colors */
"`` c #2c3634",
"`. c #248a24",
"`# c #84020c",
"`a c #8c823c",
"`b c #8c4444",
"`c c #ecda04",
"`d c #848484",
"`e c #bc8684",
"`f c #c40204",
"`g c #9c2604",
"`h c #84aa84",
"`i c #bc4244",
"`j c #145e1c",
"`k c #0cc40c",
"`l c #a40404",
"`m c #bcc6c4",
"`n c #8c6264",
"`o c #ac2224",
"`p c #4c4e64",
"`q c #a48284",
"`r c #c4e6d4",
"`s c #4c8604",
"`t c #646464",
"`u c #c4a6a4",
"`v c #a4120c",
"`w c #a4a5a4",
"`x c #8c928f",
"`y c #a4b4a4",
"`z c #8c523c",
"`A c #ac3234",
"`B c #bc6b6c",
"`C c #04e704",
"`D c #dcdedc",
"`E c #548254",
"`F c #e4a5a4",
"`G c #0c1e9c",
"`H c #6466dc",
"`I c #8c3e14",
"`J c #ac635f",
"`K c #e4e6e4",
"`L c #6c7674",
"`M c #a44848",
"`N c #b40204",
"`O c #6c4a4c",
"`P c #b41417",
"`Q c #5c965c",
"`R c #1cac1c",
"`S c #ccd4d4",
"`T c #949394",
"`U c #f4f5f4",
"`V c #8c1a04",
"`W c #bc9394",
"`X c #a49694",
"`Y c #bcb4b8",
"`Z c #c42a2c",
"`0 c #ac2c30",
"`1 c #a4baa4",
"`2 c #bc7474",
"`3 c #0cd60c",
"`4 c #a4aedc",
"`5 c #6c8664",
"`6 c #4c0294",
"`7 c #b47574",
"`8 c #9c8ec4",
".` c #a4aaa4",
".. c #ac3e3c",
".# c #04f604",
".a c #a43230",
".b c #6c7a7c",
".c c #bcbdbc",
".d c #8c4c50",
".e c #948a8c",
".f c #f40604",
".g c #bc5354",
".h c #a41a1c",
".i c #f4e2e4",
".j c #b40d0c",
".k c #6c5a64",
".l c #3ca63c",
".m c #d4dde0",
".n c #949e84",
".o c #941c1c",
".p c #7c1e04",
".q c #acaa04",
".r c #942828",
".s c #24c604",
".t c #a40c0c",
".u c #545a5c",
".v c #ac8d8c",
".w c #7c6264",
".x c #a41618",
".y c #b4b4b4",
".z c #04f204",
".A c #0402ef",
".B c #ac6a6c",
".C c #b44c48",
".D c #bc1a1c",
".E c #0cb70c",
".F c #bc9b9c",
".G c #dc7e7c",
".H c #6c8a8c",
".I c #349234",
".J c #848a8c",
".K c #dc8284",
".L c #ccc6c4",
".M c #847e84",
".N c #bc2324",
".O c #aca2a0",
".P c #849e8c",
".Q c #ac5e0c",
".R c #b43534",
".S c #ecd2d4",
".T c #e4b2b4",
".U c #943234",
".V c #bc1314",
".W c #fcfdfc",
".X c #b49898",
".Y c #bc2d2c",
".Z c #bc7c7c",
".0 c #7c7c7c",
".1 c #949a9c",
".2 c #645d63",
".3 c #0c0efc",
".4 c #7c8587",
".5 c #9c0e1c",
".6 c #9c4244",
".7 c #bc8e8c",
".8 c #cc1214",
"#` c #9ca294",
"#. c #2c22e4",
"## c #7c823c",
"#a c #3c5e3c",
"#b c #fcfe04",
"#c c #6c3634",
"#d c #dc6664",
"#e c #dcfee4",
"#f c #ac8e0c",
"#g c #542e2c",
"#h c #b45a5c",
"#i c #0c9a04",
"#j c #a4a63c",
"#k c #7c9a64",
"#l c #446e14",
"#m c #ec1214",
"#n c #741e1c",
"#o c #3c0eac",
"#p c #946e6c",
"#q c #c43a3c",
"#r c #9c7e74",
"#s c #4c960c",
"#t c #7c5a54",
"#u c #8c5a5c",
"#v c #6c9e6c",
"#w c #24ae24",
"#x c #9c1408",
"#y c #a42c30",
"#z c #c4aeac",
"#A c #5c8e5c",
"#B c #f4eef4",
"#C c #7c2a2c",
"#D c #d40a0c",
"#E c #7c4244",
"#F c #1cda04",
"#G c #6c6c6c",
"#H c #ecaeac",
"#I c #746e6c",
"#J c #f4dcdc",
"#K c #ecbebc",
"#L c #b4bcb4",
"#M c #44962c",
"#N c #eceeec",
"#O c #bc4c4c",
"#P c #bc5c5c",
"#Q c #946284",
"#R c #840624",
"#S c #bc3c3c",
"#T c #bca604",
"#U c #446a34",
"#V c #7c5e74",
"#W c #9caaac",
"#X c #ac4e4c",
"#Y c #8c3a3c",
"#Z c #eceafc",
"#0 c #8c9aa4",
"#1 c #0cca0c",
"#2 c #14b214",
"#3 c #a49a9c",
"#4 c #a43a3c",
"#5 c #ac463c",
"#6 c #9c1e2c",
"#7 c #c40a0c",
"#8 c #c43234",
"a` c #b47a7c",
"a. c #8c92a4",
"a# c #0cde0c",
"aa c #04fe04",
"ab c #ac8e24",
"ac c #0c02ec",
"ad c #c48684",
"ae c #8cae8c",
"af c #14c214",
"ag c #c4c2c4",
"ah c #ac8688",
"ai c #cca29c",
"aj c #ac1604",
"ak c #acb4ac",
"al c #0ce80c",
"am c #b46264",
"an c #744644",
"ao c #649a64",
"ap c #d4d2d8",
"aq c #c4b5b4",
"ar c #b42a2c",
"as c #acbeac",
"at c #acacac",
"au c #9c8684",
"av c #2cc20c",
"aw c #ac1317",
"ax c #748684",
"ay c #3c963c",
"az c #9c9d9b",
"aA c #945654",
"aB c #fceaec",
"aC c #944244",
"aD c #9c2214",
"aE c #ac0604",
"aF c #747574",
"aG c #bc0204",
"aH c #fcf2f4",
"aI c #ac9294",
"aJ c #747c7c",
"aK c #c4bbbc",
"aL c #8c4e5c",
"aM c #fc0204",
"aN c #fce6e4",
"aO c #bc0a0c",
"aP c #ac0e0c",
"aQ c #5c5e5c",
"aR c #b48e8c",
"aS c #b46c6c",
"aT c #c49d9c",
"aU c #8c8b8c",
"aV c #aca6ac",
"aW c #f4d6d4",
"aX c #c47e7c",
"aY c #e46264",
"aZ c #9c1614",
"a0 c #5c824c",
"a1 c #745a5c",
"a2 c #943a40",
"a3 c #0cf204",
"a4 c #0402fc",
"a5 c #840604",
"a6 c #bc8a8c",
"a7 c #ac2626",
"a8 c #ac3638",
/* pixels */
"agag`maKag`maKag`maKag`maKag`maKag`maKag`maKag`maKag`maKag`maKag",
"`maKag`maKag`maKag`maKag`maKag`maKag`maKag`maKag`maKag`maKag`mag",
"ag`maKag`maKag`maKag`maK.c.Fa`#h#XamaX.FaK`maK`maK`magag`maKag`m",
"aK`mag`maK`maK`YaRaS#X`A.h#y.r#naA`Ja8`o.V.N#S#P.ZaT`YaKag`maKag",
"ag`maY`Pad#P.R.R...6.d#t#3ag`LaQaUaz.0.uaFau`ba2#4.R.N.Y..#P`wat",
"ag.caYaMaM`J#V`p`j`E.0`t.JaQ`w`m`U`U`D`d`taJaJ``.Jaz#gan#uaGaGaS",
"ag`maYaMaM`N#R.A`G.I#aag`S`waU.0.c.0`d`T#3`e`M.5aGaG`N.V#8#S.V`i",
"ag.caK.V#m..`P.Aa4a4`##C#c.f.VaCaSa7`NaG`N`N.j.Y#h#EaRaNaH#J`P`i",
"agag`m.o`b`x`xa4a4a4.o`l`laMaMaMaG.V#q.K#E`q.X.OataQ.c.W.W#J`P#O",
"`maKag.o#Y.4`m#Q`6.3#0.waZaMaMaMaW.iaH.WaQazatatataQ.L.W.W.S.j.g",
"ag`mag.r.U#I.W`7`N`S`T`L#IaU`f#m.W.W.W.W.2azat.`at.2ap.W.W.SaO#P",
"aKagag#y.gaz`m`7`N.m.1#GaxaUaP`0.W.W.W.WaQ`watat.yaQ.c.L`da1aGam",
"`magaa.s`a.W.4`b`N`S.1#G`LaUaPa7.W.W.W.WaQ`wataz.0.2#G`t`d`7`N`B",
"aK`maaaaaa#e.4`z`N.b.e`d.baUaPar.W.W.W.W.2`t.2.2`LaQ`d#`at.vaG`B",
"ag`m.#aaaa`g.0ab`c#j.1.W.WaUaP`o#B.y`d#GaQaU#L#N.WaQazaVat.vaG`2",
"agaK`m#M.s`g`N#T#b#b#`.W.W.Waw.x.2aQ#GaUaQ.W.W.W.W.2az`wat.vaG.Z",
"`m`y#L.B.R.W.d#f#b#b#r.m`ra3#s`Iaz.y.y.yaQ.W.W.W`UaQ#3`watahaG`e",
"aK.I.la0#y.W#0##.q.Qaj#y#kaaaaaa.yatatataQ.WaH.W#BaQaV.`.e`naGa6",
"ag#1.#`3#l.PaU.2`NaU`M`P`Vaaaaaa.yatatat.2.W.W.W`UaQ.0`t#GaRaG`W",
"`m#w#2`C.z#2#A.e`NaU.Jap.n#i`s#F.yatatataQ.W`U.L`daQ.0`Y#N.TaG`W",
"aKak`Q`3`C`C`k.W`NaUaUap`m#U.paw.yatat.yaQ`T`t`t`t.2.W.W#B`FaG.F",
"ag`m#val.E`.`R.W`NadaV.y`DaU.5aj`YataU#GaQ#G.eataUaQ.W.W`K`F`NaT",
"ag.c#val.E#x`5`4`Naiap#G#WaU.x.jaFaQ#GazaQ.y`w.``d.2.W.W`D.G`N.F",
"agagao.z`kaD.t.A.A`H.W#I`LaU.x.j`d.LaH.W.2`w`waV`daQaB#K#O`NaG`W",
"`maKaeaf.Eas.Caca4a4#ZaF.baU.x.j.W.W.W.WaQat`w.O#p#4.D`NaG#S`2ag",
"ag`m.c`h.I`1ag#.a4a4a2aF.HaUaZ.j.W.W`U.W.2.v`J`0aG`N.N`BaT.cagag",
"aKag`maK`y#Lagag`8#o.5a5aUaM#D#7.W.W#J#H.a.jaG.D.g.7#zag`maKag`m",
"`maKag`magag`maK`maga6.j.taMaMaM`F.K`Z`NaO`i.Z`uagag`maKag`maKag",
"ag`maKag.cag.cagaK`magag.aaMaMaMaGaG.Y`2aT.cag`maK`maK`maKag`maK",
"aK`mag`maKag`mag`maK`magag...8.f#P`Waqag.cagaK`maKag`maK`maK`mag",
"ag`maKag`maKag.cagagaK`magagag#zagag`maKag`maKag`maKagagag`maKag",
"agaK`maKag`maKag`maK`maKag.cag.cag.cag`maKag`maKag`mag`maKag`maK"
};
