/* XPM */
static char * render_dl_ambient_xpm[] = {
"64 64 134 2",
"  	c None",
". 	c #BEBEBE",
"+ 	c #BCBCBC",
"@ 	c #626262",
"# 	c #5F5F5F",
"$ 	c #6C6C6C",
"% 	c #8E8E8E",
"& 	c #A4A4A4",
"* 	c #BABABA",
"= 	c #606060",
"- 	c #9C9C9C",
"; 	c #696969",
"> 	c #848484",
", 	c #B3B3B3",
"' 	c #8B8B8B",
") 	c #000000",
"! 	c #9E9E9E",
"~ 	c #5A5A5A",
"{ 	c #868686",
"] 	c #7A7A7A",
"^ 	c #070707",
"/ 	c #616161",
"( 	c #BDBDBD",
"_ 	c #434343",
": 	c #090909",
"< 	c #525252",
"[ 	c #1B1B1B",
"} 	c #454545",
"| 	c #0E0E0E",
"1 	c #5B5B5B",
"2 	c #4C4C4C",
"3 	c #202020",
"4 	c #5D5D5D",
"5 	c #0C0C0C",
"6 	c #B7B7B7",
"7 	c #010101",
"8 	c #9A9A9A",
"9 	c #B8B8B8",
"0 	c #0A0A0A",
"a 	c #050505",
"b 	c #1C1C1C",
"c 	c #515151",
"d 	c #040404",
"e 	c #A9A9A9",
"f 	c #727272",
"g 	c #B2B2B2",
"h 	c #787878",
"i 	c #2E2E2E",
"j 	c #5C5C5C",
"k 	c #828282",
"l 	c #3B3B3B",
"m 	c #717171",
"n 	c #2B2B2B",
"o 	c #464646",
"p 	c #393939",
"q 	c #2C2C2C",
"r 	c #6E6E6E",
"s 	c #414141",
"t 	c #7C7C7C",
"u 	c #161616",
"v 	c #A1A1A1",
"w 	c #838383",
"x 	c #7B7B7B",
"y 	c #ACACAC",
"z 	c #020202",
"A 	c #B6B6B6",
"B 	c #080808",
"C 	c #060606",
"D 	c #B9B9B9",
"E 	c #303030",
"F 	c #7E7E7E",
"G 	c #404040",
"H 	c #B1B1B1",
"I 	c #141414",
"J 	c #4B4B4B",
"K 	c #444444",
"L 	c #707070",
"M 	c #1E1E1E",
"N 	c #3D3D3D",
"O 	c #4E4E4E",
"P 	c #1D1D1D",
"Q 	c #898989",
"R 	c #888888",
"S 	c #777777",
"T 	c #ADADAD",
"U 	c #9D9D9D",
"V 	c #B4B4B4",
"W 	c #0B0B0B",
"X 	c #BBBBBB",
"Y 	c #101010",
"Z 	c #2A2A2A",
"` 	c #323232",
" .	c #5E5E5E",
"..	c #555555",
"+.	c #0D0D0D",
"@.	c #949494",
"#.	c #565656",
"$.	c #1F1F1F",
"%.	c #262626",
"&.	c #121212",
"*.	c #505050",
"=.	c #AEAEAE",
"-.	c #030303",
";.	c #9F9F9F",
">.	c #292929",
",.	c #333333",
"'.	c #767676",
").	c #131313",
"!.	c #646464",
"~.	c #6A6A6A",
"{.	c #737373",
"].	c #212121",
"^.	c #363636",
"/.	c #8D8D8D",
"(.	c #111111",
"_.	c #666666",
":.	c #585858",
"<.	c #B0B0B0",
"[.	c #999999",
"}.	c #3A3A3A",
"|.	c #4A4A4A",
"1.	c #343434",
"2.	c #222222",
"3.	c #A8A8A8",
"4.	c #878787",
"5.	c #808080",
"6.	c #959595",
"7.	c #747474",
"8.	c #939393",
"9.	c #3C3C3C",
"0.	c #171717",
"a.	c #8C8C8C",
"b.	c #A3A3A3",
"c.	c #6D6D6D",
". . . . . . . . . . . . . . . . . . . . . . . . . . . . . . . . . . . . . . . . . . . . . . . . . . . . . . . . . . . . . . . . ",
". . . . . . . . . . . . . . . . . . . . . . . . . . . . . . . . . . . . . . . . . . . . . . . . . . . . . . . . . . . . . . . . ",
". . . . . . . . . . . . . . . . . . . . . . . . . . . . . . . . . . . . . . . . . . . . . . . . . . . . . . . . . . . . . . . . ",
". . . . . . . . . . . . . . . . . . . . . . . . . . . . . . . . . . . . . . . . . . . . . . . . . . . . . . . . . . . . . . . . ",
". . . . . . . . . . . . . . . . . . . . . . . . . . . . . . . . . . . . . . . . . . . . . . . . . . . . . . . . . . . . . . . . ",
". . . . . . . . . . . . . . . . . . . . . . . . . . . . . . . . . . . . . . . . . . . . . . . . . . . . . . . . . . . . . . . . ",
". . . . . . . . . . . . . . . . . . . . . . . . . . . . . . . . . . . . . . . . . . . . . . . . . . . . . . . . . . . . . . . . ",
". . . . . . . . . . . . . . . . . . . . . . . . . . . . . . . . . . . . . . . . . . . . . . . . . . . . . . . . . . . . . . . . ",
". . . . . . . . . . . . . . . . . . . . . . . . . . . . . . . . . . . . . . . . . . . . . . . . . . . . . . . . . . . . . . . . ",
". . . . . . . . . . . . . . . . . . . . . . . . . . . . . . . . . . . . . . . . . . . . . . . . . . . . . . . . . . . . . . . . ",
". . . . . . . . . . . . . . . . . . . . . . . . . . . . . . . . . . . . . . . . . . . . . . . . . . . . . . . . . . . . . . . . ",
". . . . . . . . . . . . . . . . . . . . . . . . . . . . . . . . . . . . . . . . . . . . . . . . . . . . . . . . . . . . . . . . ",
". . . . . . . . . . . . . . . . . . . . . . . . . . . . . . . . . . . . . . . . . . . . . . . . . . . . . . . . . . . . . . . . ",
". . . . . . . . . . . . . . . . . . . . . . . . . . . . . . . . . . . . . . . . . . . . . . . . . . . . . . . . . . . . . . . . ",
". . . . . . . . . . . . . . . . . . . . . . . . . . . . . . . . . . . . . . . . . . . . . . . . . . . . . . . . . . . . . . . . ",
". . . . . . . . . . . . . . . . . . . . . . . . . . . . . . . . . . . . . . . . . . . . . . . . . . . . . . . . . . . . . . . . ",
". . . . . . . . . . . . . . . . . . . . . . . . . . . . . . . . . . . . . . . . . . . . . . . . . . . . . . . . . . . . . . . . ",
". . . . . . . . . . . . . . . . . . . . . . . . . . . . . . . . . . . . . . . . . . . . . . . . . . . . . . . . . . . . . . . . ",
". . . . . . . . . . . . . . . . . . . . . . . . . . . . . . . . . . . . . . . . . . . . . . . . . . . . . . . . . . . . . . . . ",
". . . . . . . . . . . . . . . . . . . . . . . . . . . . . . . . . . . . . . . . . . . . . . . . . . . . . . . . . . . . . . . . ",
". . . . . . . . . . . . . . . . . . . . . . . . . . . . . . . . . . . . . . . . . . . . . . . . . . . . . . . . . . . . . . . . ",
". . . . . . . . . . . . . . . . . . . . . . . . . . . . . . . . . . . . . . . . . . . . . . . . . . . . . . . . . . . . . . . . ",
". . . . . . . . . . + @ # $ . . . . . . . . . % # # # & . . . . . . . . . * = # # - . . . % # # # # # # = ; > , . . . . . . . . ",
". . . . . . . . . . ' ) ) ) ! . . . . . . . . # ) ) ) ~ . . . . . . . . . { ) ) ) ] . . . # ) ) ) ) ) ) ) ) ) ^ / ( . . . . . . ",
". . . . . . . . . . _ ) : ) < . . . . . . . . # ) ) ) [ . . . . . . . . . } ) ) ) ] . . . # ) | # # # # 1 2 3 ) ) 4 . . . . . . ",
". . . . . . . . . , ^ ) 1 ) 5 6 . . . . . . . # ) 5 7 ) 8 . . . . . . . 9 0 a ) ) ] . . . # ) b . . . . . . ( c ) d e . . . . . ",
". . . . . . . . . f ) | g a ) h . . . . . . . # ) b i ) j . . . . . . . k ) l ) ) ] . . . # ) b . . . . . . . , d ) m . . . . . ",
". . . . . . . . . n ) o . p ) q . . . . . . . # ) b r ) b . . . . . . . s ) t ) ) ] . . . # ) b . . . . . . . . u ) @ . . . . . ",
". . . . . . . . v ) ) w . x ) ) ! . . . . . . # ) b y z ) - . . . . . A B B A ) ) ] . . . # ) b . . . . . . . A C ) ] . . . . . ",
". . . . . . . . ~ ) 5 D . A : ) c . . . . . . # ) b . E ) 4 . . . . . F ) G . ) ) ] . . . # ) b . . . . . . + < ) 0 H . . . . . ",
". . . . . . . + I ) J . . . K ) 5 6 . . . . . # ) b . L ) M . . . . . N ) k . ) ) ] . . . # ) | # # # # j O P ) : w . . . . . . ",
". . . . . . . Q ) ) % . . . R ) ) S . . . . . # ) b . T z ) U . . . V C W 9 . ) ) ] . . . # ) ) ) ) ) ) ) ) ) ) 2 y . . . . . . ",
". . . . . . . s ) I + . . . X Y ) Z . . . . . # ) b . . ` )  .. . . ] ) o . . ) ) ] . . . # ) | # # # #  ...p B ) +.@.. . . . . ",
". . . . . . g C ) #.. . . . . c ) ) - . . . . # ) b . . m ) $.. . . p ) R . . ) ) ] . . . # ) b . . . . . . . T %.) u D . . . . ",
". . . . . . L ) ) W &.&.&.&.&.W ) ) *.. . . . # ) b . . =.-.) ;.. g d | * . . ) ) ] . . . # ) b . . . . . . . . ! ) ) > . . . . ",
". . . . . . >.) ) ) ) ) ) ) ) ) ) ) 5 A . . . # ) b . . . ,.) = . '.) 2 . . . ) ) ] . . . # ) b . . . . . . . . . ).) !.. . . . ",
". . . . . ;.) ) ~.. . . . . . . f ) ) '.. . . # ) b . . . {.) ].. ^.) /.. . . ) ) ] . . . # ) b . . . . . . . . . (.) _.. . . . ",
". . . . . :.) d =.. . . . . . . V : ) Z . . . # ) b . . . <.-.) @.d &.+ . . . ) ) ] . . . # ) b . . . . . . . . [.) ) Q . . . . ",
". . . . + ).) }.. . . . . . . . . |.) ) - . . # ) b . . . . 1.) 2.) < . . . . ) ) ] . . . # ) b . . . . . . . 3.].) u * . . . . ",
". . . . 4.) ) 5.. . . . . . . . . 6.) ) *.. . # ) b . . . . 7.) ) ) 8.. . . . ) ) ] . . . # ) | # # # # # ~ 9.C ) z { . . . . . ",
". . . . G ) | D . . . . . . . . . . 2.) W A . # ) b . . . . <.d ) 0.( . . . . ) ) ] . . . # ) ) ) ) ) ) ) ) ) ) ].a.. . . . . . ",
". . . . !.# F . . . . . . . . . . . a.# # b.. % # c.. . . . . f # w . . . . . # # - . . . % # # # # # # # !.'.- . . . . . . . . ",
". . . . . . . . . . . . . . . . . . . . . . . . . . . . . . . . . . . . . . . . . . . . . . . . . . . . . . . . . . . . . . . . ",
". . . . . . . . . . . . . . . . . . . . . . . . . . . . . . . . . . . . . . . . . . . . . . . . . . . . . . . . . . . . . . . . ",
". . . . . . . . . . . . . . . . . . . . . . . . . . . . . . . . . . . . . . . . . . . . . . . . . . . . . . . . . . . . . . . . ",
". . . . . . . . . . . . . . . . . . . . . . . . . . . . . . . . . . . . . . . . . . . . . . . . . . . . . . . . . . . . . . . . ",
". . . . . . . . . . . . . . . . . . . . . . . . . . . . . . . . . . . . . . . . . . . . . . . . . . . . . . . . . . . . . . . . ",
". . . . . . . . . . . . . . . . . . . . . . . . . . . . . . . . . . . . . . . . . . . . . . . . . . . . . . . . . . . . . . . . ",
". . . . . . . . . . . . . . . . . . . . . . . . . . . . . . . . . . . . . . . . . . . . . . . . . . . . . . . . . . . . . . . . ",
". . . . . . . . . . . . . . . . . . . . . . . . . . . . . . . . . . . . . . . . . . . . . . . . . . . . . . . . . . . . . . . . ",
". . . . . . . . . . . . . . . . . . . . . . . . . . . . . . . . . . . . . . . . . . . . . . . . . . . . . . . . . . . . . . . . ",
". . . . . . . . . . . . . . . . . . . . . . . . . . . . . . . . . . . . . . . . . . . . . . . . . . . . . . . . . . . . . . . . ",
". . . . . . . . . . . . . . . . . . . . . . . . . . . . . . . . . . . . . . . . . . . . . . . . . . . . . . . . . . . . . . . . ",
". . . . . . . . . . . . . . . . . . . . . . . . . . . . . . . . . . . . . . . . . . . . . . . . . . . . . . . . . . . . . . . . ",
". . . . . . . . . . . . . . . . . . . . . . . . . . . . . . . . . . . . . . . . . . . . . . . . . . . . . . . . . . . . . . . . ",
". . . . . . . . . . . . . . . . . . . . . . . . . . . . . . . . . . . . . . . . . . . . . . . . . . . . . . . . . . . . . . . . ",
". . . . . . . . . . . . . . . . . . . . . . . . . . . . . . . . . . . . . . . . . . . . . . . . . . . . . . . . . . . . . . . . ",
". . . . . . . . . . . . . . . . . . . . . . . . . . . . . . . . . . . . . . . . . . . . . . . . . . . . . . . . . . . . . . . . ",
". . . . . . . . . . . . . . . . . . . . . . . . . . . . . . . . . . . . . . . . . . . . . . . . . . . . . . . . . . . . . . . . ",
". . . . . . . . . . . . . . . . . . . . . . . . . . . . . . . . . . . . . . . . . . . . . . . . . . . . . . . . . . . . . . . . ",
". . . . . . . . . . . . . . . . . . . . . . . . . . . . . . . . . . . . . . . . . . . . . . . . . . . . . . . . . . . . . . . . ",
". . . . . . . . . . . . . . . . . . . . . . . . . . . . . . . . . . . . . . . . . . . . . . . . . . . . . . . . . . . . . . . . ",
". . . . . . . . . . . . . . . . . . . . . . . . . . . . . . . . . . . . . . . . . . . . . . . . . . . . . . . . . . . . . . . . ",
". . . . . . . . . . . . . . . . . . . . . . . . . . . . . . . . . . . . . . . . . . . . . . . . . . . . . . . . . . . . . . . . "};
