/* XPM */
static char * render_dl_ocean_xpm[] = {
"32 32 255 2",
"  	c None",
". 	c #C1C1C1",
"+ 	c #000000",
"@ 	c #50B8FF",
"# 	c #50B9FF",
"$ 	c #50BAFF",
"% 	c #51BDFF",
"& 	c #51BEFF",
"* 	c #51C4FF",
"= 	c #52C7FE",
"- 	c #52C9FE",
"; 	c #52CBFE",
"> 	c #52CDFE",
", 	c #53D1FE",
"' 	c #53D2FE",
") 	c #53D2FD",
"! 	c #53D3FE",
"~ 	c #52D0FB",
"{ 	c #50C7F7",
"] 	c #52D1FD",
"^ 	c #295B95",
"/ 	c #A4DFF9",
"( 	c #F6FDFF",
"_ 	c #A1C0DF",
": 	c #47B6E8",
"< 	c #53CDFC",
"[ 	c #50B4F1",
"} 	c #52CAF9",
"| 	c #43A8D8",
"1 	c #1D4A8B",
"2 	c #40C9FA",
"3 	c #F1FBFF",
"4 	c #EAEDF3",
"5 	c #0550A1",
"6 	c #1E5EA7",
"7 	c #366DB1",
"8 	c #3066A7",
"9 	c #51CCF8",
"0 	c #4CB4E6",
"a 	c #577FB5",
"b 	c #46A7E2",
"c 	c #46BBEE",
"d 	c #50C3F2",
"e 	c #CBD9EB",
"f 	c #1655A3",
"g 	c #1353A3",
"h 	c #336BAF",
"i 	c #0B4FA1",
"j 	c #02459A",
"k 	c #2360AA",
"l 	c #3672B8",
"m 	c #3682C7",
"n 	c #52CDFA",
"o 	c #52CDF9",
"p 	c #4DBBEC",
"q 	c #3A87BE",
"r 	c #205598",
"s 	c #5C7BAB",
"t 	c #C1E2F3",
"u 	c #B2CFE8",
"v 	c #6893C4",
"w 	c #1959A6",
"x 	c #3973B5",
"y 	c #003393",
"z 	c #FFFFFF",
"A 	c #6895CC",
"B 	c #2E68B1",
"C 	c #3772BB",
"D 	c #4A93CF",
"E 	c #478AC7",
"F 	c #4386C5",
"G 	c #3974B8",
"H 	c #4A7DB6",
"I 	c #7E9CC5",
"J 	c #5573A2",
"K 	c #023E8B",
"L 	c #0D54A5",
"M 	c #2B66AD",
"N 	c #2663AD",
"O 	c #CCDAED",
"P 	c #00378B",
"Q 	c #105195",
"R 	c #F2F7F9",
"S 	c #89ABD3",
"T 	c #3270BD",
"U 	c #356AB1",
"V 	c #376EB1",
"W 	c #376EB8",
"X 	c #2368AD",
"Y 	c #2F64A7",
"Z 	c #00367F",
"` 	c #4F85C1",
" .	c #B0CEF3",
"..	c #3C8DDD",
"+.	c #E5E7EC",
"@.	c #1956A6",
"#.	c #5483BD",
"$.	c #ACC1DB",
"%.	c #3D73A9",
"&.	c #265E92",
"*.	c #3D7193",
"=.	c #3F6E94",
"-.	c #3D6E9A",
";.	c #1A5A9C",
">.	c #3268A9",
",.	c #6794CB",
"'.	c #2F66AA",
").	c #386FB1",
"!.	c #C6D8F1",
"~.	c #588CC8",
"{.	c #3F79C1",
"].	c #2F7AD4",
"^.	c #7DAFE4",
"/.	c #FFFFF7",
"(.	c #C2CDD7",
"_.	c #8BA6C5",
":.	c #4579A3",
"<.	c #306892",
"[.	c #3F6D8C",
"}.	c #3F708B",
"|.	c #3F6E93",
"1.	c #386DA4",
"2.	c #356DAE",
"3.	c #1459AC",
"4.	c #0F3664",
"5.	c #3E7FCC",
"6.	c #001350",
"7.	c #FEFFFF",
"8.	c #99BADF",
"9.	c #27568E",
"0.	c #2D5E95",
"a.	c #29598E",
"b.	c #18528B",
"c.	c #235890",
"d.	c #34678F",
"e.	c #416F90",
"f.	c #417192",
"g.	c #427496",
"h.	c #41739C",
"i.	c #3A71A8",
"j.	c #477AB8",
"k.	c #3A79C3",
"l.	c #001451",
"m.	c #3175C6",
"n.	c #001E56",
"o.	c #1F68BF",
"p.	c #032C5F",
"q.	c #3E7BC4",
"r.	c #244F81",
"s.	c #295483",
"t.	c #2E5983",
"u.	c #356189",
"v.	c #376692",
"w.	c #396B91",
"x.	c #427294",
"y.	c #457998",
"z.	c #39719C",
"A.	c #346FA1",
"B.	c #B2C7E0",
"C.	c #F5F9FB",
"D.	c #F6F9FC",
"E.	c #759BCB",
"F.	c #437EC6",
"G.	c #00295D",
"H.	c #3477C8",
"I.	c #1D4472",
"J.	c #274F82",
"K.	c #265482",
"L.	c #32608B",
"M.	c #376991",
"N.	c #336997",
"O.	c #3F77A6",
"P.	c #7BA0C5",
"Q.	c #608CBF",
"R.	c #0D4FA1",
"S.	c #1355A4",
"T.	c #A3BFE2",
"U.	c #DBE4F0",
"V.	c #BBD4F3",
"W.	c #8DADD5",
"X.	c #204878",
"Y.	c #264E7D",
"Z.	c #285A86",
"`.	c #326591",
" +	c #759DBF",
".+	c #3A74AE",
"++	c #BACDE1",
"@+	c #1F79E8",
"#+	c #1053A2",
"$+	c #3168AB",
"%+	c #053163",
"&+	c #052D62",
"*+	c #337EC3",
"=+	c #1D417E",
"-+	c #1E4775",
";+	c #0E3B71",
">+	c #093869",
",+	c #5179A1",
"'+	c #849DB6",
")+	c #91AFD3",
"!+	c #4F7EB8",
"~+	c #0B4285",
"{+	c #25538A",
"]+	c #2A5991",
"^+	c #1B3E6B",
"/+	c #285389",
"(+	c #1A3A66",
"_+	c #3170A4",
":+	c #1B3970",
"<+	c #214785",
"[+	c #254C7F",
"}+	c #ACB9CA",
"|+	c #9BABC2",
"1+	c #8DA4BC",
"2+	c #174887",
"3+	c #124077",
"4+	c #164783",
"5+	c #305685",
"6+	c #6485AD",
"7+	c #36587F",
"8+	c #2E527F",
"9+	c #1F4574",
"0+	c #1D4170",
"a+	c #1C406B",
"b+	c #1C416D",
"c+	c #1D4370",
"d+	c #1E4471",
"e+	c #1B3C6B",
"f+	c #204780",
"g+	c #1C4068",
"h+	c #0E3F78",
"i+	c #143D71",
"j+	c #0C376A",
"k+	c #1E4677",
"l+	c #224B7C",
"m+	c #1D487B",
"n+	c #103564",
"o+	c #113C6D",
"p+	c #163B6A",
"q+	c #1F4979",
"r+	c #1D426F",
"s+	c #1F4A7B",
"t+	c #234C7D",
"u+	c #1D4372",
"v+	c #255083",
"w+	c #265584",
"x+	c #1B3E6C",
"y+	c #1C416F",
"z+	c #1B416C",
"A+	c #1E426F",
"B+	c #1C3F6B",
"C+	c #214B7B",
"D+	c #1F4572",
"E+	c #1D4471",
"F+	c #1F4477",
". . . . . . . . . . . . . . . . . . . . . . . . . . . . . . . . ",
". . . . . . . . . . . . . . . . . . . . . . . . . . . . . . . . ",
". . . . . . . . . . . . . . . . . . . . . . . . . . . . . . . . ",
". . . + + + + + + + + + + + + + + + + + + + + + + + + + . . . . ",
". . . + @ @ @ @ @ @ @ @ @ @ @ @ @ @ @ @ @ @ @ @ @ @ @ + . . . . ",
". . . + @ # # # # # # # $ $ $ $ $ $ $ % % & & & & & & + . . . . ",
". . . + * * * * * * = = = = = = = = - - ; ; ; > > > > + . . . . ",
". . . + , , , , , , , , , , , , , , , , ' ' ' ' ' ' ' + . . . . ",
". . . + ) ! ! ! ! ! ! ! ! ! ! ! ! ' ! ! ! ! ! ! ~ { ~ + . . . . ",
". . . + ! ! ! ! ! ! ! ! ! ! ! ! ! ! ' ! ! ! ! ! ] ~ ! + . . . . ",
". . . + ! ! ! ! ! ! ! ! ! ! ! ! ! ! ! ! ! ! ! ] ! ! ^ + . . . . ",
". . . + ! ! ! ! ! / ( _ : < [ } ! ) ! ! ! ! ! ! ! | 1 + . . . . ",
". . . + ! , ! 2 3 4 5 6 7 8 9 { } ! ! ! ! ! ! ! 0 1 a + . . . . ",
". . . + b c d e f g h 7 i j k l m b 0 d n o p q r a s + . . . . ",
". . . + t u v w h x w y z z z z A B C D E F G H I J K + . . . . ",
". . . + 6 L M M N 5 O z z P Q K R S T U V W X Y Z `  .+ . . . . ",
". . . + ..+.@.#.S $.z %.&.*.=.-.;.>.,.'.l ).!.e ~.z ~.+ . . . . ",
". . . + {.].^./.(._.:.<.*.[.}.|.1.2.k 3.4.5.6.7.7.8.g + . . . . ",
". . . + 9.0.a.b.c.&.d.e.f.f.g.h.i.g j.z k.l.m.n.o.p.q.+ . . . . ",
". . . + r.s.t.u.v.v.w.x.y.z.A.;.j B.z C.D.z E.F.G.H.I.+ . . . . ",
". . . + J.K.s.L.M.N.-.:.O.P.Q.z 7.z R.i S.E.T.U.V.W.B + . . . . ",
". . . + X.Y.t.Z.`. +.+b.x ++$.@+Y #+$+2.>.N %+6 &+*+=++ . . . . ",
". . . + -+;+>+,+'+'+)+(.!+~+~+9.{+]+]+^+a.^+/+(+_+:+<++ . . . . ",
". . . + [+}+|+1+2+3+4+5+6+_.7+8+9+0+a+a+b+a+c+d+e+f+g++ . . . . ",
". . . + 7+h+i+j+k+l+X.m+n+o+p+q+b+b+r+r+r+r+r+0+9+b+r++ . . . . ",
". . . + s+X.t+t+r.u+v+u+v+u+w+x+r+r+r+r+r+r+0+r+r+r+r++ . . . . ",
". . . + <+l+y+9+z+b+A+B+C+D+^+r+r+r+r+r+0+E+F+r+r+r+r++ . . . . ",
". . . + + + + + + + + + + + + + + + + + + + + + + + + + . . . . ",
". . . . . . . . . . . . . . . . . . . . . . . . . . . . . . . . ",
". . . . . . . . . . . . . . . . . . . . . . . . . . . . . . . . ",
". . . . . . . . . . . . . . . . . . . . . . . . . . . . . . . . ",
". . . . . . . . . . . . . . . . . . . . . . . . . . . . . . . . "};
