/* XPM */
static char *rayMarcher[] = {
/* width height num_colors chars_per_pixel */
"    32    32      256            2",
/* colors */
"`` c #040204",
"`. c #046ebc",
"`# c #747e84",
"`a c #941e34",
"`b c #043e6c",
"`c c #149ef4",
"`d c #3c4244",
"`e c #7ca2bc",
"`f c #3c6e8c",
"`g c #a4aaac",
"`h c #3c82b4",
"`i c #04528c",
"`j c #44565c",
"`k c #acbec4",
"`l c #449ed4",
"`m c #74bae4",
"`n c #4c2e54",
"`o c #24527c",
"`p c #d4121c",
"`q c #5c5a5c",
"`r c #0482dc",
"`s c #5c869c",
"`t c #0c1a2c",
"`u c #5c6a74",
"`v c #accadc",
"`w c #44b6fc",
"`x c #bc727c",
"`y c #2c3a44",
"`z c #4c626c",
"`A c #bcbab4",
"`B c #dc1e24",
"`C c #6c4664",
"`D c #448ebc",
"`E c #045ea4",
"`F c #8cbedc",
"`G c #142a34",
"`H c #3c4a54",
"`I c #3c7694",
"`J c #2c6a94",
"`K c #748ea4",
"`L c #044a7c",
"`M c #9c9e9c",
"`N c #cca2a4",
"`O c #4c565c",
"`P c #245e84",
"`Q c #2486c4",
"`R c #bcc2bc",
"`S c #2caafc",
"`T c #acb6bc",
"`U c #64a2cc",
"`V c #74c6fc",
"`W c #5cc2fc",
"`X c #f41a1c",
"`Y c #5c96c4",
"`Z c #6c7e8c",
"`0 c #548eb4",
"`1 c #4c4a44",
"`2 c #247ab4",
"`3 c #34628c",
"`4 c #0c0e0c",
"`5 c #843e5c",
"`6 c #044674",
"`7 c #145684",
"`8 c #ec060c",
".` c #1c1a1c",
".. c #6c6a6c",
".# c #1c5e8c",
".a c #242a2c",
".b c #4c7ea4",
".c c #8c8e94",
".d c #94aebc",
".e c #4c5e64",
".f c #24668c",
".g c #e4262c",
".h c #546a74",
".i c #4c8ab4",
".j c #acc2cc",
".k c #646264",
".l c #048eec",
".m c #6c8ea4",
".n c #cc9694",
".o c #2c424c",
".p c #54626c",
".q c #c4babc",
".r c #447ea4",
".s c #3cb2fc",
".t c #b4b2b4",
".u c #5caeec",
".v c #f41614",
".w c #748aa4",
".x c #bc121c",
".y c #543e64",
".z c #74b2dc",
".A c #447294",
".B c #045a9c",
".C c #3c5a84",
".D c #84badc",
".E c #648eac",
".F c #141a1c",
".G c #54bafc",
".H c #4c8ec4",
".I c #9cbed4",
".J c #44525c",
".K c #44769c",
".L c #347294",
".M c #044e7c",
".N c #545a64",
".O c #2c8ecc",
".P c #c4c2c4",
".Q c #2cb2fc",
".R c #84cefc",
".S c #6cc6fc",
".T c #9caab4",
".U c #f42624",
".V c #54666c",
".W c #0c0a0c",
".X c #047ed4",
".Y c #044274",
".Z c #24a2fc",
".0 c #44423c",
".1 c #84aac4",
".2 c #3c729c",
".3 c #acaeac",
".4 c #3c8abc",
".5 c #0c5284",
".6 c #445a64",
".7 c #b4babc",
".8 c #44b2f4",
"#` c #74223c",
"#. c #dc6a6c",
"## c #b42634",
"#a c #545274",
"#b c #cc2a34",
"#c c #8c969c",
"#d c #6c5e7c",
"#e c #749ab4",
"#f c #5492d4",
"#g c #94465c",
"#h c #848a8c",
"#i c #bcc6cc",
"#j c #3482b4",
"#k c #74aad4",
"#l c #fc0204",
"#m c #9c9a9c",
"#n c #14161c",
"#o c #3c4a6c",
"#p c #5c727c",
"#q c #644e6c",
"#r c #2c7eb4",
"#s c #7c2a44",
"#t c #0466a4",
"#u c #9ca6ac",
"#v c #5496c4",
"#w c #1c669c",
"#x c #0496fc",
"#y c #84c2ec",
"#z c #5486a4",
"#A c #ccaaac",
"#B c #f42224",
"#C c #6c7274",
"#D c #f42e2c",
"#E c #7c7a7c",
"#F c #7cbeec",
"#G c #2c5684",
"#H c #343e44",
"#I c #1c2a3c",
"#J c #444e5c",
"#K c #2c5e8c",
"#L c #2c82bc",
"#M c #2c76ac",
"#N c #141214",
"#O c #64b2e4",
"#P c #5c8aac",
"#Q c #4cb6fc",
"#R c #c4767c",
"#S c #0c62a4",
"#T c #94badc",
"#U c #346a94",
"#V c #7c92a4",
"#W c #4c5a6c",
"#X c #34aefc",
"#Y c #6ca2cc",
"#Z c #7ccafc",
"#0 c #64c2fc",
"#1 c #4c4e54",
"#2 c #242e3c",
"#3 c #fc1214",
"#4 c #141e2c",
"#5 c #4caef4",
"#6 c #6496bc",
"#7 c #2c668c",
"#8 c #b4c2c4",
"a` c #0c7ecc",
"a. c #4482b4",
"a# c #b4cadc",
"aa c #bcc2cc",
"ab c #044684",
"ac c #1c5684",
"ad c #34424c",
"ae c #34b2fc",
"af c #64727c",
"ag c #3c7294",
"ah c #a4aeb4",
"ai c #045694",
"aj c #0486e4",
"ak c #5c8aa4",
"al c #2c3e4c",
"am c #bcbebc",
"an c #4c5a64",
"ao c #24628c",
"ap c #1c1e24",
"aq c #1c6294",
"ar c #242e34",
"as c #cc9a9c",
"at c #b4b6b4",
"au c #9cc2dc",
"av c #9caebc",
"aw c #f42a2c",
"ax c #b4bec4",
"ay c #040604",
"az c #5c5e5c",
"aA c #0c1e2c",
"aB c #74cafc",
"aC c #6c6e6c",
"aD c #646664",
"aE c #c4bebc",
"aF c #4c92c4",
"aG c #447a9c",
"aH c #24a6fc",
"aI c #fc0604",
"aJ c #1c2e3c",
"aK c #4cbafc",
"aL c #346e94",
"aM c #6ca6cc",
"aN c #64c6fc",
"aO c #043e74",
"aP c #3c424c",
"aQ c #445664",
"aR c #bcbabc",
"aS c #448ec4",
"aT c #3c769c",
"aU c #044a84",
"aV c #bcc2c4",
"aW c #acb6c4",
"aX c #04467c",
"aY c #94aec4",
"aZ c #4c5e6c",
"a0 c #048ef4",
"a1 c #546274",
"a2 c #bc1224",
"a3 c #044e84",
"a4 c #546674",
"a5 c #2c6694",
"a6 c #b4b6bc",
"a7 c #000000",
"a8 c #000000",
/* pixels */
".P.P`R.P.P`R.P.P`R.P.P`R.P.P`R.P.P`R.P.P`R.P.P`R.P.P`R.P.P`R.P.P",
"`R.P.P`R.P.P`R.P.P`R.P.P`R.P.P`R.P.P`R.P.P`R.P.P`R.P.P`R.P.P`R.P",
".Pam.PaEaVaE.Pam.PaEaVaE.Pam.PaEaVaE.Pam.PaEaVaE.Pam.PaEaVaE.Pam",
".P`R.PaV.PaV.P.P`R.P.PaV.P.P`R.P.PaV.P.P`R.P.PaV.PaEaV.P.PaV.P.P",
".Pam.PaE.PaE`RaE.Pam.PaE`RaE.Pam.PaE`RaE.Pam.PaEaVaEasawawaw.U.U",
".P.P`R.P`R.PaV.PaV.P`R.P.PaVaV.PaVaV`kaxam.PaV.P.Pam.q.n.naI#l.v",
"`RaEaVaEaVaE.Pam.PaE.Pam.PaEaVaEaa`v#F.u.zau.D`F`kaa.q#A#.#l#l#3",
".P.PaV.P.PaV.P.P`R.PaV.PaVaV.Pa#`m.G.s.s#0.S#Q`S#5#F#O#R.g#..n`X",
"aVaE.Pam.PaE`RaE.Pam.PaEam.I`w.s#X.s.8`V.S.s`S#Q#ZaN`w#f`x`Nas#B",
".P`R.P.P`R.P.PaV.P.P`R.P.P.Oaj.l#x`S#0`w.s`w.S#ZaKaH`c`l.waE.q`N",
".Pam.Pam.Pam.PaEaVaE.PaV.P`P`6`6#waSa``r.l.Z#Q`Sae.G`Q#j`eam.P`R",
".PaV.P.P.P.P`R.P.PaV.PaE`R`J.Y.Y#7.#`b.Yaq`h#t`..X`Q#j#f.d.Pam.P",
".PaE`RaEaVaEaVaEaVaE`R.P.P`s.raL.2.f.Y.Y`P.2.Y.Yai`2`Y#k`TaV.P.P",
"`R.PaV.P`R.P.P`R.P.P.Pam.P.K`7`J#P#PaTa5aLaG.M.Ya3aSaMaF.7.P`RaE",
".PaEaVaE.Pam.PaEaVaEaV.P`R.2`6aXao`3.y#U#z.E.K#U`2#k`D.4ax.P.PaV",
"aV.P.P`R.P.PaV.P.P`R.P.P.P`I.YaX`3`C.x#`.#.K.##U.iaF#r#Yaa`RaE.P",
".Pam.PaEaVaR`gam.PaEaVaEaV#eaT#G`5`p.x`n`P.2`6`6.B#raS#TaV.PaV.P",
".P`R.PaV#m`O.paZ#c.P`R.PaE#z.C#g`B#b#q`oa5.LaX.Yai.4#k`eaV.P`RaE",
".0.3aEamay`dafaZaQ.7.Paz..`s#``8###d.A.bak#Pa5`i.B`U#vav.P`R.P.P",
"``#EaVaD```Ha1aP.J#u`A`1`````4`a#a#K`baXaL#zag.r`Y`U.EaV.P.Pam.P",
"at`M#Cap``.J.p#n`Han.J.F#N#N``#o#Uao.Y.Y.#.2`L.5`E#vax.P`R.PaV.P",
".P`M.N.e`u.e.p`zar`GaJ#NaA.W`4atah.mac.Y.#.2`L`L`E.d`R.Pam.PaEaV",
"am`dad`ZafaZ.p.6`y#n#NazaC.W.`aVaE`Ra6#u`K`f.Y.Y`0.P.P`R.PaV.P.P",
"aCar.VaZaZ.pad#4#n#N`u.t`Rat`A.PaVaEaV.P.Pat#u.m`TaVaE.PaE.Pam.P",
"`4#Ha1`Oad.h.a#N#N#N.Jat.P.Pam.P.P`R.P.P`RaV.PaV.P.P`R.PaV.P`R.P",
".W`Ha4ad#Na4#N#N`G`t#h`R.P`R.Pam.PaEaVaE.PaEaVaE.Pam.Pam.PaE.Pam",
"`qaP.Vananal#NaA.o`M`RaEaVaE.P.P`R.P.P`R.P`R.P`R.P.P`R.P`R.PaV.P",
".7#1.J.6`#`MaC#hat.P.PaV.P`R.Pam.Pam.Pam.PaEaVaEaVaE.PaEaVaE.Pam",
".Pam#m`gam.P.P.P.P`RaE.PaEaV.P.P`R.P.P.PaV.P.P.P.PaV.PaV.PaV.P.P",
".Pam.P.P.P`R.P`RaEaV.P`R.PaEaVaE.Pam.Pam.Pam.Pam.Pam.PaEaVaE.Pam",
".P`R.P`RaEaVaEaV.P.Pam.PaV.P.P`R.PaV.P.P`R.P`R.P.P.P`R.P.P`R.P.P",
".P`RaEaV.P.PaV.Pam.P.Pam.Pam.PaEaVaE`RaE.Pam.Pam.Pam.Pam.PaEaVaE"
};
