/* XPM */
static char *render_mib_amb_occlusion[] = {
/* width height num_colors chars_per_pixel */
"    32    32      256            2",
/* colors */
"`` c #c1c1c1",
"`. c #c4c4c4",
"`# c #cccccc",
"`a c #d9d9d9",
"`b c #e5e5e5",
"`c c #ededed",
"`d c #f5f5f5",
"`e c #f4f4f4",
"`f c #eeeeee",
"`g c #e4e4e4",
"`h c #d8d8d8",
"`i c #cccbcb",
"`j c #e0e0e0",
"`k c #fcfdfd",
"`l c #fefefe",
"`m c #fcfcfc",
"`n c #e1e1e2",
"`o c #c3c3c3",
"`p c #d4d4d4",
"`q c #fafafa",
"`r c #ffffff",
"`s c #d5d4d4",
"`t c #c2c2c2",
"`u c #d3d3d3",
"`v c #f0f0f0",
"`w c #fbfbfb",
"`x c #fdfdfd",
"`y c #d5d5d5",
"`z c #cecece",
"`A c #ececec",
"`B c #f9f9f9",
"`C c #f8f8f8",
"`D c #cfd0cf",
"`E c #c6c6c6",
"`F c #f6f5f5",
"`G c #e3e3e4",
"`H c #c7c7c7",
"`I c #d1d1d1",
"`J c #f7f7f7",
"`K c #ececed",
"`L c #d2d2d2",
"`M c #dddddd",
"`N c #f2f2f2",
"`O c #f6f6f6",
"`P c #dbdbdb",
"`Q c #c5c5c5",
"`R c #c8c8c8",
"`S c #e3e3e3",
"`T c #ebebeb",
"`U c #fafaf9",
"`V c #e9e9e9",
"`W c #e1e1e1",
"`X c #e6e6e6",
"`Y c #f5f6f6",
"`Z c #f5f5f4",
"`0 c #f1f1f1",
"`1 c #d9dada",
"`2 c #e8e8e8",
"`3 c #f8f9f9",
"`4 c #e6e7e6",
"`5 c #d7d7d7",
"`6 c #dadada",
"`7 c #e7e7e7",
"`8 c #f3f3f3",
".` c #f8f8f7",
".. c #efefef",
".# c #e0e1e0",
".a c #bababa",
".b c #dfdfdf",
".c c #f0f0f1",
".d c #dedede",
".e c #cfcfcf",
".f c #b9b9b9",
".g c #adadad",
".h c #bcbcbc",
".i c #cecfce",
".j c #dadbda",
".k c #eaeaea",
".l c #dfdfe0",
".m c #d9d9da",
".n c #a7a7a7",
".o c #b8b8b8",
".p c #c9c9c9",
".q c #d5d5d4",
".r c #d8d8d7",
".s c #dcdcdc",
".t c #e0e1e1",
".u c #deddde",
".v c #c0c0c0",
".w c #b7b7b7",
".x c #aaaaaa",
".y c #ababab",
".z c #9a9a9a",
".A c #a8a8a8",
".B c #b1b0b0",
".C c #cacaca",
".D c #d0d0d0",
".E c #d2d3d3",
".F c #cdcdcd",
".G c #bfbfbf",
".H c #afafaf",
".I c #989898",
".J c #acacac",
".K c #898989",
".L c #939393",
".M c #9c9d9d",
".N c #a6a6a6",
".O c #b4b4b4",
".P c #b9b8b9",
".Q c #c1c2c2",
".R c #c2c1c2",
".S c #bfc0bf",
".T c #bdbdbd",
".U c #b3b3b3",
".V c #9d9d9d",
".W c #919191",
".X c #888788",
".Y c #777777",
".Z c #848484",
".0 c #909090",
".1 c #9e9e9e",
".2 c #a3a3a3",
".3 c #a8a8a7",
".4 c #aeaeae",
".5 c #aeafae",
".6 c #a4a4a3",
".7 c #979797",
".8 c #8f8f8f",
"#` c #858585",
"#. c #757575",
"## c #999898",
"#a c #737272",
"#b c #676767",
"#c c #7f7f7f",
"#d c #8b8b8b",
"#e c #90908f",
"#f c #939392",
"#g c #959595",
"#h c #969696",
"#i c #7d7d7d",
"#j c #747474",
"#k c #727172",
"#l c #cbcbcb",
"#m c #545454",
"#n c #555555",
"#o c #606161",
"#p c #676867",
"#q c #6e6e6e",
"#r c #797979",
"#s c #787878",
"#t c #767676",
"#u c #727272",
"#v c #6e6e6d",
"#w c #5f6060",
"#x c #535353",
"#y c #b6b6b6",
"#z c #9b9b9b",
"#A c #414141",
"#B c #3d3d3d",
"#C c #474848",
"#D c #4e4e4f",
"#E c #575757",
"#F c #5a5a5a",
"#G c #5b5b5b",
"#H c #595959",
"#I c #4e4e4e",
"#J c #474747",
"#K c #3b3b3b",
"#L c #3f3f3f",
"#M c #e2e2e2",
"#N c #949494",
"#O c #404040",
"#P c #262626",
"#Q c #2d2e2d",
"#R c #343534",
"#S c #383838",
"#T c #3a3a3a",
"#U c #373737",
"#V c #333333",
"#W c #2c2c2c",
"#X c #232323",
"#Y c #919292",
"#Z c #282828",
"#0 c #191919",
"#1 c #1c1c1d",
"#2 c #1f1f1f",
"#3 c #201f20",
"#4 c #1e1e1e",
"#5 c #1b1b1b",
"#6 c #181717",
"#7 c #272727",
"#8 c #535453",
"a` c #6d6d6d",
"a. c #303130",
"a# c #1e1f1e",
"aa c #121212",
"ab c #131313",
"ac c #313131",
"ad c #4f4f4f",
"ae c #6c6c6c",
"af c #d6d6d6",
"ag c #8d8d8d",
"ah c #616161",
"ai c #525252",
"aj c #4c4c4c",
"ak c #4d4d4d",
"al c #636363",
"am c #a4a4a4",
"an c #737373",
"ao c #818181",
"ap c #9f9f9f",
"aq c #a1a1a1",
"ar c #bebebe",
"as c #000000",
"at c #000000",
"au c #000000",
"av c #000000",
"aw c #000000",
"ax c #000000",
"ay c #000000",
"az c #000000",
"aA c #000000",
"aB c #000000",
"aC c #000000",
"aD c #000000",
"aE c #000000",
"aF c #000000",
"aG c #000000",
"aH c #000000",
"aI c #000000",
"aJ c #000000",
"aK c #000000",
"aL c #000000",
"aM c #000000",
"aN c #000000",
"aO c #000000",
"aP c #000000",
"aQ c #000000",
"aR c #000000",
"aS c #000000",
"aT c #000000",
"aU c #000000",
"aV c #000000",
"aW c #000000",
"aX c #000000",
"aY c #000000",
"aZ c #000000",
"a0 c #000000",
"a1 c #000000",
"a2 c #000000",
"a3 c #000000",
"a4 c #000000",
"a5 c #000000",
"a6 c #000000",
"a7 c #000000",
"a8 c #000000",
/* pixels */
"`````````````````````.`#`a`b`c`d`e`f`g`h`#`.````````````````````",
"```````````````````i`j`e`k`l`l`l`l`l`l`m`d`n`#``````````````````",
"```````````````o`p`f`q`l`l`l`r`r`r`r`l`l`l`q`f`s`o``````````````",
"`````````````t`u`v`w`x`x`l`l`r`r`r`r`r`l`l`m`w`v`y`o````````````",
"`````````````z`A`B`w`m`l`r`r`r`r`r`r`r`r`l`x`w`C`A`D````````````",
"```````````E`g`F`C`w`x`l`l`r`r`r`r`r`r`r`l`x`w`C`d`G`H``````````",
"`````````t`I`f`e`C`w`m`l`l`r`r`r`r`r`r`l`l`m`q`J`e`K`L`t````````",
"`````````.`M`f`N`J`q`m`l`l`l`r`r`r`r`l`l`l`m`B`O`N`c`P`Q````````",
"`````````R`S`T`v`e`C`q`m`x`x`l`l`l`l`x`x`m`U`J`e`v`V`j`R````````",
"`````````Q`W`X`c`N`Y`C`q`m`m`x`x`x`x`m`w`q`J`Z`0`A`b`M`E````````",
"`````````Q`1`W`2`c`0`e`J`B`q`w`w`w`w`B`3`J`e`0`A`4`j`5`Q````````",
"`````````.`L`6`W`7`A`v`8`d`O`C`C`C.``O`e`N..`T`7.#`h`z`t````````",
"````````.a`R`I`a.b`g`V`A...c`N`N`N`0`v`f`A`2`S.d`h.e`E.f````````",
"````````.g.h`H.i`y.j`j`S`X`V.k`T`T.k`2`X`S.l.m`p`z`..f.g````````",
"````````.n.g.o``.p.e.q.r.s.d.t`W`j`j.u`P`h`p`z`R.v.w.x.n````````",
"````````.y.z.A.B.f.v`Q.C`z.D`L`L.E`L`I.F.C`E.G.o.H.n.I.J````````",
"````````.o.K.L.M.N.g.O.P.h.G``.Q`t.R.S.T.P.U.g.N.V.W.X.o````````",
"````````.G.I.Y.Z.0.I.1.2.3.y.4.5.4.g.y.A.6.1.7.8#`#.##.G````````",
"```````t`p`P#a#b#.#c#`#d#e#f#g#h#h#g.L.8#d#`#i#j#b#k.b`W`o``````",
"````#l`A`l`r.o#m#n#o#p#q#j.Y#r#r#r#s#t#u#v#b#w#x#x#y`r`r`N`I````",
".C`P`d`r`r`r.k#z#A#B#C#D#m#E#F#G#F#H#E#x#I#J#K#L#z`b`r`r`r`m#M`Q",
"`5`r`r`r`r`r`A`h#N#O#P#Q#R#S#T#K#K#T#U#V#W#X#B#Y`y`b`r`r`r`r`r`v",
"```a`B`r`r`r`f`M`E#h#n#Z#0#1#2#2#3#4#5#6#7#8.L```6`2`r`r`r`x#M`R",
"````.p`V`r`r`N`W`#.U#Na`#Ia.a#aaab#2acadae.W.4`H`j`A`r`r`f`p````",
"`````````h`O`C`Vaf.v.Nag#.ahaiajak#nal#.#dam.h`u`V`8`m`g`o``````",
"``````````.p`X`N`S`z.fam.0#can#q#q#jao.W.2.w`#.b`8`A.D`t````````",
"```````````````u`X`W.e.T.gap#h.W.W.7aq.g.h.F.d`2.s`H````````````",
"`````````````````Q`6`gaf.par.w.U.U.o.v.C`y#M#M`#````````````````",
"``````````````````.v`z`g`S`Paf`u`uaf.s#M`V`p`.``````````````````",
"```````````````````````E`W`8..`A`A..`8`7`I``````````````````````",
"```````````````````````````u`d`r`r`q`j`o````````````````````````",
"`````````````````````````````E`g`A#l````````````````````````````"
};
