/* XPM */
static char * render_dl_textureMap_xpm[] = {
"32 32 17 1",
" 	c None",
".	c #FFFFFF",
"+	c #D64C4C",
"@	c #EBA6A6",
"#	c #EFBABA",
"$	c #FBEDED",
"%	c #F8E3E3",
"&	c #E48787",
"*	c #E07A7A",
"=	c #DD6969",
"-	c #FAE9E9",
";	c #F2C7C7",
">	c #F5D5D5",
",	c #E9A0A0",
"'	c #ECADAD",
")	c #D85757",
"!	c #E79595",
"................................",
"................................",
"..+++++++++++++++@@@@@#$$$$$%+..",
"..+++++++++++++++@@@@@%$$$$$&+..",
"..++++++++++++++*@@@@@$$$$$$++..",
"..++++++++++++++&@@@@@$$$$$$++..",
"..+++++++++++++=@@@@@#$$$$$-++..",
"..+++++++++++++*@@@@@;$$$$$>++..",
"..+++++++++++++,@@@@'$$$$$$=++..",
"..+++++++++++++@@@@@#$$$$$-)++..",
"..+++++++++++++@@@@@%$$$$$!+++..",
"..++++++++++++)@@@@@$$$$$$=+++..",
"..++++++++++++&@@@@@$$$$$$++++..",
"..+++++++++++)@@@@@#$$$$$$++++..",
"..+++++++++++*@@@@@;$$$$$>++++..",
"..+++++++++++,@@@@@$$$$$$*++++..",
"..+++++++++++@@@@@@$$$$$$)++++..",
"..+++++++++++@@@@@@$$$$$,+++++..",
"..++++++++++)@@@@@'$$$$$=+++++..",
"..++++++++++&@@@@@>$$$$$++++++..",
"..++++++++++@@@@@'$$$$$$++++++..",
"..++++++++++@@@@@;$$$$$%++++++..",
"..++++++++++@@@@@-$$$$$&++++++..",
"..+++++++++)@@@@@$$$$$-)++++++..",
"..+++++++++!@@@@@$$$$$@+++++++..",
"..+++++++++,@@@@@$$$$$*+++++++..",
"..++++++++*@@@@@;$$$$$++++++++..",
"..++++++++!@@@@@%$$$$$++++++++..",
"..++++++++@@@@@#$$$$$%++++++++..",
"..++++++++@@@@@-$$$$$!++++++++..",
"................................",
"................................"};
