/* XPM */
static char *dummy[]={
"32 32 776 2",
"jr c #264752",
"jF c #274952",
"js c #274c50",
"jH c #284a53",
"jG c #284b53",
"jI c #294b54",
"d3 c #2a4854",
"jE c #2a4c54",
"d4 c #2a4d52",
"jJ c #2a4f56",
"eg c #2b4953",
"jK c #2b5158",
"d5 c #2c4c53",
"jt c #2c5258",
"ef c #2d4b54",
"d6 c #2d4b55",
"d7 c #2e4d55",
"da c #2e525a",
"eh c #2f4e57",
"i4 c #2f505a",
"cL c #2f535b",
"jL c #2f545b",
"dC c #2f5558",
"dB c #30505a",
"iO c #30525a",
"d8 c #314f58",
"dR c #315259",
"jf c #31525a",
"dQ c #32535a",
"dD c #32545b",
"jM c #32575e",
"d9 c #33525b",
"je c #33535a",
"jg c #33535b",
"dn c #33545b",
"iI c #33545c",
"db c #33555b",
"iz c #33555e",
"cj c #33565f",
"i5 c #33575c",
"ju c #335960",
"dE c #34555c",
"jN c #345960",
"jP c #345c63",
"cZ c #35555c",
"jh c #35565d",
"ih c #355760",
"ei c #36545e",
"cM c #36565d",
"dF c #36575e",
"dc c #36575f",
"bS c #365962",
"e. c #37555e",
"ji c #37575f",
"e# c #375760",
"c0 c #37585f",
"iP c #38585f",
"cw c #385960",
"dG c #385961",
"dd c #385a62",
"jO c #385d64",
"iJ c #395a61",
"jj c #395b62",
"cN c #3a5a63",
"ck c #3a5b61",
"iY c #3a5b62",
"ib c #3a5b63",
"de c #3a5b64",
"b6 c #3a5c63",
"h1 c #3a5c65",
"i6 c #3a5d63",
"bs c #3a5d66",
"ia c #3b5c62",
"dH c #3b5c63",
"ea c #3b5c65",
"df c #3b5d64",
"iA c #3c5d63",
"do c #3c5d64",
"cO c #3c5d66",
"dI c #3c5e65",
"eb c #3c5e67",
"jv c #3c6168",
"jq c #3d5a60",
"cl c #3d5d66",
"bT c #3d5e64",
"cx c #3d5e65",
"hV c #3d5e66",
"jk c #3d5f66",
"a5 c #3d6169",
"hU c #3e5f65",
"ic c #3e5f66",
"cP c #3e5f68",
"dg c #3e6066",
"hI c #3e6069",
"ej c #3f5d66",
"cQ c #3f6067",
"bE c #3f6167",
"d2 c #405a5f",
"dJ c #405f67",
"d# c #406060",
"bU c #406068",
"cm c #406069",
"cK c #406160",
"ii c #406167",
"bt c #406168",
"dh c #406268",
"jl c #406269",
"hC c #40626a",
"aD c #40646d",
"ec c #40676b",
"b7 c #416068",
"cR c #416269",
"i7 c #41636b",
"dp c #41656b",
"hB c #426269",
"bV c #42636a",
"cn c #42636b",
"di c #42646a",
"co c #42646b",
"jm c #42646c",
"hs c #42646d",
"jn c #42666f",
"ci c #436364",
"cS c #43646b",
"a# c #436770",
"dK c #44626a",
"bu c #44646b",
"iZ c #44656b",
"a6 c #44656c",
"bW c #44656d",
"be c #44666c",
"hk c #44666d",
"bX c #44676d",
"iN c #455f61",
"dL c #45646c",
"h2 c #45666c",
"cp c #45666d",
"jw c #45666e",
"bv c #45676e",
"i3 c #465f63",
"iy c #466063",
"ek c #46646d",
"hj c #46666d",
"i0 c #46676d",
"cT c #46676e",
"dS c #46676f",
"c1 c #46696f",
"i1 c #466a70",
"#I c #466a73",
"ig c #476163",
"bR c #476667",
"a7 c #47686e",
"aE c #47686f",
"g8 c #476871",
"bY c #476a70",
"dA c #485f65",
"dM c #48646e",
"aS c #48686f",
"hJ c #48696f",
"bw c #486970",
"a8 c #486a70",
"g1 c #486a71",
"bf c #496870",
"g0 c #496a70",
"cU c #496a71",
"i8 c #496b72",
"bZ c #496c72",
"h0 c #4a6466",
"b8 c #4a6870",
"aF c #4a6971",
"bx c #4a6a72",
"dj c #4a6b70",
"cq c #4a6b72",
"cy c #4a6d73",
"br c #4b6b6c",
"it c #4b6b73",
"dq c #4b6c72",
"aa c #4b6c73",
"gM c #4b6c75",
"gA c #4b6d74",
"iL c #4b6e75",
"aG c #4c6c73",
"#g c #4c6c74",
"gz c #4c6d73",
"cV c #4c6d74",
"hW c #4c6e74",
"b0 c #4c6e75",
"dN c #4d6b72",
"hl c #4d6b73",
"aT c #4d6c74",
"h3 c #4d6d74",
".O c #4d6d77",
"id c #4d6e75",
"dT c #4d6e76",
"cW c #4d6f73",
".P c #4d7375",
"hH c #4e676a",
"ao c #4e6c74",
"cr c #4e6e75",
"iu c #4e6e76",
"iK c #4e6f76",
"iw c #4e7279",
"ab c #4f6c74",
"bF c #4f6d75",
"a4 c #4f6e6f",
"aH c #4f6e76",
"by c #4f6f76",
"#J c #4f7076",
"gB c #4f7077",
"go c #4f7079",
"a9 c #506d75",
"g2 c #506e76",
"c2 c #507077",
"cs c #507178",
"ct c #507277",
"dk c #516e77",
"b9 c #516f76",
"ac c #516f77",
"gg c #517077",
"#X c #517078",
"fQ c #517079",
"fR c #51707a",
"iv c #517279",
"#h c #517377",
"hr c #526b6d",
"b1 c #526f78",
"g9 c #527077",
"b. c #527078",
"ap c #527179",
"hX c #52727a",
"hD c #52737a",
"iB c #52747b",
"aI c #537078",
"#K c #537178",
"dr c #537179",
"ie c #53747c",
".Q c #53757b",
"jQ c #546f73",
"bg c #547179",
"aC c #547273",
"ad c #54727a",
"cX c #54727b",
"gh c #54737b",
"cz c #54747b",
"b# c #55727a",
"aJ c #55737b",
"#L c #55737c",
"dU c #55747b",
"h4 c #55747c",
"f4 c #55747d",
".3 c #55767b",
"jx c #55767f",
"bG c #56737b",
"b2 c #567479",
"ae c #56747c",
"#Y c #56757d",
"fS c #56757f",
"gN c #57757c",
"aK c #57757d",
"fT c #577580",
".R c #57777e",
"ij c #57787f",
"hY c #577880",
"g7 c #587173",
"#v c #58747b",
"#i c #58757c",
"c3 c #58757e",
"cu c #58757f",
"a. c #587677",
"af c #58767e",
"bz c #58767f",
"#M c #58777f",
"el c #59747c",
"fD c #597480",
"ba c #59777f",
".S c #597980",
".4 c #597b81",
"#j c #5a777e",
"bh c #5a777f",
"bA c #5a787e",
"aL c #5a787f",
"#N c #5a7881",
"#H c #5a797a",
"h. c #5a797e",
"gp c #5b7980",
"ag c #5b7981",
"gC c #5b7982",
"ds c #5b7a80",
"hF c #5b7b83",
"fU c #5c7883",
"#k c #5c7980",
"cA c #5c7982",
"hm c #5c7a81",
"aq c #5c7a82",
"#O c #5c7a83",
"dV c #5c7b81",
"jy c #5c7d85",
"gL c #5d7678",
"b3 c #5d7781",
"hE c #5d7a82",
"ht c #5d7b83",
"hn c #5e7b81",
"aM c #5e7b82",
"ah c #5e7c82",
".T c #5e7c83",
"gD c #5e7c84",
".N c #5f7a7e",
"#l c #5f7c83",
"bH c #5f7c84",
"fV c #5f7c87",
"ik c #5f7d85",
"#P c #5f7d86",
"gO c #5f7e82",
"gn c #60797c",
"em c #607c84",
"g3 c #607d84",
"f5 c #607e83",
"c4 c #607e84",
"aN c #607e85",
"#Z c #607e86",
".U c #607f86",
"bB c #617c85",
"#m c #617d85",
"ho c #617e84",
"c. c #617e86",
"aO c #617f85",
"#Q c #617f86",
"gE c #617f87",
"fE c #618086",
"ai c #627f85",
"hK c #627f87",
"dt c #628186",
"jo c #63797f",
"#f c #637c7f",
"#n c #637f87",
"ar c #638086",
"fW c #638087",
"bi c #638088",
"gF c #638188",
".V c #638189",
"gq c #638287",
"cB c #648288",
"dW c #648389",
".5 c #64848a",
"#R c #658287",
"aj c #658288",
"ak c #658388",
"g4 c #65838a",
"i2 c #667c80",
"f3 c #667e81",
"bb c #66808a",
"#w c #66828a",
"iQ c #668387",
"gG c #668389",
"bI c #66838b",
".W c #66848b",
"jz c #66868b",
"#o c #67838a",
"aU c #67838b",
"gP c #67848a",
"fX c #67848b",
"c5 c #67858a",
"#0 c #67858b",
"f6 c #67868b",
"fC c #688186",
"en c #68838a",
"aP c #68838d",
"gi c #68858a",
"#S c #68858b",
".X c #68868e",
"gI c #68878e",
"hL c #69858b",
"c# c #69858d",
"gH c #69868c",
"fY c #69868d",
"i9 c #69878c",
"bj c #69878f",
"#T c #69888d",
"iM c #6a7f83",
"#p c #6a868d",
"du c #6a878e",
"fF c #6a8790",
"iC c #6a888c",
".Y c #6a8990",
"gj c #6b878c",
"cC c #6b898e",
"gr c #6b898f",
"ix c #6c8286",
"h# c #6c878e",
"fZ c #6c878f",
"al c #6c8791",
"h5 c #6c888e",
"as c #6c888f",
"#q c #6d898f",
"dX c #6d8a90",
".6 c #6d8b90",
"#x c #6e898e",
"gk c #6e8a8f",
".Z c #6e8a91",
"bJ c #6e8a92",
"iR c #6e8b8f",
"f1 c #6e8d94",
"aV c #6f8a92",
"#r c #6f8b90",
"c6 c #6f8b92",
"il c #6f8c90",
"f0 c #708b93",
"#U c #708b96",
"#1 c #708c93",
"jA c #708e94",
"eo c #718b91",
"gQ c #718b92",
"fp c #718c8f",
"hM c #718d93",
"fo c #728c8e",
"ca c #728c92",
"f7 c #728d93",
"j. c #728e92",
"dv c #728f94",
"bk c #728f96",
"if c #73878c",
"ha c #738f93",
"cD c #738f96",
".0 c #739194",
"fG c #748e97",
"iD c #748f94",
"#s c #749195",
"fq c #758f92",
"gs c #759097",
"hu c #759197",
"hZ c #768a8e",
"at c #768f95",
"fr c #779093",
"f# c #779095",
"bK c #779197",
"dY c #779296",
"#y c #789097",
"h6 c #789198",
"c7 c #789398",
"aW c #789399",
"iS c #789498",
".7 c #789499",
"hG c #798d91",
"im c #799398",
"#2 c #79939a",
"fs c #7a9296",
"cb c #7b9498",
"f8 c #7b949a",
"bl c #7b959c",
"dw c #7b979b",
"ft c #7c9497",
"j# c #7c959b",
"hN c #7c959d",
"hb c #7c979b",
"ev c #7d8b8d",
"ep c #7d939a",
"fu c #7d9699",
"hp c #7e9094",
"au c #7e979c",
"cE c #7e979d",
"gt c #7f979d",
"fv c #7f989a",
"dZ c #7f989d",
"fH c #7f989e",
"fa c #7f9a9c",
"ey c #808d8e",
"ex c #808e8f",
".j c #809197",
"f. c #809697",
"iE c #80989d",
"bL c #80999d",
"h7 c #80999e",
"hv c #8099a0",
"ew c #818f90",
"jB c #81979e",
"#z c #81989e",
"fw c #819a9c",
"aX c #819b9f",
"c8 c #819ba0",
"ez c #828f90",
"g5 c #829397",
"iT c #829aa0",
"gR c #829ba0",
".8 c #829ba2",
"eA c #839091",
"eq c #839ba2",
"jT c #848f94",
"jU c #849093",
"eB c #849193",
".k c #849698",
"cc c #849ba0",
"fx c #849c9f",
"#3 c #849ca1",
"bm c #849da1",
"j9 c #859193",
"k# c #859194",
"k. c #859294",
"ka c #859395",
".l c #85979b",
"f9 c #859ca2",
"hO c #859da3",
"fb c #859fa2",
"jV c #869495",
"gJ c #86979c",
"in c #869ba1",
"ja c #869ca2",
"fy c #869da1",
"hc c #869ea4",
"dx c #869fa4",
"fI c #869fa6",
"eC c #879495",
"kb c #879597",
"kc c #879697",
".m c #87989d",
"f2 c #879ea0",
"av c #87a0a4",
"j8 c #889597",
"jW c #889798",
"ke c #889799",
".y c #88999d",
".n c #889a9e",
"gu c #889ea5",
"d0 c #889ea7",
"fz c #889fa3",
"cF c #889fa5",
"fA c #88a0a3",
"eD c #899797",
"gl c #899a9f",
".z c #899b9f",
"iF c #899ea5",
"eE c #8a9898",
"kd c #8a989a",
"hw c #8aa1a6",
"iU c #8aa2a8",
"aY c #8aa3a7",
"eu c #8b9998",
"#A c #8ba0a5",
"bM c #8ba1a6",
"eF c #8c9799",
"eJ c #8c9899",
"jX c #8c9a9c",
".o c #8c9ca0",
".i c #8c9d9e",
"gS c #8ca2a8",
"fc c #8ca3a6",
".9 c #8ca3aa",
"jS c #8d989a",
"cd c #8da3a9",
".p c #8e9da2",
"#4 c #8ea3a8",
"dy c #8ea6ad",
".A c #8fa0a4",
"io c #8fa2a9",
"g. c #8fa4aa",
"hd c #8fa5ab",
"eK c #909c9d",
"jY c #909c9e",
".q c #909fa4",
"hP c #90a5aa",
"fJ c #90a7af",
".r c #91a1a5",
"bn c #91a6ac",
"jb c #91a7aa",
"aw c #91a7ac",
"iG c #91a7ad",
"eG c #929c9d",
"jZ c #939fa2",
"gv c #93a6ad",
"cG c #93a7ae",
".s c #94a3a7",
"#B c #94a8ad",
"h8 c #94a8ae",
"fd c #94a9ab",
"c9 c #94aab2",
".t c #95a5a8",
".B c #95a6a9",
"bN c #95a8af",
"hx c #95a9ae",
"gT c #95a9af",
"aZ c #95aab0",
"eL c #96a1a2",
"ip c #96acb2",
"j0 c #97a3a6",
"#5 c #97aab0",
"#. c #97abb1",
"kf c #98a3a3",
".u c #98a4aa",
"iV c #98aab0",
"j1 c #99a7a9",
"g# c #99abb3",
"ce c #99acb1",
"hQ c #99acb2",
".v c #9aa8ab",
"eM c #9ba5a5",
"bo c #9badb4",
"he c #9baeb3",
"cH c #9bafb7",
".C c #9cabae",
"fe c #9cacb0",
"gw c #9caeb5",
"ax c #9cafb5",
"fK c #9cb1ba",
"eN c #9da7a8",
"j2 c #9da9ac",
"#C c #9db0b5",
"iX c #9ea7a6",
"fB c #9eacab",
"hy c #9eb0b6",
"iH c #9fa8a7",
"is c #9fa8a8",
"er c #9faeb0",
"h9 c #9fb0b7",
"bO c #9fb1b7",
"jD c #a0a6a8",
"jd c #a0a7a7",
"a0 c #a0b2b7",
"gU c #a0b3b8",
"## c #a0b4bb",
"cf c #a1b5b8",
"eO c #a2abab",
"j3 c #a2adb0",
".D c #a2b0b4",
"#6 c #a2b3bb",
"iq c #a2b5ba",
"ee c #a3a9a9",
"i# c #a3aaaa",
"b5 c #a3aaac",
"ga c #a3b3ba",
"dP c #a4aaa9",
"hT c #a4aaab",
"dm c #a4abac",
"ff c #a4b1b6",
"hR c #a4b4bc",
"hf c #a4b6ba",
"bD c #a5acad",
"ay c #a5b7bb",
"hA c #a6abad",
"bd c #a6adaf",
"eP c #a6afaf",
"bp c #a6b5bc",
"fL c #a6b8be",
"hi c #a7adae",
"aR c #a7aeb0",
"d1 c #a7b0b6",
"gZ c #a8aeae",
"gy c #a8aeaf",
"bP c #a8babd",
"#D c #a9b9bf",
"i. c #a9babd",
"an c #aaafb1",
"gf c #aab0b0",
"fP c #aab1b1",
"#W c #aab1b2",
"dz c #aab4b8",
".E c #aab5b9",
"hz c #aab9c1",
"gV c #abbdc0",
"#u c #acb2b2",
"eQ c #acb3b3",
"fg c #acb8be",
"a1 c #acbcc0",
".2 c #adb2b2",
"d. c #adb8bb",
"#7 c #adbcc2",
"#a c #aebfc3",
"ed c #afb4b6",
"eR c #afb6b6",
"hS c #afbfc2",
".F c #b0b9bd",
"gb c #b0bec4",
"dO c #b1b5b7",
"dl c #b1b6b6",
"cY c #b1b7b6",
"hg c #b1c0c2",
"fn c #b2b7b7",
"cv c #b2b8b8",
"cI c #b2bcbf",
"fh c #b2bec1",
"#E c #b2c0c4",
"az c #b2c1c4",
"a2 c #b3c3c5",
"j4 c #b4b8ba",
"b4 c #b4b9b9",
"#b c #b4c4c5",
"fO c #b4c5c5",
"#d c #b4c5c7",
"fM c #b4c5c8",
"bC c #b5baba",
".G c #b5bec2",
"fN c #b5c5c7",
"bc c #b6babb",
"cg c #b6bfc1",
"gc c #b6c2c8",
"gW c #b6c3c5",
"gX c #b6c4c4",
"hh c #b6c4c5",
"gx c #b6c5c4",
"aA c #b6c5c6",
"#c c #b6c5c7",
"aQ c #b7bcbb",
"#9 c #b7c4c6",
"#8 c #b7c4c7",
".x c #b8bbbb",
"j5 c #b8bcbe",
"am c #b8bdbd",
"fk c #b8c3c3",
"#F c #b8c4c8",
"ge c #b8c5c7",
"eS c #b9bcbc",
"#V c #b9bdbe",
"bQ c #b9c1c3",
"fl c #b9c3c2",
"fi c #b9c4c3",
"fj c #b9c4c4",
"gd c #b9c4c8",
"eI c #babcbd",
"j7 c #babdbd",
"#t c #babdbe",
"bq c #bac3c5",
".1 c #bbbebe",
".J c #bbc3c3",
"#G c #bbc3c4",
".H c #bbc3c5",
"#e c #bbc4c4",
"eH c #bcbdbe",
".I c #bcc4c4",
"jp c #bebfbf",
"cJ c #bfbfbf",
"ch c #bfc0c0",
".w c #bfc0c1",
".K c #bfc2c2",
"a3 c #c0c0c0",
"hq c #c1c0c0",
"jR c #c1c1c1",
"aB c #c1c2c2",
"g6 c #c2c1c1",
"gK c #c2c1c2",
"e0 c #c2c2c1",
".M c #c2c2c2",
"jC c #c2c3c4",
"jc c #c2c4c4",
"e1 c #c3c2c2",
".h c #c3c3c3",
"fm c #c4c3c4",
"et c #c4c4c4",
"iW c #c4c5c6",
"e9 c #c5c3c3",
"e8 c #c5c4c3",
".L c #c5c4c4",
"gm c #c5c5c4",
".b c #c5c5c5",
"gY c #c5c5c6",
"ir c #c5c6c6",
"e7 c #c6c4c4",
"e6 c #c6c5c4",
".g c #c6c5c5",
"es c #c6c6c5",
".c c #c6c6c6",
"j6 c #c6c6c7",
"e5 c #c7c5c5",
".f c #c7c6c5",
".e c #c7c6c6",
".d c #c7c7c6",
".a c #c7c7c7",
"e4 c #c8c6c6",
".# c #c8c7c7",
"Qt c #c8c8c8",
"eZ c #c9c6c6",
"e3 c #c9c7c6",
"eY c #c9c7c7",
"e2 c #c9c8c7",
"eX c #cac7c7",
"eW c #cac8c7",
"eT c #cac8c8",
"eV c #cbc8c8",
"eU c #cbc9c8",
"Qt.#.#.#.#.#.#.#.#.#.#.#.a.#.#.b.c.#.#.#.#.a.a.d.e.f.g.g.g.g.bQt",
".h.i.j.k.l.m.n.o.p.q.r.s.t.u.v.w.x.y.z.A.B.C.D.E.F.G.H.I.I.J.K.L",
".M.N.O.P.Q.R.S.T.U.V.W.X.Y.Z.0.1.2.3.4.5.6.7.8.9#.###a#b#c#d#e.g",
".M#f#g#h#i#j#k#l#m#n#o#p#q#r#s#t#u#v#k#w#x#y#z#A#B#C#D#E#F#c#G.b",
".M#H#I#J#K#L#M#N#O#P#Q#R#S#T#U#V#W#X#Y#Z#0#1#2#3#4#5#6#7#8#9#G.b",
".Ma.a#aaabacadaeafagahaiajakalamanaoapaqarasatauavawaxayazaA.H.b",
"aBaCaDaEaFaGaHaIaJaKaLaMaNaOaPaQaRaSaTaKaMaUaVaWaXaYaZa0a1a2.H.g",
"a3a4a5a6a7a8aaa9b.b#aebaaqahbbbcbdbebfbgbhbibjbkblbmbnbobp#abq.g",
"a3brbsbtbubvbwbxaTbyapaebzbAbBbCbDbEa6bFbGbHbIbJbKbLbMbNbObPbQ.g",
"a3bRbSbTbUbVbWbXbYbZb0b1adb2b3b4b5b6b7b8b9bhc.c#cacbcccdcecfcg.g",
"chcicjckclcmcncocpaEcqcrcsctcucvb5cwcxcpcyczcAcBcCcDcEcFcGcHcI.f",
"cJcKcLcMcNcOcPcQcRcScTcUcVcWcXcYb5cZc0btc1c2c3c4c5c6c7c8cdc9d..f",
"cJd#dadbdcdddedfdgdhdicpbwdjdkdldmdndbdodpdqdrdsdtdudvdwdxdydz.e",
"a3dAdBdCdDdEdFdGdHdIdJdKdLdMdNdOdPdQdRcwcQdSdTdUdVdWdXdYdZd0d1.e",
"a3d2d3d4d5d6d7d8d9e.e#ddeaebecedeeefegeheiejeka9elemeneoepeqeres",
"eteuevewexexeyezeAeBeCeDeEeFeGeHeIeAeyexeCeJeKeLeMeNeOePeQeReS.b",
".beTeUeVeUeUeUeUeVeWeWeXeYeYeZe0e1eUeUeUeTe2e3e4.fe5e6e7e8e9e1.b",
"etf.f#fafbfcfdfefffgfhfifjfkflfmfnfofpfqfrfsftfufvfwfxfyfzfAfB.b",
".hfCfDfEfFfGfHfIfJfKfLa2fMfNfO.bfPfQfRfSfTfUfV#ZfWfXfYfZf0f1f2.L",
".hf3f4f5f6f7f8f9g.g#gagbgcgdge.bgfggc2ghaKbaaq#laiajgigjgkdXglgm",
".Mgngogpgqgrgsgtgugvgw#D#Egegx.bgygzgAgBdraeafgCgDgEgFgGgHgIgJgm",
"gKgLgMgNgOgPgQc7gRgSgTgUgVgWgXgYgZg0g1cVg2aIadaKba#Og3aiajg4g5gm",
"g6g7g8g9h.arh#hahbhchdhehfhghhgYhihjhkcUhlg2b.draebahmhnho.Uhp.L",
"hqhrhsgzczhtbIdXhuhvhwhxhyhza2eshAhBhCcpcTcUcVcrcshD#YbahEhFhG.L",
"a3hHhIhJcsbahKhLhMhNhOhPhQhRhSeshThUhVcRcScTcUaahWgBhXaebahYhZet",
"a3h0h1h2h3h4gDcBh5h6h7hwh8h9i.esi#iaibicbta6cTbwcqidbyapaeieifet",
"a3igihiia8gBijik#oiliminioipiqirisdFdcdHdocQcRcScpbwitiuiviwix.h",
"a3iyiziAbeaaiBagfWiCiDiEiFiG#CgYiHdbiIc0iJdHiccRbVcpbwcqiKiLiM.h",
"a3iNiOiPbEcTiKaeaMiQiRiSiTiUiViWiXdQdRdbdFcwiYcxbtbViZi0cUi1i2.h",
"a3i3i4i5i6i7i8apbhaii9j.j#jajbjcjdjejfjgjgjhjijjdfjkjljmbvjnjoe1",
"jpjqjrjsjtjujvjwdTjxjyjzjAjBbMjCjDjEjFjGjHjIjEjJjKjLjMjNjOjPjQjR",
".ajSjTjUjVjWjXjYjZj0j1j2j3j4j5j6j7j8j9k.k#k#k.k.kakbkcjWkdkekf.a"};
