/* XPM */
static char * out_projection_xpm[] = {
"20 20 7 1",
" 	s bg	c #0000FFFF0000",
".	s c1	c #000000000000",
"X	s c2	c #FFFFFFFFFFFF",
"o	s c3	c #3F3F3F3F3F3F",
"O	s c4	c #333333333333",
"+	s c5	c #222222222222",
"@	s c6	c #000088880000",
"  ...               ",
"  .XX...            ",
"  .XXX...o          ",
"  .XXX...Xoo        ",
"  .XXX...XX.  .O....",
"  ...X...XX.  o+.@@@",
"  .......XX. .oo.@@.",
"  ....X..XX.o+..@@@.",
"  ....XXX....@@@o@. ",
"  ....XXX...@..Oo.  ",
". .X..XXX....  oo   ",
"...oX...X...        ",
".@@.........        ",
" .@@@...XX..        ",
" .@.....XXX.        ",
" .@.....XXX.        ",
" .@.  ..XXX.        ",
" .@.    .XX.        ",
" .@.     ...        ",
" ..       .         "};
