/* XPM */
static char * render_dl_incandescence_xpm[] = {
"64 64 104 2",
"  	c None",
". 	c #BEBEBE",
"+ 	c #5F5F5F",
"@ 	c #9C9C9C",
"# 	c #8E8E8E",
"$ 	c #ADADAD",
"% 	c #B5B5B5",
"& 	c #7C7C7C",
"* 	c #4E4E4E",
"= 	c #383838",
"- 	c #343434",
"; 	c #444444",
"> 	c #6B6B6B",
", 	c #ABABAB",
"' 	c #000000",
") 	c #7B7B7B",
"! 	c #404040",
"~ 	c #BCBCBC",
"{ 	c #676767",
"] 	c #0D0D0D",
"^ 	c #040404",
"/ 	c #5A5A5A",
"( 	c #BBBBBB",
"_ 	c #848484",
": 	c #B7B7B7",
"< 	c #363636",
"[ 	c #020202",
"} 	c #414141",
"| 	c #7E7E7E",
"1 	c #999999",
"2 	c #9A9A9A",
"3 	c #323232",
"4 	c #3A3A3A",
"5 	c #141414",
"6 	c #B3B3B3",
"7 	c #454545",
"8 	c #0E0E0E",
"9 	c #909090",
"0 	c #616161",
"a 	c #626262",
"b 	c #090909",
"c 	c #4C4C4C",
"d 	c #8A8A8A",
"e 	c #010101",
"f 	c #B2B2B2",
"g 	c #1C1C1C",
"h 	c #565656",
"i 	c #8F8F8F",
"j 	c #333333",
"k 	c #3C3C3C",
"l 	c #929292",
"m 	c #B6B6B6",
"n 	c #1A1A1A",
"o 	c #B8B8B8",
"p 	c #B1B1B1",
"q 	c #808080",
"r 	c #BDBDBD",
"s 	c #ACACAC",
"t 	c #8C8C8C",
"u 	c #585858",
"v 	c #878787",
"w 	c #AEAEAE",
"x 	c #494949",
"y 	c #030303",
"z 	c #6D6D6D",
"A 	c #121212",
"B 	c #242424",
"C 	c #646464",
"D 	c #181818",
"E 	c #3D3D3D",
"F 	c #060606",
"G 	c #A1A1A1",
"H 	c #737373",
"I 	c #0A0A0A",
"J 	c #0C0C0C",
"K 	c #2E2E2E",
"L 	c #BABABA",
"M 	c #747474",
"N 	c #707070",
"O 	c #7F7F7F",
"P 	c #1D1D1D",
"Q 	c #292929",
"R 	c #757575",
"S 	c #666666",
"T 	c #3B3B3B",
"U 	c #989898",
"V 	c #A4A4A4",
"W 	c #070707",
"X 	c #353535",
"Y 	c #080808",
"Z 	c #686868",
"` 	c #3F3F3F",
" .	c #0F0F0F",
"..	c #525252",
"+.	c #272727",
"@.	c #252525",
"#.	c #969696",
"$.	c #717171",
"%.	c #232323",
"&.	c #3E3E3E",
"*.	c #4A4A4A",
"=.	c #A6A6A6",
"-.	c #464646",
";.	c #6E6E6E",
". . . . . . . . . . . . . . . . . . . . . . . . . . . . . . . . . . . . . . . . . . . . . . . . . . . . . . . . . . . . . . . . ",
". . . . . . . . . . . . . . . . . . . . . . . . . . . . . . . . . . . . . . . . . . . . . . . . . . . . . . . . . . . . . . . . ",
". . . . . . . . . . . . . . . . . . . . . . . . . . . . . . . . . . . . . . . . . . . . . . . . . . . . . . . . . . . . . . . . ",
". . . . . . . . . . . . . . . . . . . . . . . . . . . . . . . . . . . . . . . . . . . . . . . . . . . . . . . . . . . . . . . . ",
". . . . . . . . . . . . . . . . . . . . . . . . . . . . . . . . . . . . . . . . . . . . . . . . . . . . . . . . . . . . . . . . ",
". . . . . . . . . . . . . . . . . . . . . . . . . . . . . . . . . . . . . . . . . . . . . . . . . . . . . . . . . . . . . . . . ",
". . . . . . . . . . . . . . . . . . . . . . . . . . . . . . . . . . . . . . . . . . . . . . . . . . . . . . . . . . . . . . . . ",
". . . . . . . . . . . . . . . . . . . . . . . . . . . . . . . . . . . . . . . . . . . . . . . . . . . . . . . . . . . . . . . . ",
". . . . . . . . . . . . . . . . . . . . . . . . . . . . . . . . . . . . . . . . . . . . . . . . . . . . . . . . . . . . . . . . ",
". . . . . . . . . . . . . . . . . . . . . . . . . . . . . . . . . . . . . . . . . . . . . . . . . . . . . . . . . . . . . . . . ",
". . . . . . . . . . . . . . . . . . . . . . . . . . . . . . . . . . . . . . . . . . . . . . . . . . . . . . . . . . . . . . . . ",
". . . . . . . . . . . . . . . . . . . . . . . . . . . . . . . . . . . . . . . . . . . . . . . . . . . . . . . . . . . . . . . . ",
". . . . . . . . . . . . . . . . . . . . . . . . . . . . . . . . . . . . . . . . . . . . . . . . . . . . . . . . . . . . . . . . ",
". . . . . . . . . . . . . . . . . . . . . . . . . . . . . . . . . . . . . . . . . . . . . . . . . . . . . . . . . . . . . . . . ",
". . . . . . . . . . . . . . . . . . . . . . . . . . . . . . . . . . . . . . . . . . . . . . . . . . . . . . . . . . . . . . . . ",
". . . . . . . . . . . . . . . . . . . . . . . . . . . . . . . . . . . . . . . . . . . . . . . . . . . . . . . . . . . . . . . . ",
". . . . . . . . . . . . . . . . . . . . . . . . . . . . . . . . . . . . . . . . . . . . . . . . . . . . . . . . . . . . . . . . ",
". . . . . . . . . . . . . . . . . . . . . . . . . . . . . . . . . . . . . . . . . . . . . . . . . . . . . . . . . . . . . . . . ",
". . . . . . . . . . . . . . . . . . . . . . . . . . . . . . . . . . . . . . . . . . . . . . . . . . . . . . . . . . . . . . . . ",
". . . . . . . . . . . . . . . . . . . . . . . . . . . . . . . . . . . . . . . . . . . . . . . . . . . . . . . . . . . . . . . . ",
". . . . . . . . . . . . . . . . . . . . . . . . . . . . . . . . . . . . . . . . . . . . . . . . . . . . . . . . . . . . . . . . ",
". . . . . . . . . . . . . . . . . . . . . . . . . . . . . . . . . . . . . . . . . . . . . . . . . . . . . . . . . . . . . . . . ",
". . . . . . . . . . . . . + + @ . . . # + + $ . . . . . . . . @ + + . . . . . . . . % & * = - ; > , . . . . . . . . . . . . . . ",
". . . . . . . . . . . . . ' ' ) . . . + ' ' ! . . . . . . . . ) ' ' . . . . . . ~ { ] ' ' ' ' ' ' ^ / ( . . . . . . . . . . . . ",
". . . . . . . . . . . . . ' ' ) . . . + ' ' ' _ . . . . . . . ) ' ' . . . . . : < ' [ } | 1 2 & 3 ' ' 4 ~ . . . . . . . . . . . ",
". . . . . . . . . . . . . ' ' ) . . . + ' ' ' 5 6 . . . . . . ) ' ' . . . . . 7 ' 8 9 . . . . . . 0 ' ' a . . . . . . . . . . . ",
". . . . . . . . . . . . . ' ' ) . . . + ' b [ ' c . . . . . . ) ' ' . . . . d ' e # . . . . . . . . - ' b f . . . . . . . . . . ",
". . . . . . . . . . . . . ' ' ) . . . + ' g h ' e i . . . . . ) ' ' . . . . j ' k . . . . . . . . . 9 ' g l . . . . . . . . . . ",
". . . . . . . . . . . . . ' ' ) . . . + ' g m n ' g o . . . . ) ' ' . . . p [ ' q . . . . . . . . . r s . . . . . . . . . . . . ",
". . . . . . . . . . . . . ' ' ) . . . + ' g . t ' ' u . . . . ) ' ' . . . v ' ' w . . . . . . . . . . . . . . . . . . . . . . . ",
". . . . . . . . . . . . . ' ' ) . . . + ' g . . x ' y 1 . . . ) ' ' . . . z ' ] . . . . . . . . . . . . . . . . . . . . . . . . ",
". . . . . . . . . . . . . ' ' ) . . . + ' g . . f A ' B ( . . ) ' ' . . . a ' n . . . . . . . . . . . . . . . . . . . . . . . . ",
". . . . . . . . . . . . . ' ' ) . . . + ' g . . . q ' ' C . . ) ' ' . . . C ' D . . . . . . . . . . . . . . . . . . . . . . . . ",
". . . . . . . . . . . . . ' ' ) . . . + ' g . . . . E ' F G . ) ' ' . . . H ' I . . . . . . . . . . . . . . . . . . . . . . . . ",
". . . . . . . . . . . . . ' ' ) . . . + ' g . . . . s J ' K r ) ' ' . . . 9 ' ' s . . . . . . . . . . L . . . . . . . . . . . . ",
". . . . . . . . . . . . . ' ' ) . . . + ' g . . . . . M ' ' N ) ' ' . . . : F ' O . . . . . . . . . . P Q R . . . . . . . . . . ",
". . . . . . . . . . . . . ' ' ) . . . + ' g . . . . . . 3 ' I S ' ' . . . . k ' T . . . . . . . . . U ' ' S . . . . . . . . . . ",
". . . . . . . . . . . . . ' ' ) . . . + ' g . . . . . . V W ' I ' ' . . . . # ' e i . . . . . . . . X ' Y w . . . . . . . . . . ",
". . . . . . . . . . . . . ' ' ) . . . + ' g . . . . . . . Z ' ' ' ' . . . . . ` '  .l . . . . . ~ ..' ' a . . . . . . . . . . . ",
". . . . . . . . . . . . . ' ' ) . . . + ' g . . . . . . . ~ +.' ' ' . . . . . 6 @.' [ } q @ #.$.%.' ' &.~ . . . . . . . . . . . ",
". . . . . . . . . . . . . ' ' ) . . . + ' g . . . . . . . . @ ^ ' ' . . . . . . % *.[ ' ' ' ' ' ' F + ( . . . . . . . . . . . . ",
". . . . . . . . . . . . . + + @ . . . # + z . . . . . . . . . | + + . . . . . . . . =.> -.< - 7 ;.w . . . . . . . . . . . . . . ",
". . . . . . . . . . . . . . . . . . . . . . . . . . . . . . . . . . . . . . . . . . . . . . . . . . . . . . . . . . . . . . . . ",
". . . . . . . . . . . . . . . . . . . . . . . . . . . . . . . . . . . . . . . . . . . . . . . . . . . . . . . . . . . . . . . . ",
". . . . . . . . . . . . . . . . . . . . . . . . . . . . . . . . . . . . . . . . . . . . . . . . . . . . . . . . . . . . . . . . ",
". . . . . . . . . . . . . . . . . . . . . . . . . . . . . . . . . . . . . . . . . . . . . . . . . . . . . . . . . . . . . . . . ",
". . . . . . . . . . . . . . . . . . . . . . . . . . . . . . . . . . . . . . . . . . . . . . . . . . . . . . . . . . . . . . . . ",
". . . . . . . . . . . . . . . . . . . . . . . . . . . . . . . . . . . . . . . . . . . . . . . . . . . . . . . . . . . . . . . . ",
". . . . . . . . . . . . . . . . . . . . . . . . . . . . . . . . . . . . . . . . . . . . . . . . . . . . . . . . . . . . . . . . ",
". . . . . . . . . . . . . . . . . . . . . . . . . . . . . . . . . . . . . . . . . . . . . . . . . . . . . . . . . . . . . . . . ",
". . . . . . . . . . . . . . . . . . . . . . . . . . . . . . . . . . . . . . . . . . . . . . . . . . . . . . . . . . . . . . . . ",
". . . . . . . . . . . . . . . . . . . . . . . . . . . . . . . . . . . . . . . . . . . . . . . . . . . . . . . . . . . . . . . . ",
". . . . . . . . . . . . . . . . . . . . . . . . . . . . . . . . . . . . . . . . . . . . . . . . . . . . . . . . . . . . . . . . ",
". . . . . . . . . . . . . . . . . . . . . . . . . . . . . . . . . . . . . . . . . . . . . . . . . . . . . . . . . . . . . . . . ",
". . . . . . . . . . . . . . . . . . . . . . . . . . . . . . . . . . . . . . . . . . . . . . . . . . . . . . . . . . . . . . . . ",
". . . . . . . . . . . . . . . . . . . . . . . . . . . . . . . . . . . . . . . . . . . . . . . . . . . . . . . . . . . . . . . . ",
". . . . . . . . . . . . . . . . . . . . . . . . . . . . . . . . . . . . . . . . . . . . . . . . . . . . . . . . . . . . . . . . ",
". . . . . . . . . . . . . . . . . . . . . . . . . . . . . . . . . . . . . . . . . . . . . . . . . . . . . . . . . . . . . . . . ",
". . . . . . . . . . . . . . . . . . . . . . . . . . . . . . . . . . . . . . . . . . . . . . . . . . . . . . . . . . . . . . . . ",
". . . . . . . . . . . . . . . . . . . . . . . . . . . . . . . . . . . . . . . . . . . . . . . . . . . . . . . . . . . . . . . . ",
". . . . . . . . . . . . . . . . . . . . . . . . . . . . . . . . . . . . . . . . . . . . . . . . . . . . . . . . . . . . . . . . ",
". . . . . . . . . . . . . . . . . . . . . . . . . . . . . . . . . . . . . . . . . . . . . . . . . . . . . . . . . . . . . . . . ",
". . . . . . . . . . . . . . . . . . . . . . . . . . . . . . . . . . . . . . . . . . . . . . . . . . . . . . . . . . . . . . . . ",
". . . . . . . . . . . . . . . . . . . . . . . . . . . . . . . . . . . . . . . . . . . . . . . . . . . . . . . . . . . . . . . . "};
