/* XPM */
static char * render_dl_diffuse_xpm[] = {
"64 64 64 1",
" 	c None",
".	c #BEBEBE",
"+	c #000000",
"@	c #050505",
"#	c #121212",
"$	c #2E2E2E",
"%	c #646464",
"&	c #AFAFAF",
"*	c #5F5F5F",
"=	c #0A0A0A",
"-	c #696969",
";	c #0D0D0D",
">	c #868686",
",	c #7A7A7A",
"'	c #BDBDBD",
")	c #B6B6B6",
"!	c #A4A4A4",
"~	c #767676",
"{	c #1A1A1A",
"]	c #040404",
"^	c #8C8C8C",
"/	c #1C1C1C",
"(	c #B3B3B3",
"_	c #282828",
":	c #131313",
"<	c #B4B4B4",
"[	c #A7A7A7",
"}	c #080808",
"|	c #686868",
"1	c #4D4D4D",
"2	c #242424",
"3	c #B1B1B1",
"4	c #929292",
"5	c #B7B7B7",
"6	c #828282",
"7	c #0E0E0E",
"8	c #3D3D3D",
"9	c #BCBCBC",
"0	c #7C7C7C",
"a	c #4E4E4E",
"b	c #AEAEAE",
"c	c #838383",
"d	c #A2A2A2",
"e	c #969696",
"f	c #7E7E7E",
"g	c #020202",
"h	c #444444",
"i	c #2C2C2C",
"j	c #A6A6A6",
"k	c #717171",
"l	c #B2B2B2",
"m	c #2A2A2A",
"n	c #181818",
"o	c #B8B8B8",
"p	c #A0A0A0",
"q	c #6C6C6C",
"r	c #171717",
"s	c #060606",
"t	c #959595",
"u	c #909090",
"v	c #070707",
"w	c #161616",
"x	c #383838",
"y	c #707070",
"................................................................",
"................................................................",
"................................................................",
"................................................................",
"................................................................",
"................................................................",
"................................................................",
"................................................................",
"................................................................",
"................................................................",
"................................................................",
"................................................................",
"................................................................",
"................................................................",
"................................................................",
"................................................................",
"................................................................",
"................................................................",
"................................................................",
"................................................................",
"................................................................",
"................................................................",
"................................................................",
".........+++++++@#$%&......*+++++++++++=...++++++++++++-........",
".........+++++++++++;>.....*+++++++++++=...++++++++++++-........",
".........++,...')!~{+]^....*+/.............++,..................",
".........++,.......(_+:<...*+/.............++,..................",
".........++,........[}+|...*+/.............++,..................",
".........++,.........1+2...*+/.............++,..................",
".........++,.........>++3..*+/.............++,..................",
".........++,.........[++4..*+/.............++,..................",
".........++,.........5++6..*+7********>....++8********).........",
".........++,.........9++0..*++++++++++a....+++++++++++b.........",
".........++,.........)++c..*+7********>....++8********).........",
".........++,.........d++e..*+/.............++,..................",
".........++,.........f+g<..*+/.............++,..................",
".........++,.........h+i...*+/.............++,..................",
".........++,........j@+k...*+/.............++,..................",
".........++,.......lm+no...*+/.............++,..................",
".........++,...')pqr+st....*+/.............++,..................",
".........+++++++++++#u.....*+/.............++,..................",
".........+++++++vwxy)......*+/.............++,..................",
"................................................................",
"................................................................",
"................................................................",
"................................................................",
"................................................................",
"................................................................",
"................................................................",
"................................................................",
"................................................................",
"................................................................",
"................................................................",
"................................................................",
"................................................................",
"................................................................",
"................................................................",
"................................................................",
"................................................................",
"................................................................",
"................................................................",
"................................................................",
"................................................................",
"................................................................"};
