/* XPM */
static char *lightInfo[] = {
/* width height num_colors chars_per_pixel */
"    32    32      256            2",
/* colors */
"`` c #0c0a24",
"`. c #8c8a54",
"`# c #d4ca04",
"`a c #a4a654",
"`b c #c4c69c",
"`c c #a4a69c",
"`d c #ece68c",
"`e c #b4b694",
"`f c #84869c",
"`g c #c4c6bc",
"`h c #645e5c",
"`i c #d4d24c",
"`j c #b4b664",
"`k c #949694",
"`l c #e4d644",
"`m c #b4b6b4",
"`n c #747654",
"`o c #acaab4",
"`p c #d4d6d4",
"`q c #d4d284",
"`r c #e4e6e4",
"`s c #ccce64",
"`t c #7c7e54",
"`u c #9c9e94",
"`v c #bcbebc",
"`w c #b4b66c",
"`x c #9c9e4c",
"`y c #a4a664",
"`z c #c4c6ac",
"`A c #cccec4",
"`B c #747274",
"`C c #2c2a2c",
"`D c #b4b294",
"`E c #949284",
"`F c #f4f6f4",
"`G c #e4de64",
"`H c #b4b2b4",
"`I c #dcda64",
"`J c #84866c",
"`K c #ccce94",
"`L c #bcbe8c",
"`M c #9496a4",
"`N c #dcdedc",
"`O c #bcbec4",
"`P c #bcbe6c",
"`Q c #b4b264",
"`R c #7c7a74",
"`S c #443e3c",
"`T c #f4eeac",
"`U c #dcde44",
"`V c #b4b6c4",
"`W c #9c9eac",
"`X c #d4d2cc",
"`Y c #dcda74",
"`Z c #dcce24",
"`0 c #acaaa4",
"`1 c #8c8a8c",
"`2 c #cccacc",
"`3 c #64665c",
"`4 c #c4c244",
"`5 c #9c9a94",
"`6 c #e4e254",
"`7 c #b4aebc",
"`8 c #dcd6d4",
".` c #d4d294",
".. c #eceeec",
".# c #acaa64",
".a c #acaeac",
".b c #8c8e94",
".c c #fcfefc",
".d c #94926c",
".e c #b4b25c",
".f c #ccca9c",
".g c #f4ea9c",
".h c #b4b6a4",
".i c #747264",
".j c #acaeb4",
".k c #d4d684",
".l c #7c7e84",
".m c #a4a2a4",
".n c #c4c2b4",
".o c #b4b67c",
".p c #949674",
".q c #cccaac",
".r c #ccced4",
".s c #7c767c",
".t c #343644",
".u c #fcfaec",
".v c #ece274",
".w c #b4b2c4",
".x c #dcde64",
".y c #84867c",
".z c #cccea4",
".A c #bcbe9c",
".B c #c4c2c4",
".C c #bcbe7c",
".D c #7c7a84",
".E c #444644",
".F c #dcda5c",
".G c #bcbac4",
".H c #e4da3c",
".I c #8c8a9c",
".J c #6c6a64",
".K c #dcdad4",
".L c #b4aeac",
".M c #949294",
".N c #242234",
".O c #8c8e54",
".P c #acaa44",
".Q c #a4a6ac",
".R c #ecea9c",
".S c #bcba8c",
".T c #c4c6c4",
".U c #d4d654",
".V c #bcba64",
".W c #94969c",
".X c #e4da54",
".Y c #bcbabc",
".Z c #d4d28c",
".0 c #eceaec",
".1 c #d4d67c",
".2 c #9c9ea4",
".3 c #a4a254",
".4 c #a4a66c",
".5 c #c4c6b4",
".6 c #cccecc",
".7 c #74767c",
".8 c #2c2e3c",
"#` c #e4e264",
"#. c #acae7c",
"## c #9c9aac",
"#a c #e4e2e4",
"#b c #a4a2b4",
"#c c #f4f2f4",
"#d c #44424c",
"#e c #f4f2bc",
"#f c #dcd234",
"#g c #848284",
"#h c #64666c",
"#i c #acaa74",
"#j c #fcfafc",
"#k c #b4b2ac",
"#l c #b4b2bc",
"#m c #848674",
"#n c #ccce9c",
"#o c #bcbe94",
"#p c #7c7a7c",
"#q c #dcde4c",
"#r c #d4d2d4",
"#s c #dcda7c",
"#t c #acaaac",
"#u c #8c8a94",
"#v c #cccad4",
"#w c #c4c24c",
"#x c #9c9a9c",
"#y c #e4e25c",
"#z c #cccaa4",
"#A c #74726c",
"#B c #acaebc",
"#C c #c4c2bc",
"#D c #b4b684",
"#E c #dcde6c",
"#F c #c4c2cc",
"#G c #bcbe84",
"#H c #bcbacc",
"#I c #dcdadc",
"#J c #94929c",
"#K c #000000",
"#L c #000000",
"#M c #000000",
"#N c #000000",
"#O c #000000",
"#P c #000000",
"#Q c #000000",
"#R c #000000",
"#S c #000000",
"#T c #000000",
"#U c #000000",
"#V c #000000",
"#W c #000000",
"#X c #000000",
"#Y c #000000",
"#Z c #000000",
"#0 c #000000",
"#1 c #000000",
"#2 c #000000",
"#3 c #000000",
"#4 c #000000",
"#5 c #000000",
"#6 c #000000",
"#7 c #000000",
"#8 c #000000",
"a` c #000000",
"a. c #000000",
"a# c #000000",
"aa c #000000",
"ab c #000000",
"ac c #000000",
"ad c #000000",
"ae c #000000",
"af c #000000",
"ag c #000000",
"ah c #000000",
"ai c #000000",
"aj c #000000",
"ak c #000000",
"al c #000000",
"am c #000000",
"an c #000000",
"ao c #000000",
"ap c #000000",
"aq c #000000",
"ar c #000000",
"as c #000000",
"at c #000000",
"au c #000000",
"av c #000000",
"aw c #000000",
"ax c #000000",
"ay c #000000",
"az c #000000",
"aA c #000000",
"aB c #000000",
"aC c #000000",
"aD c #000000",
"aE c #000000",
"aF c #000000",
"aG c #000000",
"aH c #000000",
"aI c #000000",
"aJ c #000000",
"aK c #000000",
"aL c #000000",
"aM c #000000",
"aN c #000000",
"aO c #000000",
"aP c #000000",
"aQ c #000000",
"aR c #000000",
"aS c #000000",
"aT c #000000",
"aU c #000000",
"aV c #000000",
"aW c #000000",
"aX c #000000",
"aY c #000000",
"aZ c #000000",
"a0 c #000000",
"a1 c #000000",
"a2 c #000000",
"a3 c #000000",
"a4 c #000000",
"a5 c #000000",
"a6 c #000000",
"a7 c #000000",
"a8 c #000000",
/* pixels */
".B.B`v.B.B`v.B.B`v.B.B`v.B.B`v.B.B`v.B.B`v.B.B`v.B.B`v.B.B`v.B.B",
"`v.B.B`v.B.B`v.B.B`v.B.B`v.B.B`v.B.B`v.B.B`v.B.B`v.B.B`v.B.B`v.B",
".B`v.B.B`v.B.B`v.B.B`v.5.j`m.Y`v.B`m`m.j.5#C`O#C.B`v.B.B`v.B.B`v",
".B`v.T`v.T`v#C`g#C.5.h`H`2`N.0......`N`2.j.A`z`g.5#C`v.T.B`v.B.B",
".B`v.B.B#C.B`g.5`z`e#l`p..#j.c.c.c.c#j.0`X.j`D`z.5.5`g`v.B.B`v.B",
".B.B`v.B`v.5`z.q#o`o#r...c.c.c.c.c.c.c.c`r`2.Q#o#z`z.5#C#C`O`g`O",
"`v.B`v`g.5.5.q`b`c.B#a.u.c.u.g.H.H.H`d.c#c`p.G`c.f#z.q`g#C.B`v.B",
".B.B#C`g.5#z#z.S.j.6.0#j.c.H`#`Z.H`#`#`d.u#I.B#t`L#z`z`z.5#C.B`O",
"`v.B`g.5`z#z#n#D.j#r...c`d`#.H.u.c`G`#.H#j#a.B.Q#D#n#n.q.5#C`v.T",
".B`v`g`z#z#n#n#.`o#r...c#e`G#e.c.c.v`#.H#j`N.B.Q#..`.f#z`z.5.B.B",
".B.B.5.q#z`K.Z#i.m.r.0#j.c.c.c.c.g`#`#`d#c#I`v`W.#.``K#n.q.5.B`v",
"`v.B.5`b.z.`.Z.4##.T`r`F.c.c.c`T`#`#`d.u.0#r`m#J.4.Z.Z#n#z`z.B.B",
".B`v.q.q`K.Z.k`y#J.Y#I...c.c.c.X`#`d.u#c#a`2.a#J.#.k`q`K#z`z.B`v",
".B.B`z#z`K.Z.1`Q`1.j.6`r#j#j.c`l`##j#j.0`X`m.m`1.##s.k.`#z.q`v.B",
"`O#C`z.z.`.k#s`s`J.W`v#I..#j#j`F.u#c#a#r`O#t.b#m`s`Y.k`K#n.q.B`v",
".B`O.q#n`K`q`Y#E.3#p#t`2.0#c`F.X.X.0#I.T.a`k.s.3.x`Y.k.Z.f`z#C.B",
"#C.B`z#n.``q.1.x.U`t#u`m`N..#j.X.X`r.r`H#x.l`n.U`G`Y.k.`#n.q`O#C",
"`O#C`z#z`K.k#s#E#y#w.J.2.6.0#c#c..#a.T.m`1.J`4#y.x`Y.k`K#n`z#C`O",
".B.B`z.z`K.Z#s`I.x`6.P.7.B`r`F`F#c#a`v#x`B.P#q#y#E.1.k.`.f.q`O.B",
"`v.B`z#z#n.Z.k`Y.x#y#q`..m#a`F#j#c`r`v.I`.`U#y.x#E.1.Z`K#z`z.B#C",
".B`v.5.q#z.``q.1#E#y.x`4.b#I`F#j#j.0`O#g`4`6.x#E`Y.k.`#n`z.5#C`O",
".B.B.5`z#z`K.Z.k`Y#E#y.U.p#v#j.c.c#c`O.d`i.x#``Y.1.Z`K#z.q.5.B.B",
".B`v#C.5.q#n`K.k.1`Y`I`I`y#H#j.c.c#j`V`y`I#E`Y.1.k.`#n#z.5.n`O#C",
".B.B#C.5`z#z#n.`.Z.1.1`Y`j.w.c.c.c#c`o`j.1`I.k.k.`#n#z`z.5#C.B`O",
"`v.B`O`g.5.q#z.f`K.k.k.k.C#B`8`X`A`0.7.V.k.k.k.Z`K#z`b.q#C`v.B#C",
".B`v.B#C#C.n`z#z#n.`.Z.`.V`M#k`u`5`R.t`a.Z.Z.`.f#z.q.5#C.B.B`v.B",
".B#C`O.B`v`g.5.q#z#z`K#z.e`f`N`g`v#g.8`x.f#n.f#z`z`z`g#C`O`g.B`O",
"`O#C.B`v.T#C#C.5`z.q`b.5`P`f`g.K.L`3``.3.q#z`z`z.5`g#C.B`v.B`v.T",
".B`v.T.B`v.B`v#C.5.5.q.5.f`E.J#A`h`C.N#G.n`z.q.5`g#C`O#C.B`O.T#C",
".B`O#C`O.B#C.B`v#C#C`g.5.5.5.p#d`S.E`e`z.5.5#C#C.B#C.B`O#C.B`v.B",
"#C`O.T#C`O.B`v.T.B`O#C.B#C.B#C`O`O#C`O.B.B`O.B`v.B`O#C`O.B`v.B`O",
".B#C`O.B#C`O.T#C`O#C.B`O#C`O.B#C`O.T#C`O#C#C`O.B`v.B.B`v.T.B#C.B"
};
