/* XPM */
static char * render_dl_attributeFloat_xpm[] = {
"32 32 37 1",
" 	c None",
".	c #6E6E6E",
"+	c #5A5A5A",
"@	c #000000",
"#	c #4C4C4C",
"$	c #525252",
"%	c #6D6D6D",
"&	c #3D3D3D",
"*	c #686868",
"=	c #646464",
"-	c #5B5B5B",
";	c #474747",
">	c #666666",
",	c #545454",
"'	c #2D2D2D",
")	c #404040",
"!	c #4D4D4D",
"~	c #6B6B6B",
"{	c #5C5C5C",
"]	c #606060",
"^	c #696969",
"/	c #535353",
"(	c #4A4A4A",
"_	c #353535",
":	c #4E4E4E",
"<	c #575757",
"[	c #5F5F5F",
"}	c #676767",
"|	c #656565",
"1	c #595959",
"2	c #555555",
"3	c #6C6C6C",
"4	c #434343",
"5	c #636363",
"6	c #616161",
"7	c #505050",
"8	c #6A6A6A",
"................................",
"................................",
"................................",
"................................",
"................................",
"................................",
"................................",
"................................",
"................................",
"........+@@#......@@@@@@@@@$....",
".......%&@@@*.....@@@@@@@@@$....",
".......=@@@@-.....@@;>>>>>>*....",
".......,@')@&%....@@!...........",
"......~'@,{@@=....@@!...........",
"......]@@=^@@/....@@!...........",
"......(@_%.(@@~...@@@@@@@@:.....",
".....*@@<..]@@[...@@@@@@@@:.....",
".....{@@>..~@@;...@@;>>>>>*.....",
"....%)@@@@@@@@@}..@@!...........",
"....|@@@@@@@@@@1..@@!...........",
"....2@@{[[[[[_@_%.@@!...........",
"...3'@4......<@@5.@@!...........",
"...6@@{......>@@7.@@!...........",
"...!@@*......%&@@8@@!...........",
"................................",
"................................",
"................................",
"................................",
"................................",
"................................",
"................................",
"................................"};
