/* XPM */
static char * render_dl_layer_xpm[] = {
"32 32 73 1",
" 	c None",
".	c #BEBEBE",
"+	c #AC9796",
"@	c #AC7E80",
"#	c #A3393E",
"$	c #A83639",
"%	c #F5454D",
"&	c #F4424A",
"*	c #FF5559",
"=	c #FF6B72",
"-	c #FF535B",
";	c #AC7C7E",
">	c #9D191C",
",	c #EF2B39",
"'	c #FF4B53",
")	c #ED4753",
"!	c #FF5159",
"~	c #878D85",
"{	c #767F71",
"]	c #7D4A49",
"^	c #854545",
"/	c #D9575A",
"(	c #FF5155",
"_	c #8CA280",
":	c #7EAF63",
"<	c #55BB23",
"[	c #54BE20",
"}	c #6AC638",
"|	c #6EA54D",
"1	c #8B4B4B",
"2	c #924846",
"3	c #DB595C",
"4	c #7CB060",
"5	c #55BE22",
"6	c #6BE22A",
"7	c #71EC26",
"8	c #77ED2F",
"9	c #75CF3F",
"0	c #73A94F",
"a	c #4EAF19",
"b	c #5EE713",
"c	c #69EA22",
"d	c #DB5B5E",
"e	c #64DE28",
"f	c #B1A3B1",
"g	c #9B83A1",
"h	c #25931D",
"i	c #299B1D",
"j	c #3FD327",
"k	c #77D03C",
"l	c #ABADC3",
"m	c #8E92C6",
"n	c #2E3ED2",
"o	c #2C3CD4",
"p	c #5B8DE9",
"q	c #5794D3",
"r	c #31A228",
"s	c #35A826",
"t	c #40D428",
"u	c #8D91C5",
"v	c #2E3ED4",
"w	c #5E7CFE",
"x	c #646FFE",
"y	c #767FFE",
"z	c #698AF3",
"A	c #619ED7",
"B	c #0312D5",
"C	c #3F5FFF",
"D	c #5863FE",
"E	c #6CEC26",
"F	c #40D628",
"G	c #6989F1",
"H	c #617AFD",
"................................",
"...............++...............",
".............+@##@+.............",
"...........+@#$%%$#@+...........",
".........+@#$&*==*&$#@+.........",
".......+@#$&-======-&$#@+.......",
".....+@#$&-==========-&$#@+.....",
"...+@#$&-==============-&$#@+...",
".+@#$&-==================-&$#@+.",
";#$&-======================-&$#;",
">,'==========================',>",
";#$&-======================-&$#;",
".+@#$)!==================!)$#@+.",
"...~{]^/(==============(/^]{~...",
"._:<[}|123(==========(321|}[<:_.",
"4<5678890123(======(3210988765<4",
"abc88888890123(==(32109888888cba",
"4<5678888889012dd2109888888765<4",
"._:<[e78888889011098888887e[<:_.",
"...fghij7888888kk8888887jihgf...",
".lmnopqrst788888888887tsrqponml.",
"unvwxyyzArst78888887tsrAzyyxwvnu",
"BCDyyyyyyzArstE88EtsrAzyyyyyyDCB",
"unvwxyyyyyyzArsFFsrAzyyyyyyxwvnu",
".lmnowxyyyyyyzArrAzyyyyyyxwonml.",
"...lmnowxyyyyyyGGyyyyyyxwonml...",
".....lmnowxyyyyyyyyyyxwonml.....",
".......lmnowxyyyyyyxwonml.......",
".........lmnowxyyxwonml.........",
"...........lmnoHHonml...........",
".............lmnnml.............",
"...............ll..............."};
