/* XPM */
static char * polyAutoProj_xpm[] = {
"32 32 145 2",
"  	c #C1C1C1C1C1C1",
". 	c #9F9F9F9F9F9F",
"X 	c #5C5C5C5C5C5C",
"o 	c #484848484848",
"O 	c #181818181818",
"+ 	c #000000000000",
"@ 	c #B4B4B4B4B4B4",
"# 	c #787878787878",
"$ 	c #848484848484",
"% 	c #5F5F5F5F5F5F",
"& 	c #CFCFCFCFCFCF",
"* 	c #A8A8A8A8A8A8",
"= 	c #4D4D4D4D4D4D",
"- 	c #0F0F0F0F0F0F",
"; 	c #131313131313",
": 	c #3A3A3A3A3A3A",
"? 	c #1C1C1C1C1C1C",
"> 	c #4F4F4F4F4F4F",
", 	c #DFDFDFDFDFDF",
"< 	c #FFFFFFFFFFFF",
"1 	c #656565656565",
"2 	c #2D2D2D2D2D2D",
"3 	c #0E0E0E0E0E0E",
"4 	c #272727272727",
"5 	c #121212121212",
"6 	c #8F8F8F8F8F8F",
"7 	c #EFEFEFEFEFEF",
"8 	c #A0A0A0A0A1A1",
"9 	c #F8F8F8F8F8F8",
"0 	c #E0E0E0E0E0E0",
"q 	c #7D7D7D7D7D7D",
"w 	c #B9B9B9B9B9B9",
"e 	c #8D8D8D8D8D8D",
"r 	c #838383838383",
"t 	c #424242424242",
"y 	c #DADADADADADA",
"u 	c #323232323232",
"i 	c #A2A2A2A2A2A2",
"p 	c #EBEBEBEBEBEB",
"a 	c #F5F5F5F5F5F5",
"s 	c #F0F0F0F0F0F0",
"d 	c #C4C4C4C4C4C4",
"f 	c #070707070E0E",
"g 	c #0F0F0F0F2020",
"h 	c #0D0D0D0D1C1C",
"j 	c #171717172020",
"k 	c #656565656C6C",
"l 	c #666666666D6D",
"z 	c #4B4B4B4B5555",
"x 	c #141414142020",
"c 	c #101010102222",
"v 	c #070707070F0F",
"b 	c #929292929292",
"n 	c #F6F6F6F6F6F6",
"m 	c #8B8B8B8B8B8B",
"M 	c #181852520D0D",
"N 	c #1A1A1A1A1A1A",
"B 	c #B6B6B6B6B6B6",
"V 	c #FBFBFBFBFBFB",
"C 	c #858585858585",
"Z 	c #AFAFAFAFAFAF",
"A 	c #2F2FCACA0000",
"S 	c #080808080808",
"D 	c #3D3D3D3D3D3D",
"F 	c #F2F2F2F2F2F2",
"G 	c #FEFEFEFEFEFE",
"H 	c #7E7E7E7E7E7E",
"J 	c #1F1F1F1F1F1F",
"K 	c #3030CACA0101",
"L 	c #EDEDEDEDEDED",
"P 	c #808080808080",
"I 	c #C0C0C0C0C0C0",
"U 	c #D1D1D1D1D1D1",
"Y 	c #3030CBCB0000",
"T 	c #3B3B3B3B3B3B",
"R 	c #161616161616",
"E 	c #2F2FCBCB0000",
"W 	c #282828282828",
"Q 	c #090909090909",
"! 	c #979797979797",
"~ 	c #0B0B0B0B0B0B",
"^ 	c #A5A5A5A5A5A5",
"/ 	c #040404040404",
"( 	c #0D0D0D0D0D0D",
") 	c #888888888888",
"_ 	c #585858585858",
"` 	c #292929292929",
"' 	c #1D1D1D1D1D1D",
"] 	c #0B0B0B0B0C0C",
"[ 	c #0C0C0C0C0C0C",
"{ 	c #FDFDFDFDFDFD",
"} 	c #DCDCDCDCDCDC",
"| 	c #101010101010",
" .	c #959595959595",
"..	c #EAEAEAEAEAEA",
"X.	c #FAFAFAFAFAFA",
"o.	c #2F2FC9C90000",
"O.	c #111111111111",
"+.	c #3C3C3C3C3C3C",
"@.	c #C8C8C8C8C8C8",
"#.	c #ABABABABABAB",
"$.	c #050505050505",
"%.	c #414141414141",
"&.	c #575757575757",
"*.	c #818181818181",
"=.	c #2C2C2C2C2C2C",
"-.	c #1E1E1E1E1E1E",
";.	c #2E2E2E2E2E2E",
":.	c #505050505050",
"?.	c #545454545454",
">.	c #7B7B7B7B7B7B",
",.	c #D6D6D6D6D6D6",
"<.	c #BEBEBEBEBEBE",
"1.	c #2A2A2A2A2A2A",
"2.	c #404040404040",
"3.	c #E1E1E1E1E1E1",
"4.	c #F9F9F9F9F9F9",
"5.	c #A7A7A7A7A7A7",
"6.	c #676767676767",
"7.	c #999999999999",
"8.	c #797979797979",
"9.	c #828282828282",
"0.	c #171717171717",
"q.	c #F4F4F4F4F4F4",
"w.	c #CECECECECECE",
"e.	c #6A6A6A6A6A6A",
"r.	c #383838383838",
"t.	c #5A5A5A5A5A5A",
"y.	c #909090909090",
"u.	c #F3F3F3F3F3F3",
"i.	c #646464646464",
"p.	c #747474747474",
"a.	c #454545454545",
"s.	c #070707070707",
"d.	c #707070707070",
"f.	c #060606060606",
"g.	c #666666666666",
"h.	c #989898989898",
"j.	c #464646464646",
"k.	c #F7F7F7F7F7F7",
"l.	c #949494949494",
"z.	c #969696969696",
"x.	c #353535353535",
"c.	c #BCBCBCBCBCBC",
"v.	c #0A0A0A0A0A0A",
"                                                                ",
"                                                                ",
"              . . . . X o o O + @ O o # # #                     ",
"      @ $ $ o o O + O X % . & + * + X = - ; o O : # # @         ",
"  # o O ? > o + + + + , < < , + * + < < < 1 2 2 2 3 4 5 O o #   ",
"  + 6 , 7 < . + + + + , < < 8 + * + 9 < 0 : + + + q w e r t +   ",
"  + , < < < . + + + + . < < , + * + 9 < y u + + + i p a s d +   ",
"  + , < < < . + f g h j k # # + * + # l z x c v + b n < < m +   ",
"  + . < < < , + f M M M M M M M M M M M M M M v N B V < < C +   ",
"  + . < < < Z % - M A A A A A A A A A A A A M S D . F 9 G H +   ",
"  + > % : J J 7 , M A A A A A A A A K K K A M L L P r I U r +   ",
"  + + + + + + < < M M M M M M Y Y M M M M M M < < T R 2 2 2 +   ",
"  + + + + + + < < M M M M M M E A M M M M M M < < W + + + Q +   ",
"  + + + + + + , < . 6 > < M M A A M M < < q ! L < 2 + + + ~ +   ",
"  + + + + + + 6 . J - + < M M A A M M < < o o w ^ W / + + 3 +   ",
"  + + + > J . > + + + + < M M A A M M < < + ( + o ) _ ` ' ] +   ",
"  + [ & 7 < < % + + + + < M M A A M M { < + + + + } < < < | +   ",
"  + O , < < < % + + + + % M M A A M M  .* + + + + ..< X.< O +   ",
"  + O , < < < % + + [ O * M M A o.M M * ' O.+ [ + L < < < O +   ",
"  + o . < < Z 6 [ o @   @ M M o.o.M M * @   o O +.@.7 < < o +   ",
"  + o < . #._ #     # N T M M o.o.M M $.%.H   @ # O &.@ @ O +   ",
"  + # +.o $     *.O =.+ + M M M M M M + + -.;.:.    @ o [ o     ",
"            ?.>.,.<.X 1.+ M M M M M M + + 2.Z 3.?.N # $         ",
"      $ +.X < 4.< < < 5.6.7.< < < < <.8.9.} n < < y @ [ ?.      ",
"      @ o 0.# < q.w.e.r.+ t.y.L u.w i.=.- p.^ < < @ O o @       ",
"          $ [ : X a.s.+ + + -.d.) 1.S + + + | a.( +.@           ",
"            @ # 5 + + + f.2 g.< < h.j.O.+ + J | # @             ",
"                @ o | f.>.< k.< < 9 < l.+.$.[ @                 ",
"                    $ [ ( @ L X.< 4.z.x.[ * @                   ",
"                      @ # [ 2.c.< p.0.O @                       ",
"                          @ O R v.[ @                           ",
"                              @ @ @                             "};
