/* XPM */
static char * render_dl_envLightShape_xpm[] = {
"32 32 230 2",
"  	c None",
". 	c #C4C2C4",
"+ 	c #BCC6C4",
"@ 	c #B4BABC",
"# 	c #B4B6B4",
"$ 	c #949E9C",
"% 	c #7C8684",
"& 	c #5C7274",
"* 	c #546A6C",
"= 	c #4C6664",
"- 	c #ACAEAC",
"; 	c #7C8A8C",
"> 	c #4C6264",
", 	c #345254",
"' 	c #547274",
") 	c #5C7A7C",
"! 	c #4C6A6C",
"~ 	c #3C5654",
"{ 	c #748A8C",
"] 	c #848E8C",
"^ 	c #445E5C",
"/ 	c #6C8A8C",
"( 	c #94A6A4",
"_ 	c #9CB2B4",
": 	c #8CA6A4",
"< 	c #7C9694",
"[ 	c #748E8C",
"} 	c #648284",
"| 	c #647E7C",
"1 	c #546E6C",
"2 	c #647674",
"3 	c #344E4C",
"4 	c #446264",
"5 	c #7C9A9C",
"6 	c #DCE6E4",
"7 	c #E4EAEC",
"8 	c #CCDADC",
"9 	c #A4BABC",
"0 	c #84A2A4",
"a 	c #749294",
"b 	c #4C6E6C",
"c 	c #646E6C",
"d 	c #446664",
"e 	c #547674",
"f 	c #A4B6B4",
"g 	c #E4EEEC",
"h 	c #FCFEFC",
"i 	c #ECF2F4",
"j 	c #CCD6D4",
"k 	c #849E9C",
"l 	c #3C5254",
"m 	c #5C6E6C",
"n 	c #5C7E7C",
"o 	c #ACBEBC",
"p 	c #F4FAFC",
"q 	c #F4F6F4",
"r 	c #94AAAC",
"s 	c #8CAAAC",
"t 	c #6C8E8C",
"u 	c #647E84",
"v 	c #647274",
"w 	c #2C4244",
"x 	c #9CB6B4",
"y 	c #DCE2E4",
"z 	c #C4D6D4",
"A 	c #94AEAC",
"B 	c #244244",
"C 	c #A4AAAC",
"D 	c #3C4E4C",
"E 	c #3C5E5C",
"F 	c #6C827C",
"G 	c #BCCACC",
"H 	c #D4E2E4",
"I 	c #D4DEDC",
"J 	c #648684",
"K 	c #6C7674",
"L 	c #243E3C",
"M 	c #445A5C",
"N 	c #ACC2C4",
"O 	c #B4C6C4",
"P 	c #94B2AC",
"Q 	c #94AEB4",
"R 	c #2C4644",
"S 	c #B4C2C4",
"T 	c #8C9694",
"U 	c #1C3634",
"V 	c #142E2C",
"W 	c #142E34",
"X 	c #445E64",
"Y 	c #1C3A3C",
"Z 	c #243A3C",
"` 	c #1C3234",
" .	c #A4B6BC",
"..	c #849A9C",
"+.	c #A4C2BC",
"@.	c #344A4C",
"#.	c #243E44",
"$.	c #7C969C",
"%.	c #8CA2A4",
"&.	c #C4D2D4",
"*.	c #7C8E94",
"=.	c #6C868C",
"-.	c #ACBABC",
";.	c #BCCECC",
">.	c #C4CECC",
",.	c #849694",
"'.	c #4C5E5C",
").	c #2C4A4C",
"!.	c #3C5A5C",
"~.	c #0C2624",
"{.	c #94A2A4",
"].	c #CCD2D4",
"^.	c #8C9A9C",
"/.	c #2C464C",
"(.	c #24363C",
"_.	c #2C3E3C",
":.	c #A4AEAC",
"<.	c #A4B2B4",
"[.	c #5C7674",
"}.	c #ECF6F4",
"|.	c #0C2A2C",
"1.	c #445654",
"2.	c #6C7A7C",
"3.	c #ACB2B4",
"4.	c #142A2C",
"5.	c #64767C",
"6.	c #ACB6B4",
"7.	c #344244",
"8.	c #2A3C3E",
"9.	c #2F4042",
"0.	c #345654",
"a.	c #1C2E2C",
"b.	c #8C9294",
"c.	c #44565C",
"d.	c #3A5452",
"e.	c #1F3635",
"f.	c #2E4240",
"g.	c #1A2B2C",
"h.	c #273736",
"i.	c #B0B2B0",
"j.	c #0C1E1C",
"k.	c #3F5856",
"l.	c #151C1D",
"m.	c #3D4C4A",
"n.	c #304543",
"o.	c #0E1918",
"p.	c #0F1B1E",
"q.	c #384D4E",
"r.	c #0A1D1E",
"s.	c #202325",
"t.	c #B3B2B3",
"u.	c #2C3234",
"v.	c #A4BEBC",
"w.	c #B4CECC",
"x.	c #2E4143",
"y.	c #111617",
"z.	c #8A810B",
"A.	c #E2D305",
"B.	c #DDCE05",
"C.	c #827C0A",
"D.	c #151611",
"E.	c #979997",
"F.	c #747E7C",
"G.	c #0C1A1C",
"H.	c #173133",
"I.	c #6F6B08",
"J.	c #FFEE00",
"K.	c #8A8109",
"L.	c #979F9D",
"M.	c #545E5C",
"N.	c #142624",
"O.	c #6C8684",
"P.	c #556A6F",
"Q.	c #314448",
"R.	c #081312",
"S.	c #D2C407",
"T.	c #D8CA01",
"U.	c #4E4E4E",
"V.	c #898889",
"W.	c #9C9A9C",
"X.	c #4C5254",
"Y.	c #344E54",
"Z.	c #253C3A",
"`.	c #304849",
" +	c #2F3E3F",
".+	c #D0C204",
"++	c #D8C901",
"@+	c #5D5C5D",
"#+	c #888D8F",
"$+	c #A4A2A4",
"%+	c #040E0C",
"&+	c #26393A",
"*+	c #726B05",
"=+	c #8B810B",
"-+	c #ACABAC",
";+	c #242A2C",
">+	c #040A0C",
",+	c #0C2224",
"'+	c #142224",
")+	c #0C1E24",
"!+	c #030503",
"~+	c #080908",
"{+	c #6B660A",
"]+	c #CCBF01",
"^+	c #C5B800",
"/+	c #786F09",
"(+	c #333233",
"_+	c #9F9D9F",
":+	c #242E2C",
"<+	c #040604",
"[+	c #192927",
"}+	c #202323",
"|+	c #979697",
"1+	c #ABA9AB",
"2+	c #56595A",
"3+	c #595959",
"4+	c #A8A6A8",
"5+	c #AEACAE",
"6+	c #3B3D3D",
"7+	c #ADABAD",
"8+	c #5C6664",
"9+	c #1C2624",
"0+	c #0C1614",
"a+	c #1C2A2C",
"b+	c #8C8E8C",
"c+	c #B7B5B7",
"d+	c #979597",
"e+	c #929192",
"f+	c #B6B5B6",
"g+	c #969B9D",
". . + . . + . . + . . + . . + . . + . . + . . + . . + . . + . . ",
"+ . . @ . . @ . . @ # $ % & * = = = & % $ # . . @ . . @ . . @ . ",
". @ . . . . . . - ; > , = ' ' ) ) ) ) ! ~ > { - . . . . . . . . ",
". . . . @ . . ] > ^ * / ( _ : < [ / } | ' 1 ^ > ] . @ . . @ . . ",
". + . . . # 2 3 4 4 5 + 6 7 8 9 0 < a / } | b 4 3 2 @ . . . . + ",
". @ . @ # c ~ d 1 e f g h h i j _ 0 k < [ / } 1 = l m # . @ . . ",
". . . . 2 ~ d * n } o g h p q 8 9 r s 0 5 [ t u b = l v . . . @ ",
". + . % w = b } > ) x y q q 7 z 9 A A r 0 < n = } ! = B % . . . ",
". . C D d 1 } n E F s G H 6 I G o x _ A A 0 F E ) J 1 d D - + . ",
"@ . K L ' } & M ) k s f N G G O N o f P Q s k ) ^ & } ' L K . @ ",
". # D M ' [ 3 R 0 r A x 9 o N S S N N 9 _ A s k w , t ' M 3 # . ",
". T R b ! ^ U V k A x 9 o N N S N S N o x A r k W U X ! 1 R T . ",
". 2 , 1 3 Y w = 5 _ 9 N O N O O O S O N 9 : 5 k = w Z 3 ! , K + ",
". M ~ ~ ` L l _ P  .o O O G O G G O G G 9 ..* +.x l L ` ~ ~ M . ",
". @., #.Z L L $.: %. .G &.&.&.&.z z &.&.o *.^ A $.L #.Z B , @.. ",
"+ ` | ' L ~ Z =.~ 1 -.&.8 8 8 8 I &.;.>.+ ,.@.'.=.Y ~ L ' | ` + ",
". R w ).l Z !.0 '.~.{.H 6 6 y 6 6 ].: S N ^.~.^ k M Z l @./.(.. ",
". = )._.l #.) * l ` Y :.g i 7 g i >.m <.-.Z U l * ) B l R B @.+ ",
"+ & 4 ~ 3 U l ^ L ~.[.8 i }.i i j ^.~.G S * |.L ^ , ` ~ 3 Z 1.. ",
". 2.> ' l R ` B D |.,.y i i i 6 3.Y U 2 ,.* U l w U 3 @., (.m . ",
". ] w ) ! 4 @._.).4.5.j 6 6 7 j 6.3 R V Y 7.L @.R 8.9.Z 0.a.b.+ ",
". # _.~ ' b * 1 /.U c.F ^.S j >.+ m R Z @.d.e.R > f.g.R w h.i.. ",
". + c j.~ ^ ! } * = M V V { z &.* M ^ w R k.l.m.n.o.p.q.r.s.t.@ ",
". @ - u.` #.R 0.= n [.@.R * < v.w.^ l R 3 ~ x.y.z.A.B.C.D.E.. . ",
". . . F.G.Y L Z Z Z b / J } | ) n [.X ~ = M H.I.J.J.J.J.K.L.. @ ",
". + . @ M.N.(.L /.L #.w B #.B ^ ^ w * O.P.Q.R.S.J.J.J.J.T.U.V.W.",
". @ . . # X.N.~.(.B B Z U Z Z B w Y R Y.Z.`. +.+J.J.J.J.++@+#+$+",
". . . . . # M.%+G.N.U )./.U (.U ` Z Y U U Z &+*+J.J.J.J.=+-+. . ",
". + . @ . . @ F.;+>+G.N.` Z Y Y Z ,+j.'+)+G.!+~+{+]+^+/+(+_+. @ ",
". . . . . . . . C c :+<+%+N.'+'+N.>+<+<+<+[+}+|+1+2+3+4+5+6+7+. ",
"@ . . @ . . + . . . 3.] 8+7.9+0+0+a+7.8+b+# c+@ . d+e+. . f+. . ",
". . . . . @ . . @ . . . . @ . + @ . . . + . . . . $+g+. . + . @ "};
