/* XPM */
static char * render_dl_externString_xpm[] = {
"32 32 49 1",
" 	c None",
".	c #BFBFBF",
"+	c #FFFFFF",
"@	c #E2E2E2",
"#	c #C2C2C2",
"$	c #DEDEDE",
"%	c #F2F2F2",
"&	c #FCFCFC",
"*	c #FDFDFD",
"=	c #F9F9F9",
"-	c #ECECEC",
";	c #D4D4D4",
">	c #C5C5C5",
",	c #F5F5F5",
"'	c #E6E6E6",
")	c #F6F6F6",
"!	c #D3D3D3",
"~	c #C9C9C9",
"{	c #E7E7E7",
"]	c #EDEDED",
"^	c #D7D7D7",
"/	c #F3F3F3",
"(	c #FBFBFB",
"_	c #F8F8F8",
":	c #DFDFDF",
"<	c #CBCBCB",
"[	c #D8D8D8",
"}	c #D0D0D0",
"|	c #EBEBEB",
"1	c #FEFEFE",
"2	c #DADADA",
"3	c #C8C8C8",
"4	c #FAFAFA",
"5	c #DCDCDC",
"6	c #C0C0C0",
"7	c #F1F1F1",
"8	c #C6C6C6",
"9	c #D9D9D9",
"0	c #EAEAEA",
"a	c #E3E3E3",
"b	c #C4C4C4",
"c	c #DBDBDB",
"d	c #CCCCCC",
"e	c #C3C3C3",
"f	c #CFCFCF",
"g	c #F0F0F0",
"h	c #F7F7F7",
"i	c #C7C7C7",
"j	c #C1C1C1",
"................................",
"................................",
"................................",
"................................",
"................................",
"................................",
"................................",
"................................",
"....++++++++++@...#$%&*=-;......",
"....++++++++++@..>,+++++++'.....",
"....++)!!!!!!!~..{++]^;@*++!....",
"....++/..........(+_....:++{....",
"....++/..........&+&<...>[[}....",
"....++/..........|++1]23........",
"....++++++++++...~4+++++,56.....",
"....++++++++++....3|1+++++7#....",
"....++)!!!!!!!......890(+++a....",
"....++/...........b#...6c++_....",
"....++/.........[*+:.....,+*....",
"....++/.........d++_e...8&+)....",
"....++)!!!!!!!f..g++,2!5h++:....",
"....++++++++++/..ih+++++++gj....",
"....++++++++++/...e$%(14g26.....",
"................................",
"................................",
"................................",
"................................",
"................................",
"................................",
"................................",
"................................",
"................................"};
