/* XPM */
static char * render_dl_shadowBlocker_xpm[] = {
"32 32 116 2",
"  	c None",
". 	c #C1C1C1",
"+ 	c #868686",
"@ 	c #8C8C8C",
"# 	c #969696",
"$ 	c #A6A6A6",
"% 	c #B7B7B7",
"& 	c #909090",
"* 	c #838383",
"= 	c #767676",
"- 	c #777777",
"; 	c #8F8F8F",
"> 	c #AFAFAF",
", 	c #BFBFBF",
"' 	c #A7A7A7",
") 	c #959595",
"! 	c #6E6E6E",
"~ 	c #8A8A8A",
"{ 	c #C0C0C0",
"] 	c #B6B6B6",
"^ 	c #989898",
"/ 	c #737373",
"( 	c #6C6C6C",
"_ 	c #9B9B9B",
": 	c #5F5F5F",
"< 	c #A1A1A1",
"[ 	c #BEBEBE",
"} 	c #5B5B5B",
"| 	c #A5A5A5",
"1 	c #9E9E9E",
"2 	c #696969",
"3 	c #585858",
"4 	c #B4B4B4",
"5 	c #BBBBBB",
"6 	c #898989",
"7 	c #5C5C5C",
"8 	c #B8B8B8",
"9 	c #4C4C4C",
"0 	c #A4A4A4",
"a 	c #575757",
"b 	c #656565",
"c 	c #BCBCBC",
"d 	c #6F6F6F",
"e 	c #434343",
"f 	c #A8A8A8",
"g 	c #424242",
"h 	c #444444",
"i 	c #707070",
"j 	c #BDBDBD",
"k 	c #474747",
"l 	c #4F4F4F",
"m 	c #5A5A5A",
"n 	c #494949",
"o 	c #555555",
"p 	c #484848",
"q 	c #ABABAB",
"r 	c #A3A3A3",
"s 	c #3A3A3A",
"t 	c #717171",
"u 	c #7E7E7E",
"v 	c #222222",
"w 	c #9A9A9A",
"x 	c #414141",
"y 	c #2D2D2D",
"z 	c #0F0F0F",
"A 	c #808080",
"B 	c #1F1F1F",
"C 	c #242424",
"D 	c #858585",
"E 	c #878787",
"F 	c #ACACAC",
"G 	c #B1B1B1",
"H 	c #AEAEAE",
"I 	c #1D1D1D",
"J 	c #0E0E0E",
"K 	c #535353",
"L 	c #606060",
"M 	c #626262",
"N 	c #676767",
"O 	c #7A7A7A",
"P 	c #949494",
"Q 	c #ADADAD",
"R 	c #151515",
"S 	c #101010",
"T 	c #393939",
"U 	c #3D3D3D",
"V 	c #3B3B3B",
"W 	c #404040",
"X 	c #888888",
"Y 	c #464646",
"Z 	c #111111",
"` 	c #191919",
" .	c #373737",
"..	c #353535",
"+.	c #3C3C3C",
"@.	c #848484",
"#.	c #252525",
"$.	c #060606",
"%.	c #343434",
"&.	c #4A4A4A",
"*.	c #747474",
"=.	c #B0B0B0",
"-.	c #323232",
";.	c #040404",
">.	c #0A0A0A",
",.	c #282828",
"'.	c #050505",
").	c #171717",
"!.	c #0B0B0C",
"~.	c #131313",
"{.	c #1D1D1E",
"].	c #272827",
"^.	c #303130",
"/.	c #3A3B3A",
"(.	c #434443",
"_.	c #4E4F4E",
". . . . . . . . . . . . . . . . . . . . . . . . . . . . . . . . ",
". . + @ # $ % . . . . . . . . . . . . . . . . . . . . . . . . . ",
". . & & * = - ; > . . . . . . . . . . . . . . . . . . . . . . . ",
". . , , % ' ) * ! ~ % . . . . . . . . . . . . . . . . . . . . . ",
". . { { { { , ] ^ / ( ' . . . . . . . . . . . . . . . . . . . . ",
". . . . . . . { , _ / : < . . . . . . . . . . . . . . . . . . . ",
". . . . . . . . { [ < = } | . . . . . . . . . . . . . . . . . . ",
". . . . . . . . . { { 1 2 3 4 . . . . . . . . . . . . . . . . . ",
". . . . . . . . . . . 5 6 7 ! { . . . . . . . . . . . . . . . . ",
". . . . . . . . . . . . 8 - 9 $ . . . . . . . . . . . . . . . . ",
". . . . . . . . . . . . . 0 a b , . . . . . . . . . . . . . . . ",
". . . . . . . . . . . . . c d e f . . . . . . . . . . . . . . . ",
". . . . . . . . . . . . . . ) g 6 . . . . . . . . . . . . . . . ",
". . . . . . . . . . . . . . > h i . . . . . . . . . . . . . . . ",
". . . . . . . . . . . . . . j h } . . . . . . . . . . . . . . . ",
". . . . . . . . . . . . . . [ k l . . . . . . . . . . . . . . . ",
". . . . . . . . . . . . . . j m n . . . . . . . . . . . . . . . ",
". . . . . . . . . . . . . . % o p . . . . . . . . . . . . . . . ",
". . . . . . . . . . . . . { q k } . . . . . . . . . . . . . . . ",
". . . . . . . . . . . . . , r s t . . . . . . . . . . . . . . . ",
". . . . . . . . . . . . { c u v w . . . . . . . . . . . . . . . ",
". . . . . . . . . . . . [ | x y j { { . . . . . . . . . . . . . ",
". . . . . . . . . . . { 4 7 z A 5 5 5 j [ , , , { . . . . . . . ",
". . . . . . . . . . . > 7 B C D * E ^ 0 f F G % c , { . . . . . ",
". . . . . . . . . . H e I J K L : M N N d O D P | G 5 { . . . . ",
". . . . . . . . { Q k R S T U V s V U W g k l 7 i X ' 5 { . . . ",
". . . . . . { , | Y Z `  ............... . . .+.Y 7 @.> [ . . . ",
". . . . . { G 2 #.$.#.%.%.%.%.%.%.%.%.%.%.%.....s &.*.' c { . . ",
". . { { =.@.-.;.>.,... . ............... . . .+.Y 7 @.> [ . . . ",
". . & = s J '.).s s s s s s s s s V U W g k l 7 i X ' 5 { . . . ",
". . $.!.~.{.].^./.(.h h h &._.K a 7 L N d O D P | G 5 { . . . . ",
". . . . . . . . . . . . . . . . . . . . . . . . . . . . . . . . "};
