/* XPM */
static char * render_dl_shadowMap_xpm[] = {
"32 32 190 2",
"  	c None",
". 	c #C1C1C1",
"+ 	c #868686",
"@ 	c #8C8C8C",
"# 	c #969696",
"$ 	c #A6A6A6",
"% 	c #B7B7B7",
"& 	c #808080",
"* 	c #7E7E7E",
"= 	c #7C7C7C",
"- 	c #767676",
"; 	c #777777",
"> 	c #8F8F8F",
", 	c #AFAFAF",
"' 	c #8D8D8D",
") 	c #8B8B8B",
"! 	c #898989",
"~ 	c #6C6C6C",
"{ 	c #8A8A8A",
"] 	c #979797",
"^ 	c #929292",
"/ 	c #838383",
"( 	c #6F6F6F",
"_ 	c #A7A7A7",
": 	c #A1A1A1",
"< 	c #9F9F9F",
"[ 	c #9B9B9B",
"} 	c #919191",
"| 	c #858585",
"1 	c #707070",
"2 	c #5F5F5F",
"3 	c #ACACAC",
"4 	c #A0A0A0",
"5 	c #989898",
"6 	c #828282",
"7 	c #797979",
"8 	c #6E6E6E",
"9 	c #5B5B5B",
"0 	c #A5A5A5",
"a 	c #BFBFBF",
"b 	c #BCBCBC",
"c 	c #B4B4B4",
"d 	c #ABABAB",
"e 	c #8E8E8E",
"f 	c #878787",
"g 	c #747474",
"h 	c #676767",
"i 	c #585858",
"j 	c #D1D1D1",
"k 	c #CCCCCC",
"l 	c #C3C3C3",
"m 	c #A9A9A9",
"n 	c #888888",
"o 	c #818181",
"p 	c #787878",
"q 	c #6D6D6D",
"r 	c #C0C0C0",
"s 	c #E1E1E1",
"t 	c #DBDBDB",
"u 	c #D0D0D0",
"v 	c #B1B1B1",
"w 	c #949494",
"x 	c #636363",
"y 	c #4C4C4C",
"z 	c #ECECEC",
"A 	c #E6E6E6",
"B 	c #DADADA",
"C 	c #C9C9C9",
"D 	c #B6B6B6",
"E 	c #A4A4A4",
"F 	c #656565",
"G 	c #535353",
"H 	c #F1F1F1",
"I 	c #EAEAEA",
"J 	c #DDDDDD",
"K 	c #CBCBCB",
"L 	c #434343",
"M 	c #A8A8A8",
"N 	c #EDEDED",
"O 	c #D9D9D9",
"P 	c #C7C7C7",
"Q 	c #B3B3B3",
"R 	c #757575",
"S 	c #646464",
"T 	c #424242",
"U 	c #CECECE",
"V 	c #BEBEBE",
"W 	c #999999",
"X 	c #727272",
"Y 	c #6B6B6B",
"Z 	c #616161",
"` 	c #575757",
" .	c #444444",
"..	c #B0B0B0",
"+.	c #5E5E5E",
"@.	c #545454",
"#.	c #B8B8B8",
"$.	c #939393",
"%.	c #7F7F7F",
"&.	c #696969",
"*.	c #505050",
"=.	c #414141",
"-.	c #4F4F4F",
";.	c #A3A3A3",
">.	c #909090",
",.	c #717171",
"'.	c #565656",
").	c #3C3C3C",
"!.	c #494949",
"~.	c #7D7D7D",
"{.	c #666666",
"].	c #464646",
"^.	c #363636",
"/.	c #484848",
"(.	c #5A5A5A",
"_.	c #4B4B4B",
":.	c #2D2D2D",
"<.	c #5D5D5D",
"[.	c #393939",
"}.	c #212121",
"|.	c #686868",
"1.	c #555555",
"2.	c #3B3B3B",
"3.	c #2E2E2E",
"4.	c #161616",
"5.	c #9A9A9A",
"6.	c #5C5C5C",
"7.	c #4D4D4D",
"8.	c #474747",
"9.	c #3A3A3A",
"0.	c #313131",
"a.	c #1F1F1F",
"b.	c #2C2C2C",
"c.	c #BDBDBD",
"d.	c #525252",
"e.	c #4E4E4E",
"f.	c #3E3E3E",
"g.	c #262626",
"h.	c #0A0A0A",
"i.	c #BBBBBB",
"j.	c #4A4A4A",
"k.	c #454545",
"l.	c #343434",
"m.	c #272727",
"n.	c #191919",
"o.	c #242424",
"p.	c #3F3F3F",
"q.	c #383838",
"r.	c #303030",
"s.	c #292929",
"t.	c #252525",
"u.	c #1D1D1D",
"v.	c #0E0E0E",
"w.	c #606060",
"x.	c #626262",
"y.	c #7A7A7A",
"z.	c #353535",
"A.	c #323232",
"B.	c #232323",
"C.	c #1C1C1C",
"D.	c #151515",
"E.	c #101010",
"F.	c #3D3D3D",
"G.	c #404040",
"H.	c #2A2A2A",
"I.	c #222222",
"J.	c #181818",
"K.	c #0F0F0F",
"L.	c #373737",
"M.	c #848484",
"N.	c #202020",
"O.	c #141414",
"P.	c #040404",
"Q.	c #121212",
"R.	c #111111",
"S.	c #090909",
"T.	c #020202",
"U.	c #282828",
"V.	c #000000",
"W.	c #050505",
"X.	c #171717",
"Y.	c #060606",
"Z.	c #0B0B0C",
"`.	c #131313",
" +	c #1D1D1E",
".+	c #272827",
"++	c #303130",
"@+	c #3A3B3A",
"#+	c #434443",
"$+	c #4E4F4E",
". . . . . . . . . . . . . . . . . . . . . . . . . . . . . . . . ",
". . + @ # $ % . . . . . . . . . . . . . . . . . . . . . . . . . ",
". . & * = - ; > , . . . . . . . . . . . . . . . . . . . . . . . ",
". . ' ) ! + & - ~ { % . . . . . . . . . . . . . . . . . . . . . ",
". . ] # ^ > { / = ( ~ _ . . . . . . . . . . . . . . . . . . . . ",
". . : < [ ] } ) | = 1 2 : . . . . . . . . . . . . . . . . . . . ",
". . , 3 _ 4 5 } { 6 7 8 9 0 . . . . . . . . . . . . . . . . . . ",
". . a b c d : # e f * g h i c . . . . . . . . . . . . . . . . . ",
". . j k l % m [ } n o p q 9 8 r . . . . . . . . . . . . . . . . ",
". . s t u . v : w { o 7 ( x y $ . . . . . . . . . . . . . . . . ",
". . z A B C D E w { o 7 1 F G F a . . . . . . . . . . . . . . . ",
". . H I J K % E w ! & p ( F i L M . . . . . . . . . . . . . . . ",
". . N A O P Q : } f * R 8 S i T ! . . . . . . . . . . . . . . . ",
". . s t U V d W ) 6 7 X Y Z `  .1 . . . . . . . . . . . . . . . ",
". . U C V ..4 } + * R 8 h +.@. .9 . . . . . . . . . . . . . . . ",
". . #.c 3 4 $.n %.; 1 &.x 9 *.=.-.. . . . . . . . . . . . . . . ",
". . ;.4 W >.n %.; ,.~ F +.'.y ).!.. . . . . . . . . . . . . . . ",
". . > ' ! / ~.- 1 Y {.2 i *.].^./.. . . . . . . . . . . . . . . ",
". . & %.= ; X 8 &.F 2 (.G _.=.:.9 . . . . . . . . . . . . . . . ",
". . g X ,.8 &.{.x <.i G y  .[.}.,.. . . . . . . . . . . . . . . ",
". . |.h {.F Z +.(.1.*._. .2.3.4.5.. . . . . . . . . . . . . . . ",
". . +.<.6.9 ` 1.*.7.8.=.9.0.a.b.c.r r . . . . . . . . . . . . . ",
". . 1.@.G d.e.y 8.L f.[.0.g.h.& i.i.i.c.V a a a r . . . . . . . ",
". . y _.j.8.k.T f.9.l.3.m.n.o.| / f 5 E M 3 v % b a r . . . . . ",
". . T =.p.f.).q.l.r.s.t.u.v.G w.2 x.h h ( y.| w 0 v i.r . . . . ",
". . ^.^.z.l.A.:.s.B.C.D.E.[.F.2.9.2.F.G.T 8.-.6.1 n _ i.r . . . ",
". . b.b.H.s.g.I.u.J.K.n.L.z.z.z.z.z.z.z.L.L.L.).].6.M., V . . . ",
". . N.N.u.a.J.O.K.P.t.l.l.l.l.l.l.l.l.l.l.l.z.z.9.j.g _ b r . . ",
". . Q.R.R.E.S.T.h.U.z.L.L.z.z.z.z.z.z.z.L.L.L.).].6.M., V . . . ",
". . V.V.V.T.W.X.9.9.9.9.9.9.9.9.9.2.F.G.T 8.-.6.1 n _ i.r . . . ",
". . Y.Z.`. +.+++@+#+ . . .j.$+G ` 6.w.h ( y.| w 0 v i.r . . . . ",
". . . . . . . . . . . . . . . . . . . . . . . . . . . . . . . . "};
