/* XPM */
static char *render_ramp[] = {
/* width height num_colors chars_per_pixel */
"    32    32      127            2",
/* colors */
"`` c #007d7d",
"`. c #003cbe",
"`# c #0010ea",
"`a c #0014ea",
"`b c #0018e6",
"`c c #0024d6",
"`d c #0020da",
"`e c #0020de",
"`f c #0024da",
"`g c #0024de",
"`h c #0034c6",
"`i c #0030ca",
"`j c #0030ce",
"`k c #0034ca",
"`l c #005d9d",
"`m c #004cae",
"`n c #0044b6",
"`o c #0040ba",
"`p c #0040be",
"`q c #0044ba",
"`r c #0050aa",
"`s c #0050ae",
"`t c #0055aa",
"`u c #005da1",
"`v c #006d8d",
"`w c #006595",
"`x c #006199",
"`y c #00619d",
"`z c #006599",
"`A c #007189",
"`B c #00718d",
"`C c #007589",
"`D c #007d81",
"`E c #00be3c",
"`F c #009d5d",
"`G c #008d6d",
"`H c #008179",
"`I c #00817d",
"`J c #008d71",
"`K c #009169",
"`L c #00916d",
"`M c #009d61",
"`N c #00ae4c",
"`O c #00a159",
"`P c #00aa50",
"`Q c #00b24c",
"`R c #00ba40",
"`S c #00de1c",
"`T c #00ce2c",
"`U c #00c23c",
"`V c #00ca30",
"`W c #00d22c",
"`X c #00da20",
"`Y c #00d230",
"`Z c #00ee0c",
"`0 c #0cee00",
"`1 c #00e21c",
"`2 c #00ea10",
"`3 c #00ea14",
"`4 c #00ee10",
"`5 c #00ee14",
"`6 c #00f604",
"`7 c #00f20c",
"`8 c #00fa00",
".` c #08f200",
".. c #08f600",
".# c #0cf200",
".a c #0cf600",
".b c #00f210",
".c c #18e200",
".d c #18e600",
".e c #1ce200",
".f c #2cce00",
".g c #28d200",
".h c #28d600",
".i c #2cd200",
".j c #38c200",
".k c #38c600",
".l c #3cc200",
".m c #00c240",
".n c #48b200",
".o c #48b600",
".p c #4cb200",
".q c #55a500",
".r c #59a100",
".s c #59a500",
".t c #5da100",
".u c #659500",
".v c #699100",
".w c #699500",
".x c #6d9100",
".y c #758500",
".z c #758900",
".A c #798100",
".B c #798500",
".C c #7d8500",
".D c #857500",
".E c #857900",
".F c #897100",
".G c #897900",
".H c #956500",
".I c #956900",
".J c #996500",
".K c #a55500",
".L c #a55900",
".M c #aa5500",
".N c #b64400",
".O c #b64800",
".P c #ba4400",
".Q c #ce2c00",
".R c #c63400",
".S c #c23800",
".T c #ca3400",
".U c #d62400",
".V c #d22800",
".W c #d22c00",
".X c #d62800",
".Y c #d62c00",
".Z c #da2400",
".0 c #da2800",
".1 c #ea0c00",
".2 c #e61400",
".3 c #e21800",
".4 c #e21c00",
".5 c #e61800",
".6 c #e61c00",
".7 c #ea1000",
/* pixels */
"`b`a`a`a`#`a`a`a`a`a`a`a`a`a`a`a`a`#`a`a`a`a`a`a`a`a`#`#`a`a`a`a",
"`c`f`d`f`d`f`e`d`d`g`g`f`f`f`f`d`d`d`f`f`e`d`d`f`f`f`f`d`d`d`d`f",
"`h`i`i`i`i`j`j`i`i`j`i`k`k`i`i`j`i`i`k`i`j`j`j`k`i`j`i`k`k`j`i`j",
"`n`o`p`p`p`.`p`p`q`p`p`p`p`p`p`p`o`o`p`o`p`p`p`p`q`p`p`o`p`p`p`p",
"`t`s`s`r`r`m`r`r`s`r`s`s`s`t`s`t`s`s`s`r`r`s`r`r`s`t`s`s`m`r`r`r",
"`w`y`y`y`l`y`z`y`x`y`y`l`l`y`x`x`x`y`y`y`y`y`z`y`x`y`y`l`u`y`x`x",
"`A`B`A`B`B`A`C`B`B`B`A`B`B`v`v`C`B`B`B`B`B`B`C`B`B`v`A`B`B`B`v`C",
"`H```I`D```I`D```D```D`D`I`I`I`I`I`I`I`D`````D`````D`D`D`I`I`I`I",
"`G`L`L`G`L`J`J`L`J`J`L`L`L`G`K`L`L`L`L`L`L`J`G`G`J`J`L`L`L`G`L`K",
"`O`F`M`F`O`F`O`F`M`M`F`O`M`O`O`M`M`M`M`O`O`F`O`F`M`M`O`O`M`O`O`M",
"`P`P`P`P`Q`N`N`P`P`N`P`P`P`P`N`N`P`P`P`N`Q`N`Q`P`P`P`P`P`P`P`N`Q",
"`U`R`R`R`E`R`R`R`R`R`E`R`R`E`R`U`U`R`R`R.m`E`R`R`R`R`R`R`R`U`R`U",
"`W`Y`V`W`V`V`V`V`V`W`V`V`V`V`V`T`W`V`V`V`V`V`V`V`T`T`V`V`V`V`T`V",
"`S`X`X`X`1`S`X`X`X`S`X`X`X`X`X`X`1`X`X`X`1`S`X`X`X`S`X`X`X`X`X`X",
"`2`2`4`4`4`4`Z`4`4.b`4`4`7`4`4`3`4`2`4`4`4`4`4`4`4`Z`4`4`Z`5`5`3",
"`6`8`8`8`8`8`8`6`8`8`8`8`8`8`8`6`8`8`8`8`8`8`8`6`8`8`8`8`8`8`8`8",
"`0.`.#`0`0`0.#`0.#.#.`...#.#.#.`.#...#`0`0`0.#`0.#.`.a.`.#.#.#.`",
".c.c.e.e.e.e.e.c.c.e.d.d.d.e.c.c.e.d.e.e.e.e.c.d.d.e.d.c.d.c.c.e",
".i.i.g.g.g.i.h.g.g.g.g.i.g.g.g.h.i.i.g.i.f.g.h.g.g.h.g.g.g.h.h.g",
".j.l.k.j.k.k.k.l.l.k.k.l.k.j.l.k.k.k.k.j.k.j.j.l.j.k.k.l.j.j.j.k",
".o.n.p.n.n.p.o.n.p.o.o.n.o.o.p.o.o.n.p.o.p.n.o.o.p.o.o.n.o.o.p.o",
".s.s.s.s.s.r.s.s.t.s.s.r.s.q.s.q.r.s.s.s.s.s.s.s.t.s.s.t.s.s.s.q",
".w.v.x.v.w.w.w.w.w.w.w.w.w.v.w.w.x.w.v.x.w.w.w.w.w.w.w.w.u.w.w.w",
".y.B.B.B.B.B.B.B.B.z.B.B.y.B.B.A.B.B.B.B.B.B.B.B.B.y.B.y.y.B.B.C",
".D.F.F.F.F.D.D.D.E.E.E.G.F.F.E.D.D.D.F.F.F.F.D.F.E.E.E.F.F.F.E.F",
".I.H.J.J.J.I.I.J.H.I.I.I.I.H.J.J.I.J.J.J.J.H.H.H.J.I.I.I.H.J.H.H",
".L.K.K.M.M.L.K.M.M.M.K.M.M.L.M.M.K.K.K.M.M.L.K.K.M.M.L.M.M.K.M.M",
".O.N.P.P.P.O.O.O.O.O.O.O.O.O.P.P.N.O.N.P.P.N.N.O.O.O.O.O.O.O.P.P",
".S.R.T.T.R.S.S.S.S.R.S.S.S.S.R.T.R.T.T.T.T.S.S.S.S.S.S.S.R.S.R.T",
".Q.U.X.X.X.X.X.X.Z.0.X.X.X.X.W.U.Y.X.X.U.X.V.X.V.U.X.X.X.X.X.V.Z",
".4.5.5.5.5.5.3.4.5.5.5.5.5.5.5.6.5.5.5.5.5.3.3.3.5.5.3.5.5.5.5.3",
".2.7.7.7.1.7.7.7.7.7.7.7.1.7.7.7.7.7.7.7.7.7.7.7.7.7.7.7.1.7.7.7"
};
