/* XPM */
static char *sculptPush_xpm[] = {
/* width height num_colors chars_per_pixel */
"    32    32      256            2",
/* colors */
"`` c #0c0e0c",
"`. c #006ab4",
"`# c #747674",
"`a c #0092ec",
"`b c #940a0c",
"`c c #003a5c",
"`d c #749ebc",
"`e c #4c6e84",
"`f c #007ed4",
"`g c #a4a2a4",
"`h c #4496cc",
"`i c #3c4244",
"`j c #6c0e0c",
"`k c #0ca6ff",
"`l c #005284",
"`m c #a4b6c4",
"`n c #00263c",
"`o c #2482c4",
"`p c #2472a4",
"`q c #3492cc",
"`r c #ac7e7c",
"`s c #009eff",
"`t c #bcbabc",
"`u c #0076c4",
"`v c #8ca6bc",
"`w c #008ae4",
"`x c #2c3a44",
"`y c #005e9c",
"`z c #241e1c",
"`A c #242e34",
"`B c #0c1a24",
"`C c #7492a4",
"`D c #009aec",
"`E c #00466c",
"`F c #6c92ac",
"`G c #945a54",
"`H c #cca6a4",
"`I c #00324c",
"`J c #8cb2cc",
"`K c #1486dc",
"`L c #0caeff",
"`M c #145a94",
"`N c #bcc2c4",
"`O c #1c72ac",
"`P c #0c92ec",
"`Q c #cc0e14",
"`R c #0086dc",
"`S c #acaeac",
"`T c #b4b6b4",
"`U c #248ed4",
"`V c #147ac4",
"`W c #9caebc",
"`X c #14222c",
"`Y c #006ebc",
"`Z c #947674",
"`0 c #0092ff",
"`1 c #4c86ac",
"`2 c #005a94",
"`3 c #1c2e3c",
"`4 c #dc7e7c",
"`5 c #c4babc",
"`6 c #8caec4",
"`7 c #1c8edc",
"`8 c #002234",
".` c #144e7c",
".. c #649ec4",
".# c #00426c",
".a c #7caed4",
".b c #0082d4",
".c c #54a6dc",
".d c #6c3a3c",
".e c #641a1c",
".f c #14a6ff",
".g c #005694",
".h c #002e4c",
".i c #3482b4",
".j c #ac8a8c",
".k c #0c9eff",
".l c #007ad4",
".m c #008ef4",
".n c #0066a4",
".o c #9c9a9c",
".p c #004e84",
".q c #ff0e0c",
".r c #a4b2bc",
".s c #6ca6cc",
".t c #0c121c",
".u c #0096f4",
".v c #003e64",
".w c #7ca6c4",
".x c #4c9acc",
".y c #00568c",
".z c #acb6bc",
".A c #0c263c",
".B c #34729c",
".C c #b48284",
".D c #bcbebc",
".E c #007acc",
".F c #008eec",
".G c #0c1e34",
".H c #848e94",
".I c #0c9aff",
".J c #004a7c",
".K c #00365c",
".L c #14aeff",
".M c #b4bec4",
".N c #0072bc",
".O c #a48284",
".P c #5c8aac",
".Q c #94aebc",
".R c #6c9ebc",
".S c #3486c4",
".T c #0c1214",
".U c #0c6aa4",
".V c #8c7274",
".W c #0092f4",
".X c #ac0a0c",
".Y c #003a64",
".Z c #7c9ebc",
".0 c #6c6e74",
".1 c #007edc",
".2 c #b4a6a4",
".3 c #4c92c4",
".4 c #444a4c",
".5 c #7c0a0c",
".6 c #0caaff",
".7 c #00528c",
".8 c #002a44",
"#` c #2476b4",
"#. c #ec5254",
"## c #bcb2b4",
"#a c #24425c",
"#b c #dc0a0c",
"#c c #9cb6cc",
"#d c #349ae4",
"#e c #342e2c",
"#f c #741a14",
"#g c #8496a4",
"#h c #1c76b4",
"#i c #6c4244",
"#j c #1c5a84",
"#k c #2c8acc",
"#l c #b47a7c",
"#m c #009aff",
"#n c #c4c2c4",
"#o c #0c2234",
"#p c #0062a4",
"#q c #0c1e2c",
"#r c #003654",
"#s c #acb2b4",
"#t c #b4babc",
"#u c #4c8ab4",
"#v c #64a2cc",
"#w c #acbac4",
"#x c #00a2ff",
"#y c #8caabc",
"#z c #0096ff",
"#A c #c4bebc",
"#B c #14aaff",
"#C c #0ca2ff",
"#D c #14b2ff",
"#E c #a48684",
"#F c #0076cc",
"#G c #008aec",
"#H c #004674",
"#I c #0086e4",
"#J c #0082dc",
"#K c #3482bc",
"#L c #0066ac",
"#M c #ff0e14",
"#N c #a4b2c4",
"#O c #bcbec4",
"#P c #0072c4",
"#Q c #94aec4",
"#R c #000000",
"#S c #000000",
"#T c #000000",
"#U c #000000",
"#V c #000000",
"#W c #000000",
"#X c #000000",
"#Y c #000000",
"#Z c #000000",
"#0 c #000000",
"#1 c #000000",
"#2 c #000000",
"#3 c #000000",
"#4 c #000000",
"#5 c #000000",
"#6 c #000000",
"#7 c #000000",
"#8 c #000000",
"a` c #000000",
"a. c #000000",
"a# c #000000",
"aa c #000000",
"ab c #000000",
"ac c #000000",
"ad c #000000",
"ae c #000000",
"af c #000000",
"ag c #000000",
"ah c #000000",
"ai c #000000",
"aj c #000000",
"ak c #000000",
"al c #000000",
"am c #000000",
"an c #000000",
"ao c #000000",
"ap c #000000",
"aq c #000000",
"ar c #000000",
"as c #000000",
"at c #000000",
"au c #000000",
"av c #000000",
"aw c #000000",
"ax c #000000",
"ay c #000000",
"az c #000000",
"aA c #000000",
"aB c #000000",
"aC c #000000",
"aD c #000000",
"aE c #000000",
"aF c #000000",
"aG c #000000",
"aH c #000000",
"aI c #000000",
"aJ c #000000",
"aK c #000000",
"aL c #000000",
"aM c #000000",
"aN c #000000",
"aO c #000000",
"aP c #000000",
"aQ c #000000",
"aR c #000000",
"aS c #000000",
"aT c #000000",
"aU c #000000",
"aV c #000000",
"aW c #000000",
"aX c #000000",
"aY c #000000",
"aZ c #000000",
"a0 c #000000",
"a1 c #000000",
"a2 c #000000",
"a3 c #000000",
"a4 c #000000",
"a5 c #000000",
"a6 c #000000",
"a7 c #000000",
"a8 c #000000",
/* pixels */
"#n#n#n#n#n#n#n#n#n#n#n#n#n#n#n#n#n#n#n#n#n#n#n#n#n#n#n#n#n#n#n#n",
"#n#n#n#n#n#n#n#n#n#n#n#n#n#n#n`t.2`H#n#n#n#n#n#n#n#n#n#n#n#n#n#n",
"#n#n#n#n#n#n#n#n#n#n#n#n#n#n#n##.O`4#n#n#n#n#n#n#n#n#n#n#n#n#n#n",
"#n#n#n#n#n#n#n#n#n#n#n#n#n#n#n.2`G#.#n#n#n#n#n#n#n#n#n#n#n#n#n#n",
"#n#n#n#n#n#n#n#n#n#n#n#n#n#n#n.j#f#M#n#n#n#n#n#n#n#n#n#n#n#n#n#n",
"#n#n#n#n#n#n#n#n#n#n#n#n#n#n#n#E#f#M#n#n#n#n#n#n#n#n#n#n#n#n#n#n",
"#n#n#n#n#n#n#n#n#n#n#n#n#n#n#n#E#f#M#n#n#n#n#n#n#n#n#n#n#n#n#n#n",
"#n#n#n#n#n#n#n#n#n#n#n#n#n#n#n#E#f#M#n#n#n#n#n#n#n#n#n#n#n#n#n#n",
"#n#n#n#n#n#n#n#n#n#n#n#n#n#n#i`b.q#M#b#l#n#n#n#n#n#n#n#n#n#n#n#n",
"#n#n#n#n#n#n#n#n#n#n#n#n#n#n`Z`j#b#M`Q#A#n#n#n#n#n#n#n#n#n#n#n#n",
"#n#n#n#n#n#n#n#n#n#n#n#n#n#n`5.d.X.q.C#n#n#n#n#n#n#n#n#n#n#n#n#n",
"#n#n#n#n#n#n#n#n#n#n#n#n#n#n#n.V.5`Q#A#n#n#n#n#n#n#n#n#n#n#n#n#n",
"#n#n#n#n#n#n#n#n#n#n#n#n#n#n#n`5.e`r#n#n#n#n#n#n#n#n#n#n#n#n#n#n",
"#n#n#n#n#n#n#n#n#n#n#n#n#n#n#n#n#n#n#n#n#n#n#n#n#n#n#n#n#n#n#n#n",
"#n#n#n#n#n#n#n#n#n#n#O.3`V`o`h.s`J.M#n#n#n#n#n#n#n#n#n#n#n#n#n#n",
"#n#n#n#n#n#n#n#n#n`m#k.b#J#I`w`a`D`P#d.c.a#c.M#O`N#n#n#n#n#n#n#n",
"#n#n#n#n#n#n#n#n`6`K#I#G.m`0#m#x`k`s#m#z`0.W`a`P`7`U`q.x...w#Q`m",
"#n#n#n#n#n#n`N#v#J`R#G.m#z#m.k.f.L#C.k.I#m#m`0.m#G#I.1.l#F`u.N`Y",
"#n#n#n#n#n#y.S.E`f`R`w.m`0#m.I`k.L`k#C.k.I#z`0.m#I#J.l#F`u.N`Y#K",
"#n#n#O`v.i`.`.`Y`u.l#J#G.W#z.I#C#D.6#C.k#m#z.m#G`R.E#P.N`.`.`..z",
"#O.Z#`#L#p#p#p#p`.#P.l#I.m#z#m#C.L#B#C.k#m`0.F#I.E`Y`.#p`y`y`1#n",
"#h#L#L#p`2.y.7.y`y#L#P`f#G.W#m#C#B.L#C.k#z.m#I`f`Y#p`2`l.p.y#t#n",
"`d#u`p`y`2.p`E.#.J`2#L`u#J.m#z.k#B.L`k#m#z#G#J#P#p.7#H.v#H`C#n#n",
"#n#n#O`W`F.B.``c`I.#.y`..l#G`0.k`k.L#C#m.W#I#F#L.p.K.h.Y#j`N#n#n",
"#n#n#n#n#n#n.z#g`e#a`c`2`u#G#m#C.6`L`k`s#z#J`..J`I.h`E.7.r#n#n#n",
"#n#n#n#n#n#n#n#n#n.D.H`X#r.y.N#I.W.u#z.F#F#p.p`E.J.g`y.P#n#n#n#n",
"#n#n#n#n#n#n#n#n#n#n#n.o`z````.T.t`B`8.8#r.#`M.U.n#L`O#O#n#n#n#n",
"#n#n#n#n#n#n#n#n#n#n#n#n`g`A#o`n`n`8.G#q`B#e#s#w.Q.R#N#n#n#n#n#n",
"#n#n#n#n#n#n#n#n#n#n#n#n#n`S`i.A.8.h.8#o.4`T#n#n#n#n#n#n#n#n#n#n",
"#n#n#n#n#n#n#n#n#n#n#n#n#n#n.D.0`x`3`x`##n#n#n#n#n#n#n#n#n#n#n#n",
"#n#n#n#n#n#n#n#n#n#n#n#n#n#n#n#n#n#n#n#n#n#n#n#n#n#n#n#n#n#n#n#n",
"#n#n#n#n#n#n#n#n#n#n#n#n#n#n#n#n#n#n#n#n#n#n#n#n#n#n#n#n#n#n#n#n"
};
