/* XPM */
static char *render_displacementShader[] = {
/* width height num_colors chars_per_pixel */
"    32    32       57            1",
/* colors */
"` c #040404",
". c #0c0c0c",
"# c #101010",
"a c #141414",
"b c #181818",
"c c #1c1c1c",
"d c #202020",
"e c #242424",
"f c #282828",
"g c #2c2c2c",
"h c #303030",
"i c #343434",
"j c #383838",
"k c #3c3c3c",
"l c #404040",
"m c #444444",
"n c #484848",
"o c #4c4c4c",
"p c #505050",
"q c #555555",
"r c #595959",
"s c #5d5d5d",
"t c #616161",
"u c #656565",
"v c #696969",
"w c #6d6d6d",
"x c #717171",
"y c #757575",
"z c #797979",
"A c #7d7d7d",
"B c #818181",
"C c #858585",
"D c #898989",
"E c #8d8d8d",
"F c #919191",
"G c #959595",
"H c #999999",
"I c #9d9d9d",
"J c #a1a1a1",
"K c #a5a5a5",
"L c #aaaaaa",
"M c #aeaeae",
"N c #b2b2b2",
"O c #b6b6b6",
"P c #bababa",
"Q c #bebebe",
"R c #c1c1c1",
"S c #c6c6c6",
"T c #cacaca",
"U c #cecece",
"V c #d2d2d2",
"W c #d6d6d6",
"X c #dadada",
"Y c #e6e6e6",
"Z c #eaeaea",
"0 c #eeeeee",
"1 c #ffffff",
/* pixels */
"RRRRRRRRRRRRRROOOOORRROLMHBORRRR",
"RRRRRRRRRQDABAojjkpABCCEDMBLRRRR",
"RRRRRRRRROj###cebeomhsTUTUELRRRR",
"RRRRRRQRPJlffjlccfpojuVRRTELRRRR",
"RRRRRQODBEyLOVwadfoojuVRRTELRRRR",
"RRRRRQLBRUUTSVuafbmojuVRRTELRRRR",
"RRRRRQLEURRRRVuafamojuVRRTELRRRR",
"RRRRRQLETRRRRVuafamojuVSTVCLRRRR",
"RRRRRQLETRRRRVt`achkhwSNDEEORRRR",
"RRRRQQLETRRRRUvxP1SvmkeiKMQRRRRR",
"RRRRQRMETRRRSVAZYFGCGbckOQRRRRRR",
"RRRRNGzDUTVUOMkuyILUPcdkORRRRRRR",
"RRRzyGTASLuujhdKVSSSOcdkORRRRRRR",
"RRQifglmfc.hoohOSRRSOcdkOQRRRRRR",
"RRQkcecbdebmoohNSRRSOccfMRRRRRRR",
"RRQkdeeeeebmoohNSRRSObdEKHMQRRRR",
"RRPkdeeeeebmoohNSRRSLC11MyzMRRRR",
"RRPkdeeeeeamoohNSSTWKyGwFOELRRRR",
"RRPkdeeecachkohPVPLwiiKPUUELRRRR",
"RRPkccadqC0QqkgCubgjhwWSRTELRRRR",
"RROkfrDY1110Ozk.bampjuVRRTELRRRR",
"RRPCFS11YODxFQvafbmojuVRRTELRRRR",
"RRRRMHHIwFMUTVuafbmojuVRRUELRRRR",
"RRRRQRJzVTSRRVuae#lojuUSTNwMRRRR",
"RRRRRQLETRRRRVt#djnmiuXMEENRRRRR",
"RRRRRRLETRRRRUxqCONBmtHEKRRRRRRR",
"RRRRRRLETRRRRTEMSRRRNCKRRRRRRRRR",
"RRRRRRLETRRRSUFLRRRRRRRRRRRRRRRR",
"RRRRRRLETSSUQMwMRRRRRRRRRRRRRRRR",
"RRRRRRLEVQMDBDMRRRRRRRRRRRRRRRRR",
"RRRRRRMyFBDKORRRRRRRRRRRRRRRRRRR",
"RRRRRROCKORRRRRRRRRRRRRRRRRRRRRR"
};
