/* XPM */
static char * render_dl_attributeString_xpm[] = {
"32 32 44 1",
" 	c None",
".	c #6E6E6E",
"+	c #5A5A5A",
"@	c #000000",
"#	c #4C4C4C",
"$	c #6D6D6D",
"%	c #5F5F5F",
"&	c #4D4D4D",
"*	c #393939",
"=	c #2D2D2D",
"-	c #434343",
";	c #545454",
">	c #656565",
",	c #3D3D3D",
"'	c #686868",
")	c #6C6C6C",
"!	c #494949",
"~	c #595959",
"{	c #646464",
"]	c #5B5B5B",
"^	c #535353",
"/	c #5D5D5D",
"(	c #666666",
"_	c #404040",
":	c #454545",
"<	c #5E5E5E",
"[	c #6B6B6B",
"}	c #5C5C5C",
"|	c #353535",
"1	c #696969",
"2	c #636363",
"3	c #676767",
"4	c #606060",
"5	c #555555",
"6	c #626262",
"7	c #6A6A6A",
"8	c #4A4A4A",
"9	c #616161",
"0	c #575757",
"a	c #4E4E4E",
"b	c #474747",
"c	c #565656",
"d	c #515151",
"e	c #505050",
"................................",
"................................",
"................................",
"................................",
"................................",
"................................",
"................................",
"................................",
"........+@@#.......$%&*=-;>.....",
".......$,@@@'.....)!@@@@@@@~....",
".......{@@@@].....~@@^{>/=@@(...",
".......;@=_@,$....,@:....<@@~...",
"......[=@;}@@{....*@|1...[223...",
"......4@@{1@@^....5@@=^67.......",
"......8@|$.8@@[...7,@@@@@89$....",
".....'@@0..4@@%....75=@@@@@a$...",
".....}@@(..[@@b......[2c,@@@}...",
"....$_@@@@@@@@@3...)$...$9@@:...",
"....>@@@@@@@@@@~.2=@%.....!@=...",
"....5@@}%%%%%|@|$1@@-)...[|@b...",
"...)=@-......0@@2.d@@!9>9b@@<...",
"...9@@}......(@@e.[b@@@@@@@d$...",
"...&@@'......$,@@7.$%&*=,d9$....",
"................................",
"................................",
"................................",
"................................",
"................................",
"................................",
"................................",
"................................",
"................................"};
