/* XPM */
static char * render_dl_specular_xpm[] = {
"64 64 145 2",
"  	c None",
". 	c #BEBEBE",
"+ 	c #A8A8A8",
"@ 	c #949494",
"# 	c #929292",
"$ 	c #A2A2A2",
"% 	c #BBBBBB",
"& 	c #AEAEAE",
"* 	c #969696",
"= 	c #939393",
"- 	c #A3A3A3",
"; 	c #BDBDBD",
"> 	c #B0B0B0",
", 	c #585858",
"' 	c #141414",
") 	c #000000",
"! 	c #090909",
"~ 	c #404040",
"{ 	c #9A9A9A",
"] 	c #010101",
"^ 	c #080808",
"/ 	c #181818",
"( 	c #3C3C3C",
"_ 	c #828282",
": 	c #B3B3B3",
"< 	c #636363",
"[ 	c #1D1D1D",
"} 	c #0D0D0D",
"| 	c #505050",
"1 	c #ACACAC",
"2 	c #A0A0A0",
"3 	c #232323",
"4 	c #3B3B3B",
"5 	c #3D3D3D",
"6 	c #272727",
"7 	c #020202",
"8 	c #030303",
"9 	c #717171",
"0 	c #4F4F4F",
"a 	c #8E8E8E",
"b 	c #131313",
"c 	c #1F1F1F",
"d 	c #3A3A3A",
"e 	c #1C1C1C",
"f 	c #0C0C0C",
"g 	c #BCBCBC",
"h 	c #222222",
"i 	c #242424",
"j 	c #A1A1A1",
"k 	c #A7A7A7",
"l 	c #2F2F2F",
"m 	c #7B7B7B",
"n 	c #B6B6B6",
"o 	c #989898",
"p 	c #333333",
"q 	c #858585",
"r 	c #8D8D8D",
"s 	c #050505",
"t 	c #343434",
"u 	c #919191",
"v 	c #191919",
"w 	c #9D9D9D",
"x 	c #8A8A8A",
"y 	c #A6A6A6",
"z 	c #B4B4B4",
"A 	c #121212",
"B 	c #B8B8B8",
"C 	c #1E1E1E",
"D 	c #363636",
"E 	c #B2B2B2",
"F 	c #101010",
"G 	c #444444",
"H 	c #2C2C2C",
"I 	c #656565",
"J 	c #171717",
"K 	c #565656",
"L 	c #0E0E0E",
"M 	c #646464",
"N 	c #5B5B5B",
"O 	c #151515",
"P 	c #666666",
"Q 	c #959595",
"R 	c #696969",
"S 	c #040404",
"T 	c #ADADAD",
"U 	c #AAAAAA",
"V 	c #8F8F8F",
"W 	c #777777",
"X 	c #626262",
"Y 	c #AFAFAF",
"Z 	c #4D4D4D",
"` 	c #7C7C7C",
" .	c #292929",
"..	c #606060",
"+.	c #161616",
"@.	c #484848",
"#.	c #5A5A5A",
"$.	c #464646",
"%.	c #797979",
"&.	c #BABABA",
"*.	c #535353",
"=.	c #313131",
"-.	c #6D6D6D",
";.	c #B1B1B1",
">.	c #7F7F7F",
",.	c #9C9C9C",
"'.	c #0B0B0B",
").	c #727272",
"!.	c #707070",
"~.	c #616161",
"{.	c #1A1A1A",
"].	c #6A6A6A",
"^.	c #0A0A0A",
"/.	c #9B9B9B",
"(.	c #060606",
"_.	c #808080",
":.	c #8B8B8B",
"<.	c #757575",
"[.	c #A5A5A5",
"}.	c #888888",
"|.	c #1B1B1B",
"1.	c #B5B5B5",
"2.	c #070707",
"3.	c #494949",
"4.	c #737373",
"5.	c #6B6B6B",
"6.	c #7E7E7E",
"7.	c #0F0F0F",
"8.	c #474747",
"9.	c #282828",
"0.	c #9E9E9E",
"a.	c #6C6C6C",
"b.	c #515151",
"c.	c #838383",
"d.	c #202020",
"e.	c #212121",
"f.	c #3E3E3E",
"g.	c #B9B9B9",
"h.	c #383838",
"i.	c #2A2A2A",
"j.	c #7D7D7D",
"k.	c #4A4A4A",
"l.	c #545454",
"m.	c #909090",
"n.	c #A4A4A4",
". . . . . . . . . . . . . . . . . . . . . . . . . . . . . . . . . . . . . . . . . . . . . . . . . . . . . . . . . . . . . . . . ",
". . . . . . . . . . . . . . . . . . . . . . . . . . . . . . . . . . . . . . . . . . . . . . . . . . . . . . . . . . . . . . . . ",
". . . . . . . . . . . . . . . . . . . . . . . . . . . . . . . . . . . . . . . . . . . . . . . . . . . . . . . . . . . . . . . . ",
". . . . . . . . . . . . . . . . . . . . . . . . . . . . . . . . . . . . . . . . . . . . . . . . . . . . . . . . . . . . . . . . ",
". . . . . . . . . . . . . . . . . . . . . . . . . . . . . . . . . . . . . . . . . . . . . . . . . . . . . . . . . . . . . . . . ",
". . . . . . . . . . . . . . . . . . . . . . . . . . . . . . . . . . . . . . . . . . . . . . . . . . . . . . . . . . . . . . . . ",
". . . . . . . . . . . . . . . . . . . . . . . . . . . . . . . . . . . . . . . . . . . . . . . . . . . . . . . . . . . . . . . . ",
". . . . . . . . . . . . . . . . . . . . . . . . . . . . . . . . . . . . . . . . . . . . . . . . . . . . . . . . . . . . . . . . ",
". . . . . . . . . . . . . . . . . . . . . . . . . . . . . . . . . . . . . . . . . . . . . . . . . . . . . . . . . . . . . . . . ",
". . . . . . . . . . . . . . . . . . . . . . . . . . . . . . . . . . . . . . . . . . . . . . . . . . . . . . . . . . . . . . . . ",
". . . . . . . . . . . . . . . . . . . . . . . . . . . . . . . . . . . . . . . . . . . . . . . . . . . . . . . . . . . . . . . . ",
". . . . . . . . . . . . . . . . . . . . . . . . . . . . . . . . . . . . . . . . . . . . . . . . . . . . . . . . . . . . . . . . ",
". . . . . . . . . . . . . . . . . . . . . . . . . . . . . . . . . . . . . . . . . . . . . . . . . . . . . . . . . . . . . . . . ",
". . . . . . . . . . . . . . . . . . . . . . . . . . . . . . . . . . . . . . . . . . . . . . . . . . . . . . . . . . . . . . . . ",
". . . . . . . . . . . . . . . . . . . . . . . . . . . . . . . . . . . . . . . . . . . . . . . . . . . . . . . . . . . . . . . . ",
". . . . . . . . . . . . . . . . . . . . . . . . . . . . . . . . . . . . . . . . . . . . . . . . . . . . . . . . . . . . . . . . ",
". . . . . . . . . . . . . . . . . . . . . . . . . . . . . . . . . . . . . . . . . . . . . . . . . . . . . . . . . . . . . . . . ",
". . . . . . . . . . . . . . . . . . . . . . . . . . . . . . . . . . . . . . . . . . . . . . . . . . . . . . . . . . . . . . . . ",
". . . . . . . . . . . . . . . . . . . . . . . . . . . . . . . . . . . . . . . . . . . . . . . . . . . . . . . . . . . . . . . . ",
". . . . . . . . . . . . . . . . . . . . . . . . . . . . . . . . . . . . . . . . . . . . . . . . . . . . . . . . . . . . . . . . ",
". . . . . . . . . . . . . . . . . . . . . . . . . . . . . . . . . . . . . . . . . . . . . . . . . . . . . . . . . . . . . . . . ",
". . . . . . . . . . . . . . . . . . . . . . . . . . . . . . . . . . . . . . . . . . . . . . . . . . . . . . . . . . . . . . . . ",
". . . . . . . . . . . . + @ # $ % . . . . . . . . . . . . . . . . . . . . . . . . . . . . . . . & * = - ; . . . . . . . . . . . ",
". . . . . . . . . > , ' ) ) ) ) ! ~ { . . . . . . ) ) ) ) ) ) ) ] ^ / ( _ . . . . . . . . : < [ ) ) ) ) } | 1 . . . . . . . . . ",
". . . . . . . . 2 ' ) ] 3 4 5 6 7 ) 8 9 . . . . . ) ) ) ) ) ) ) ) ) ) ) ) 0 . . . . . . a b ) ) c d ( e ) ) f a . . . . . . . . ",
". . . . . . . g h ) i j . . . . k l ) 7 @ . . . . ) ) m . . . . ; n o p ) ) q . . . . r s ) t 2 . . . . u v ) ^ w . . . . . . . ",
". . . . . . . x ) 7 y . . . . . . z A ) 4 . . . . ) ) m . . . . . . . B C ) D . . . E F ) G g . . . . . . k } ) H . . . . . . . ",
". . . . . . . I ) J . . . . . . . . K ) L . . . . ) ) m . . . . . . . . M ) f . . . N ) O n . . . . . . . . P ) ) Q . . . . . . ",
". . . . . . . R ) S T . . . . . . . U a V . . . . ) ) m . . . . . . . . W ) S . . ; A ) X . . . . . . . . . Y Z ` > . . . . . . ",
". . . . . . . { ) )  .{ . . . . . . . . . . . . . ) ) m . . . . . . . . ..) +.. . { ) ) { . . . . . . . . . . . . . . . . . . . ",
". . . . . . . . @.) ) ) h #.x n . . . . . . . . . ) ) m . . . . . . . : J ) $.. . %.) S % . . . . . . . . . . . . . . . . . . . ",
". . . . . . . . &.*.7 ) ) ) ) S =.-.;.. . . . . . ) ) m . . . . % 1 >.h ) S ,.. . P ) O . . . . . . . . . . . . . . . . . . . . ",
". . . . . . . . . . 2 K v ) ) ) ) ) '.).. . . . . ) ) ) ) ) ) ) ) ) ) ) 7 !.. . . ~.) {.. . . . . . . . . . . . . . . . . . . . ",
". . . . . . . . . . . . . $ !.5 ! ) ) ) ].. . . . ) ) ) ) ) ) ) 7 ^.3 0 /.. . . . R ) b . . . . . . . . . . . . . . . . . . . . ",
". . . . . . . . . . . . . . . . B !.^.) (.1 . . . ) ) m . . . . . . . . . . . . . _.) 7 &.. . . . . . . . . . . . . . . . . . . ",
". . . . . . % y @ B . . . . . . . . :.) ) <.. . . ) ) m . . . . . . . . . . . . . [.) ) o . . . . . . . . . . ).}.n . . . . . . ",
". . . . . . # ) ) = . . . . . . . . . b ) X . . . ) ) m . . . . . . . . . . . . . . |.) ... . . . . . . . . 1.2.) 3.. . . . . . ",
". . . . . . > 7 ) , . . . . . . . . ; L ) 4.. . . ) ) m . . . . . . . . . . . . . . X ) ' n . . . . . . . . 5.) ) x . . . . . . ",
". . . . . . . D ) ^ /.. . . . . . . 6.) 7 + . . . ) ) m . . . . . . . . . . . . . . E 7.) 8.; . . . . . . 2 '.) 9.. . . . . . . ",
". . . . . . . 0.2.) ^.R E . . . z a.2.) b.. . . . ) ) m . . . . . . . . . . . . . . . c.7 ) D 2 . . . ; _.F ) ^ 0.. . . . . . . ",
". . . . . . . . x f ) ) 8 d.H e.S ) ) f.g.. . . . ) ) m . . . . . . . . . . . . . . . . %.(.) ) e.( h.b ) ) F # . . . . . . . . ",
". . . . . . . . . 1 K +.) ) ) ) 7 i.j.. . . . . . ) ) m . . . . . . . . . . . . . . . . . - k.} ) ) ) ) F l.& . . . . . . . . . ",
". . . . . . . . . . . . & o m.o : . . . . . . . . . . . . . . . . . . . . . . . . . . . . . . ; y Q = n.. . . . . . . . . . . . ",
". . . . . . . . . . . . . . . . . . . . . . . . . . . . . . . . . . . . . . . . . . . . . . . . . . . . . . . . . . . . . . . . ",
". . . . . . . . . . . . . . . . . . . . . . . . . . . . . . . . . . . . . . . . . . . . . . . . . . . . . . . . . . . . . . . . ",
". . . . . . . . . . . . . . . . . . . . . . . . . . . . . . . . . . . . . . . . . . . . . . . . . . . . . . . . . . . . . . . . ",
". . . . . . . . . . . . . . . . . . . . . . . . . . . . . . . . . . . . . . . . . . . . . . . . . . . . . . . . . . . . . . . . ",
". . . . . . . . . . . . . . . . . . . . . . . . . . . . . . . . . . . . . . . . . . . . . . . . . . . . . . . . . . . . . . . . ",
". . . . . . . . . . . . . . . . . . . . . . . . . . . . . . . . . . . . . . . . . . . . . . . . . . . . . . . . . . . . . . . . ",
". . . . . . . . . . . . . . . . . . . . . . . . . . . . . . . . . . . . . . . . . . . . . . . . . . . . . . . . . . . . . . . . ",
". . . . . . . . . . . . . . . . . . . . . . . . . . . . . . . . . . . . . . . . . . . . . . . . . . . . . . . . . . . . . . . . ",
". . . . . . . . . . . . . . . . . . . . . . . . . . . . . . . . . . . . . . . . . . . . . . . . . . . . . . . . . . . . . . . . ",
". . . . . . . . . . . . . . . . . . . . . . . . . . . . . . . . . . . . . . . . . . . . . . . . . . . . . . . . . . . . . . . . ",
". . . . . . . . . . . . . . . . . . . . . . . . . . . . . . . . . . . . . . . . . . . . . . . . . . . . . . . . . . . . . . . . ",
". . . . . . . . . . . . . . . . . . . . . . . . . . . . . . . . . . . . . . . . . . . . . . . . . . . . . . . . . . . . . . . . ",
". . . . . . . . . . . . . . . . . . . . . . . . . . . . . . . . . . . . . . . . . . . . . . . . . . . . . . . . . . . . . . . . ",
". . . . . . . . . . . . . . . . . . . . . . . . . . . . . . . . . . . . . . . . . . . . . . . . . . . . . . . . . . . . . . . . ",
". . . . . . . . . . . . . . . . . . . . . . . . . . . . . . . . . . . . . . . . . . . . . . . . . . . . . . . . . . . . . . . . ",
". . . . . . . . . . . . . . . . . . . . . . . . . . . . . . . . . . . . . . . . . . . . . . . . . . . . . . . . . . . . . . . . ",
". . . . . . . . . . . . . . . . . . . . . . . . . . . . . . . . . . . . . . . . . . . . . . . . . . . . . . . . . . . . . . . . ",
". . . . . . . . . . . . . . . . . . . . . . . . . . . . . . . . . . . . . . . . . . . . . . . . . . . . . . . . . . . . . . . . ",
". . . . . . . . . . . . . . . . . . . . . . . . . . . . . . . . . . . . . . . . . . . . . . . . . . . . . . . . . . . . . . . . ",
". . . . . . . . . . . . . . . . . . . . . . . . . . . . . . . . . . . . . . . . . . . . . . . . . . . . . . . . . . . . . . . . ",
". . . . . . . . . . . . . . . . . . . . . . . . . . . . . . . . . . . . . . . . . . . . . . . . . . . . . . . . . . . . . . . . "};
