/* XPM */
static char * render_dl_componentBuilder_xpm[] = {
"64 64 94 2",
"  	c None",
". 	c #BEBEBE",
"+ 	c #5F5F5F",
"@ 	c #000000",
"# 	c #010101",
"$ 	c #0A0A0A",
"% 	c #252525",
"& 	c #5B5B5B",
"* 	c #AEAEAE",
"= 	c #7A7A7A",
"- 	c #020202",
"; 	c #1D1D1D",
"> 	c #454545",
", 	c #8B8B8B",
"' 	c #121212",
") 	c #9E9E9E",
"! 	c #3C3C3C",
"~ 	c #B6B6B6",
"{ 	c #1C1C1C",
"] 	c #BABABA",
"^ 	c #ABABAB",
"/ 	c #7D7D7D",
"( 	c #141414",
"_ 	c #212121",
": 	c #BCBCBC",
"< 	c #BBBBBB",
"[ 	c #AFAFAF",
"} 	c #929292",
"| 	c #4C4C4C",
"1 	c #333333",
"2 	c #919191",
"3 	c #898989",
"4 	c #7B7B7B",
"5 	c #686868",
"6 	c #0F0F0F",
"7 	c #646464",
"8 	c #4F4F4F",
"9 	c #101010",
"0 	c #B8B8B8",
"a 	c #111111",
"b 	c #696969",
"c 	c #AAAAAA",
"d 	c #838383",
"e 	c #959595",
"f 	c #949494",
"g 	c #272727",
"h 	c #535353",
"i 	c #131313",
"j 	c #353535",
"k 	c #484848",
"l 	c #343434",
"m 	c #4D4D4D",
"n 	c #585858",
"o 	c #222222",
"p 	c #070707",
"q 	c #5A5A5A",
"r 	c #5D5D5D",
"s 	c #1E1E1E",
"t 	c #BDBDBD",
"u 	c #B4B4B4",
"v 	c #989898",
"w 	c #555555",
"x 	c #4E4E4E",
"y 	c #565656",
"z 	c #242424",
"A 	c #A2A2A2",
"B 	c #424242",
"C 	c #363636",
"D 	c #707070",
"E 	c #1F1F1F",
"F 	c #181818",
"G 	c #626262",
"H 	c #A3A3A3",
"I 	c #060606",
"J 	c #737373",
"K 	c #151515",
"L 	c #A6A6A6",
"M 	c #727272",
"N 	c #B9B9B9",
"O 	c #9B9B9B",
"P 	c #505050",
"Q 	c #464646",
"R 	c #ADADAD",
"S 	c #3E3E3E",
"T 	c #303030",
"U 	c #5C5C5C",
"V 	c #050505",
"W 	c #171717",
"X 	c #3D3D3D",
"Y 	c #808080",
"Z 	c #0C0C0C",
"` 	c #262626",
" .	c #515151",
"..	c #969696",
". . . . . . . . . . . . . . . . . . . . . . . . . . . . . . . . . . . . . . . . . . . . . . . . . . . . . . . . . . . . . . . . ",
". . . . . . . . . . . . . . . . . . . . . . . . . . . . . . . . . . . . . . . . . . . . . . . . . . . . . . . . . . . . . . . . ",
". . . . . . . . . . . . . . . . . . . . . . . . . . . . . . . . . . . . . . . . . . . . . . . . . . . . . . . . . . . . . . . . ",
". . . . . . . . . . . . . . . . . . . . . . . . . . . . . . . . . . . . . . . . . . . . . . . . . . . . . . . . . . . . . . . . ",
". . . . . . . . . . . . . . . . . . . . . . . . . . . . . . . . . . . . . . . . . . . . . . . . . . . . . . . . . . . . . . . . ",
". . . . . . . . . . . . . . . . . . . . . . . . . . . . . . . . . . . . . . . . . . . . . . . . . . . . . . . . . . . . . . . . ",
". . . . . . . . . . . . . . . . . . . . . . . . . . . . . . . . . . . . . . . . . . . . . . . . . . . . . . . . . . . . . . . . ",
". . . . . . . . . . . . . . . . . . . . . . . . . . . . . . . . . . . . . . . . . . . . . . . . . . . . . . . . . . . . . . . . ",
". . . . . . . . . . . . . . . . . . . . . . . . . . . . . . . . . . . . . . . . . . . . . . . . . . . . . . . . . . . . . . . . ",
". . . . . . . . . . . . . . . . . . . . . . . . . . . . . . . . . . . . . . . . . . . . . . . . . . . . . . . . . . . . . . . . ",
". . . . . . . . . . . . . . . . . . . . . . . . . . . . . . . . . . . . . . . . . . . . . . . . . . . . . . . . . . . . . . . . ",
". . . . . . . . . . . . . . . . . . . . . . . . . . . . . . . . . . . . . . . . . . . . . . . . . . . . . . . . . . . . . . . . ",
". . . . . . . . . . . . . . . . . . . . . . . . . . . . . . . . . . . . . . . . . . . . . . . . . . . . . . . . . . . . . . . . ",
". . . . . . . . . . . . . . . . . . . . . . . . . . . . . . . . . . . . . . . . . . . . . . . . . . . . . . . . . . . . . . . . ",
". . . . . . . . . . . . . . . . . . . . . . . . . . . . . . . . . . . . . . . . . . . . . . . . . . . . . . . . . . . . . . . . ",
". . . . . . . . . . . . . . . . . . . . . . . . . . . . . . . . . . . . . . . . . . . . . . . . . . . . . . . . . . . . . . . . ",
". . . . . . . . . . . . . . . . . . . . . . . . . . . . . . . . . . . . . . . . . . . . . . . . . . . . . . . . . . . . . . . . ",
". . . . . . . . . . . . . . . . . . . . . . . . . . . . . . . . . . . . . . . . . . . . . . . . . . . . . . . . . . . . . . . . ",
". . . . . . . . . . . . . . . . . . . . . . . . . . . . . . . . . . . . . . . . . . . . . . . . . . . . . . . . . . . . . . . . ",
". . . . . . . . . . . . . . . . . . . . . . . . . . . . . . . . . . . . . . . . . . . . . . . . . . . . . . . . . . . . . . . . ",
". . . . . . . . . . . . . . . . . . . . . . . . . . . . . . . . . . . . . . . . . . . . . . . . . . . . . . . . . . . . . . . . ",
". . . . . . . . . . . . . . . . . . . . . . . . . . . . . . . . . . . . . . . . . . . . . . . . . . . . . . . . . . . . . . . . ",
". . . . . . . . . . . . . . . . . . . . . . . . . . . . . . . . . . . . . . . . . . . . . . . . . . . . . . . . . . . . . . . . ",
". . . . . . . . + @ @ @ @ @ @ # $ % & * . . . . . . @ @ = . . . . . . . . . . . + @ @ @ @ @ @ - $ ; > , . . . . . . . . . . . . ",
". . . . . . . . + @ @ @ @ @ @ @ @ @ @ ' ) . . . . . @ @ = . . . . . . . . . . . + @ @ @ @ @ @ @ @ @ @ @ ! ~ . . . . . . . . . . ",
". . . . . . . . + @ { . . . . ] ^ / ( @ _ : . . . . @ @ = . . . . . . . . . . . + @ { . . . . < [ } | # @ 1 : . . . . . . . . . ",
". . . . . . . . + @ { . . . . . . . 2 @ @ 3 . . . . @ @ = . . . . . . . . . . . + @ { . . . . . . . . 4 # @ 5 . . . . . . . . . ",
". . . . . . . . + @ { . . . . . . . . 6 @ 7 . . . . @ @ = . . . . . . . . . . . + @ { . . . . . . . . . 8 @ 9 0 . . . . . . . . ",
". . . . . . . . + @ { . . . . . . . . a @ b . . . . @ @ = . . . . . . . . . . . + @ { . . . . . . . . . c - @ d . . . . . . . . ",
". . . . . . . . + @ { . . . . . . . e @ @ f . . . . @ @ = . . . . . . . . . . . + @ { . . . . . . . . . . g @ h . . . . . . . . ",
". . . . . . . . + @ { . . . . < * = i @ j . . . . . @ @ = . . . . . . . . . . . + @ { . . . . . . . . . . k @ l . . . . . . . . ",
". . . . . . . . + @ @ @ @ @ @ @ @ @ @ m ~ . . . . . @ @ = . . . . . . . . . . . + @ { . . . . . . . . . . n @ o . . . . . . . . ",
". . . . . . . . + @ @ @ @ @ @ @ @ @ @ p q ] . . . . @ @ = . . . . . . . . . . . + @ { . . . . . . . . . . r @ s . . . . . . . . ",
". . . . . . . . + @ { . . . . t u v w - @ x . . . . @ @ = . . . . . . . . . . . + @ { . . . . . . . . . . y @ z . . . . . . . . ",
". . . . . . . . + @ { . . . . . . . . 5 @ # A . . . @ @ = . . . . . . . . . . . + @ { . . . . . . . . . . B @ C . . . . . . . . ",
". . . . . . . . + @ { . . . . . . . . 0 p @ D . . . @ @ = . . . . . . . . . . . + @ { . . . . . . . . . . E @ n . . . . . . . . ",
". . . . . . . . + @ { . . . . . . . . . F @ G . . . @ @ = . . . . . . . . . . . + @ { . . . . . . . . . H @ @ , . . . . . . . . ",
". . . . . . . . + @ { . . . . . . . . ~ I @ J . . . @ @ = . . . . . . . . . . . + @ { . . . . . . . . . | @ K < . . . . . . . . ",
". . . . . . . . + @ { . . . . . . . . G @ # L . . . @ @ = . . . . . . . . . . . + @ { . . . . . . . . / # @ M . . . . . . . . . ",
". . . . . . . . + @ { . . . . . N O P @ @ Q . . . . @ @ = . . . . . . . . . . . + @ { . . . . < R , B @ @ S t . . . . . . . . . ",
". . . . . . . . + @ @ @ @ @ @ @ @ @ @ @ T u . . . . @ @ @ @ @ @ @ @ @ @ @ U . . + @ @ @ @ @ @ @ @ @ @ @ k N . . . . . . . . . . ",
". . . . . . . . + @ @ @ @ @ @ @ V W X Y t . . . . . @ @ @ @ @ @ @ @ @ @ @ U . . + @ @ @ @ @ @ - Z `  .... . . . . . . . . . . . ",
". . . . . . . . . . . . . . . . . . . . . . . . . . . . . . . . . . . . . . . . . . . . . . . . . . . . . . . . . . . . . . . . ",
". . . . . . . . . . . . . . . . . . . . . . . . . . . . . . . . . . . . . . . . . . . . . . . . . . . . . . . . . . . . . . . . ",
". . . . . . . . . . . . . . . . . . . . . . . . . . . . . . . . . . . . . . . . . . . . . . . . . . . . . . . . . . . . . . . . ",
". . . . . . . . . . . . . . . . . . . . . . . . . . . . . . . . . . . . . . . . . . . . . . . . . . . . . . . . . . . . . . . . ",
". . . . . . . . . . . . . . . . . . . . . . . . . . . . . . . . . . . . . . . . . . . . . . . . . . . . . . . . . . . . . . . . ",
". . . . . . . . . . . . . . . . . . . . . . . . . . . . . . . . . . . . . . . . . . . . . . . . . . . . . . . . . . . . . . . . ",
". . . . . . . . . . . . . . . . . . . . . . . . . . . . . . . . . . . . . . . . . . . . . . . . . . . . . . . . . . . . . . . . ",
". . . . . . . . . . . . . . . . . . . . . . . . . . . . . . . . . . . . . . . . . . . . . . . . . . . . . . . . . . . . . . . . ",
". . . . . . . . . . . . . . . . . . . . . . . . . . . . . . . . . . . . . . . . . . . . . . . . . . . . . . . . . . . . . . . . ",
". . . . . . . . . . . . . . . . . . . . . . . . . . . . . . . . . . . . . . . . . . . . . . . . . . . . . . . . . . . . . . . . ",
". . . . . . . . . . . . . . . . . . . . . . . . . . . . . . . . . . . . . . . . . . . . . . . . . . . . . . . . . . . . . . . . ",
". . . . . . . . . . . . . . . . . . . . . . . . . . . . . . . . . . . . . . . . . . . . . . . . . . . . . . . . . . . . . . . . ",
". . . . . . . . . . . . . . . . . . . . . . . . . . . . . . . . . . . . . . . . . . . . . . . . . . . . . . . . . . . . . . . . ",
". . . . . . . . . . . . . . . . . . . . . . . . . . . . . . . . . . . . . . . . . . . . . . . . . . . . . . . . . . . . . . . . ",
". . . . . . . . . . . . . . . . . . . . . . . . . . . . . . . . . . . . . . . . . . . . . . . . . . . . . . . . . . . . . . . . ",
". . . . . . . . . . . . . . . . . . . . . . . . . . . . . . . . . . . . . . . . . . . . . . . . . . . . . . . . . . . . . . . . ",
". . . . . . . . . . . . . . . . . . . . . . . . . . . . . . . . . . . . . . . . . . . . . . . . . . . . . . . . . . . . . . . . ",
". . . . . . . . . . . . . . . . . . . . . . . . . . . . . . . . . . . . . . . . . . . . . . . . . . . . . . . . . . . . . . . . ",
". . . . . . . . . . . . . . . . . . . . . . . . . . . . . . . . . . . . . . . . . . . . . . . . . . . . . . . . . . . . . . . . ",
". . . . . . . . . . . . . . . . . . . . . . . . . . . . . . . . . . . . . . . . . . . . . . . . . . . . . . . . . . . . . . . . ",
". . . . . . . . . . . . . . . . . . . . . . . . . . . . . . . . . . . . . . . . . . . . . . . . . . . . . . . . . . . . . . . . ",
". . . . . . . . . . . . . . . . . . . . . . . . . . . . . . . . . . . . . . . . . . . . . . . . . . . . . . . . . . . . . . . . "};
