/* XPM */
static char * render_dl_externFloat_xpm[] = {
"32 32 12 1",
" 	c None",
".	c #BFBFBF",
"+	c #FFFFFF",
"@	c #E2E2E2",
"#	c #EFEFEF",
"$	c #F6F6F6",
"%	c #D3D3D3",
"&	c #C9C9C9",
"*	c #CECECE",
"=	c #F3F3F3",
"-	c #F2F2F2",
";	c #CFCFCF",
"................................",
"................................",
"................................",
"................................",
"................................",
"................................",
"................................",
"................................",
".....++++++++++@..+++++++++#....",
".....++++++++++@..+++++++++#....",
".....++$%%%%%%%&..++$%%%%%%*....",
".....++=..........++=...........",
".....++=..........++=...........",
".....++=..........++=...........",
".....++++++++++...++++++++-.....",
".....++++++++++...++++++++-.....",
".....++$%%%%%%%...++$%%%%%*.....",
".....++=..........++=...........",
".....++=..........++=...........",
".....++=..........++=...........",
".....++$%%%%%%%;..++=...........",
".....++++++++++=..++=...........",
".....++++++++++=..++=...........",
"................................",
"................................",
"................................",
"................................",
"................................",
"................................",
"................................",
"................................",
"................................"};
