/* XPM */
static char * render_dl_refraction_xpm[] = {
"64 64 71 1",
" 	c None",
".	c #BEBEBE",
"+	c #000000",
"@	c #020202",
"#	c #090909",
"$	c #1D1D1D",
"%	c #454545",
"&	c #929292",
"*	c #5F5F5F",
"=	c #0A0A0A",
"-	c #0B0B0B",
";	c #121212",
">	c #101010",
",	c #040404",
"'	c #010101",
")	c #6D6D6D",
"!	c #7B7B7B",
"~	c #BABABA",
"{	c #8F8F8F",
"]	c #252525",
"^	c #030303",
"/	c #9E9E9E",
"(	c #1C1C1C",
"_	c #B2B2B2",
":	c #111111",
"<	c #4F4F4F",
"[	c #4E4E4E",
"}	c #272727",
"|	c #595959",
"1	c #212121",
"2	c #2A2A2A",
"3	c #3B3B3B",
"4	c #BDBDBD",
"5	c #636363",
"6	c #7C7C7C",
"7	c #494949",
"8	c #707070",
"9	c #6C6C6C",
"0	c #585858",
"a	c #242424",
"b	c #383838",
"c	c #0E0E0E",
"d	c #868686",
"e	c #606060",
"f	c #3E3E3E",
"g	c #5E5E5E",
"h	c #505050",
"i	c #141414",
"j	c #050505",
"k	c #696969",
"l	c #BCBCBC",
"m	c #B7B7B7",
"n	c #414141",
"o	c #676767",
"p	c #2D2D2D",
"q	c #818181",
"r	c #A8A8A8",
"s	c #0C0C0C",
"t	c #0D0D0D",
"u	c #ACACAC",
"v	c #767676",
"w	c #434343",
"x	c #313131",
"y	c #8E8E8E",
"z	c #A0A0A0",
"A	c #1F1F1F",
"B	c #5A5A5A",
"C	c #666666",
"D	c #B6B6B6",
"E	c #181818",
"F	c #080808",
"................................................................",
"................................................................",
"................................................................",
"................................................................",
"................................................................",
"................................................................",
"................................................................",
"................................................................",
"................................................................",
"................................................................",
"................................................................",
"................................................................",
"................................................................",
"................................................................",
"................................................................",
"................................................................",
"................................................................",
"................................................................",
"................................................................",
"................................................................",
"................................................................",
"................................................................",
"................................................................",
".........++++++++@#$%&.....*+++++++++++=...++++++++@#$%&........",
".........++-;;;;;>,++')....*+++++++++++=...++-;;;;;>,++').......",
".........++!......~{]+^/...*+(.............++!......~{]+^/......",
".........++!........_:+<...*+(.............++!........_:+<......",
".........++!.........[+}...*+(.............++!.........[+}......",
".........++!.........|+1...*+(.............++!.........|+1......",
".........++!.........2+3...*+(.............++!.........2+3......",
".........++!.......45++6...*+(.............++!.......45++6......",
".........++78888890a++b4...*+c********d....++78888890a++b4......",
".........+++++++++++>e~....*++++++++++[....+++++++++++>e~.......",
".........++f**ghi+jkl......*+c********d....++f**ghi+jkl.........",
".........++!....mn++o......*+(.............++!....mn++o.........",
".........++!.....~p+'q.....*+(.............++!.....~p+'q........",
".........++!......rs+tu....*+(.............++!......rs+tu.......",
".........++!.......v++w....*+(.............++!.......v++w.......",
".........++!........x++y...*+(.............++!........x++y......",
".........++!........z,+A~..*+(.............++!........z,+A~.....",
".........++!.........B++C..*+(.............++!.........B++C.....",
".........++!.........DE+Fr.*+(.............++!.........DE+Fr....",
"................................................................",
"................................................................",
"................................................................",
"................................................................",
"................................................................",
"................................................................",
"................................................................",
"................................................................",
"................................................................",
"................................................................",
"................................................................",
"................................................................",
"................................................................",
"................................................................",
"................................................................",
"................................................................",
"................................................................",
"................................................................",
"................................................................",
"................................................................",
"................................................................",
"................................................................"};
