/* XPM */
static char * render_dl_attributeColor_xpm[] = {
"32 32 41 1",
" 	c None",
".	c #6E6E6E",
"+	c #5A5A5A",
"@	c #000000",
"#	c #4C4C4C",
"$	c #666666",
"%	c #555555",
"&	c #404040",
"*	c #2D2D2D",
"=	c #535353",
"-	c #646464",
";	c #6D6D6D",
">	c #3D3D3D",
",	c #686868",
"'	c #595959",
")	c #525252",
"!	c #5B5B5B",
"~	c #5D5D5D",
"{	c #494949",
"]	c #616161",
"^	c #656565",
"/	c #5E5E5E",
"(	c #393939",
"_	c #545454",
":	c #6A6A6A",
"<	c #4D4D4D",
"[	c #6C6C6C",
"}	c #6B6B6B",
"|	c #5C5C5C",
"1	c #676767",
"2	c #606060",
"3	c #696969",
"4	c #4E4E4E",
"5	c #353535",
"6	c #4A4A4A",
"7	c #575757",
"8	c #5F5F5F",
"9	c #474747",
"0	c #434343",
"a	c #636363",
"b	c #505050",
"................................",
"................................",
"................................",
"................................",
"................................",
"................................",
"................................",
"................................",
".......+@@#.........$%&*&=-.....",
"......;>@@@,.......'@@@@@@@);...",
"......-@@@@!......~@@{]^/(@@+...",
"......_@*&@>;....:@@<;...,*@*[..",
".....}*@_|@@-....~@@1.....||^;..",
".....2@@-3@@=....4@5............",
".....6@5;.6@@}...&@{............",
"....,@@7..2@@8...*@#............",
"....|@@$..}@@9...>@{............",
"...;&@@@@@@@@@1..#@*......,:....",
"...^@@@@@@@@@@'..|@@1.....<@6}..",
"...%@@|888885@5;.3@@4;...-@@0...",
"..[*@0......7@@a..|@@6]^|*@@a...",
"..]@@|......$@@b...'@@@@@@@!....",
"..<@@,......;>@@:...$%&*&%$.....",
"................................",
"................................",
"................................",
"................................",
"................................",
"................................",
"................................",
"................................",
"................................"};
