/* XPM */
static char * render_dl_externColor_xpm[] = {
"32 32 44 1",
" 	c None",
".	c #BFBFBF",
"+	c #FFFFFF",
"@	c #E2E2E2",
"#	c #D1D1D1",
"$	c #EBEBEB",
"%	c #F9F9F9",
"&	c #FEFEFE",
"*	c #FAFAFA",
"=	c #EEEEEE",
"-	c #D7D7D7",
";	c #C0C0C0",
">	c #E7E7E7",
",	c #EFEFEF",
"'	c #C2C2C2",
")	c #F6F6F6",
"!	c #D3D3D3",
"~	c #C9C9C9",
"{	c #F5F5F5",
"]	c #DBDBDB",
"^	c #D4D4D4",
"/	c #E0E0E0",
"(	c #FCFCFC",
"_	c #E5E5E5",
":	c #F3F3F3",
"<	c #F2F2F2",
"[	c #CDCDCD",
"}	c #FDFDFD",
"|	c #C3C3C3",
"1	c #D0D0D0",
"2	c #E3E3E3",
"3	c #C1C1C1",
"4	c #F1F1F1",
"5	c #FBFBFB",
"6	c #CECECE",
"7	c #E4E4E4",
"8	c #F4F4F4",
"9	c #C7C7C7",
"0	c #CACACA",
"a	c #D5D5D5",
"b	c #CFCFCF",
"c	c #DADADA",
"d	c #D9D9D9",
"e	c #ECECEC",
"................................",
"................................",
"................................",
"................................",
"................................",
"................................",
"................................",
"................................",
"....++++++++++@.....#$%&*=-.....",
"....++++++++++@...;>+++++++,'...",
"....++)!!!!!!!~...@++{]^/(++_...",
"....++:..........~&+<'...[&+}|..",
"....++:..........@++1.....22!3..",
"....++:..........4+}............",
"....++++++++++...*+{............",
"....++++++++++...}+:............",
"....++)!!!!!!!...5+)............",
"....++:..........:+};.....6~....",
"....++:..........7++1.....<+89..",
"....++:..........0++<3...a++%;..",
"....++)!!!!!!!b...7++{c^2}++d...",
"....++++++++++:...;>+++++++7....",
"....++++++++++:.....#$%}%e#.....",
"................................",
"................................",
"................................",
"................................",
"................................",
"................................",
"................................",
"................................",
"................................"};
