/* XPM */
static char *dummy[]={
"32 32 293 2",
"#5 c #000000",
"aQ c #030303",
"#p c #0a0800",
"b8 c #0b0900",
"cq c #110d00",
"cv c #111111",
"#2 c #141000",
"bf c #161100",
"bZ c #171700",
"aF c #1d1700",
".I c #1e1e1b",
"ac c #22221d",
"cA c #232323",
"cn c #251e00",
".P c #282821",
"ag c #292100",
"be c #2a2200",
"#7 c #2a2920",
"bv c #2a2a00",
"cu c #2e2e00",
".w c #2e2e2e",
"bi c #302700",
"bz c #322900",
"aA c #323232",
".F c #333232",
".2 c #343434",
"#S c #362d00",
"cj c #363400",
"a7 c #373015",
"cr c #373323",
"aY c #392e00",
"ar c #393939",
"cD c #3a3a23",
".k c #3a3a3a",
"bw c #3b2f00",
"aO c #3b3b3b",
"cI c #3c3100",
"cc c #3e3200",
"b6 c #413500",
"ax c #413f29",
".o c #414250",
"bP c #423500",
"bn c #423e00",
".4 c #43402a",
"bC c #454500",
".u c #454545",
"ci c #463800",
"aC c #464646",
"bW c #473a00",
".z c #48441c",
"cs c #484434",
"aT c #484955",
"ce c #493b00",
"au c #4a482c",
"cd c #4b3d00",
"bK c #4b3f11",
".C c #4b4a32",
"#l c #4b4c5b",
"aU c #4c4d56",
".9 c #4f4d27",
"#f c #4f505a",
"#w c #4f505c",
"bL c #524200",
"a0 c #534300",
"#D c #544400",
"aS c #544f3f",
"aD c #554400",
"aX c #554500",
"ai c #554700",
"ay c #555560",
"aE c #564500",
"ch c #564c23",
"aw c #575008",
"cy c #575711",
"ae c #575757",
"at c #575761",
"ba c #584700",
".D c #585964",
"#k c #595308",
"aP c #59543f",
"#N c #595633",
"#K c #5b5a2f",
"ah c #5c4f00",
"aR c #5c5227",
"bQ c #5c5c00",
"#W c #5c5d62",
".y c #5d5d64",
"#g c #605908",
"#P c #615f57",
"#x c #625c0a",
"#E c #635000",
"bU c #635311",
"## c #635c34",
"av c #635d08",
"cE c #636334",
".p c #636471",
".S c #63656d",
"cx c #645100",
"#F c #645400",
"bt c #646464",
".0 c #646568",
"cH c #655100",
"bX c #655200",
".A c #655e0b",
"#A c #655e10",
".B c #666012",
"bA c #675300",
"#q c #675700",
"cl c #686023",
"bh c #695500",
"cF c #696969",
"#6 c #69696c",
"#0 c #696a6f",
"bb c #6a6a6a",
".x c #6a6a6e",
"#m c #6b6b6b",
"cm c #6c6546",
"ad c #6c6d71",
"#t c #6e6b57",
"b7 c #6f5a00",
"#e c #6f6f6f",
"#Q c #705b00",
"#B c #707070",
".E c #707072",
"#R c #715b00",
".b c #717171",
"af c #725c00",
"#n c #727272",
"#c c #736300",
"cB c #737300",
".c c #737373",
"bM c #745e00",
"bV c #746e57",
"bu c #747474",
"as c #747478",
"aZ c #755f00",
".g c #757575",
"cb c #765f00",
"az c #77777a",
"bg c #7a6200",
"bY c #7a6300",
"#I c #7a7034",
".t c #7a7a7a",
"aG c #7b6300",
"aq c #7b7973",
".l c #7b7b7b",
"bI c #7c6400",
"aB c #7c7c7c",
".v c #7d7d7d",
"#V c #7f7223",
"#d c #807d69",
"#v c #808080",
".Z c #827a05",
".Q c #838386",
".T c #847c07",
"cp c #847e69",
"a8 c #848343",
"#8 c #857c02",
".G c #858585",
"bx c #866c00",
"ab c #877d00",
"bN c #886e00",
".O c #888006",
".H c #88888a",
"by c #8a6f00",
".h c #8a8a8a",
"bj c #8b7100",
"#4 c #8b7700",
"b5 c #8b887a",
"c. c #8b8b00",
".1 c #8c8c8c",
"bO c #8d7200",
"bB c #8e7200",
"aj c #8e7300",
"#Z c #8e8300",
"b# c #8f7400",
"#X c #918603",
"al c #927600",
".J c #938804",
".a c #939393",
".# c #959595",
"#o c #999999",
"bm c #9a7c00",
".q c #9b9b9e",
"bc c #9c9c9c",
".e c #9d9d9d",
".j c #9e9e9e",
"bJ c #9f9f9f",
"#C c #a0a0a0",
"cz c #a18200",
"#a c #a28a00",
"#3 c #a28b00",
"co c #a2a200",
".n c #a2a2a3",
"aV c #a3a3a4",
"#. c #a5a6aa",
"ak c #a68600",
"aN c #a6923d",
".3 c #a7a7a8",
"ct c #a8a69d",
"#J c #ababad",
"#u c #afafaf",
"#O c #b1b1b2",
"a1 c #b29000",
"cw c #b59200",
".d c #b5b5b5",
"a6 c #b89500",
".r c #b8b8b8",
"#s c #b99e00",
"#G c #b99f00",
"b0 c #b9b900",
".i c #b9b9b9",
".m c #b9b9ba",
"b. c #ba9700",
"aW c #bababa",
"aH c #bb9700",
"bd c #bbbbbb",
".f c #bdbdbd",
".R c #bebebe",
"#1 c #bebebf",
".s c #c0c0c0",
"Qt c #c1c1c1",
"b4 c #c39e00",
"bk c #c49e00",
"bs c #c59f00",
"bH c #c8a100",
"cC c #c9a200",
"cG c #c9a300",
"ap c #c9bd8c",
"a2 c #cba400",
"ao c #cbbf8c",
"bl c #cea700",
"cg c #ceac00",
"#H c #d0b300",
"b9 c #d0d000",
"a3 c #d1a900",
"an c #d2bd69",
".N c #d3c903",
"aa c #d3ca00",
"#9 c #d4c500",
"aI c #d7ae00",
"am c #d8bc46",
"a4 c #d9b000",
"#M c #d9cb00",
"aJ c #dbb100",
"a5 c #ddb300",
"#L c #ddce00",
"bT c #deb300",
"bG c #dfb400",
".8 c #dfd000",
".5 c #e0d103",
"aK c #e1b600",
"b3 c #e3b700",
"aL c #e4b800",
".K c #e4d906",
"aM c #e6ba00",
"a9 c #e6c900",
"#r c #e7c600",
"#U c #e7c700",
"ck c #e7e100",
"bo c #e7e700",
"br c #e8bb00",
"a# c #f4e300",
"ca c #f5c900",
"#j c #fae900",
"a. c #faeb00",
"bS c #fbd000",
"#z c #fcea00",
"#y c #fceb01",
"#h c #fceb02",
"b2 c #fdda00",
"bq c #fddb00",
"bF c #fedb00",
".M c #feec00",
"#b c #ffda00",
"#T c #ffdb00",
"c# c #ffe400",
".7 c #ffee00",
".W c #fff000",
".L c #fff100",
"#i c #fff200",
"#Y c #fff300",
"cf c #fff500",
".Y c #fff600",
".V c #fff700",
".6 c #fff800",
".U c #fff900",
".X c #fffa00",
"bE c #fffb00",
"bR c #fffc00",
"bp c #fffd00",
"b1 c #fffe00",
"bD c #ffff00",
"QtQtQtQtQtQtQtQtQtQtQtQtQtQtQtQtQtQtQtQtQtQt.#.aQtQtQtQtQtQtQtQt",
"QtQtQtQtQtQtQtQtQtQtQtQtQtQtQtQtQtQtQtQtQtQt.b.cQtQtQtQtQtQtQtQt",
"QtQtQtQtQtQtQtQtQtQtQtQtQtQtQtQt.d.e.fQtQtQt.g.hQtQtQtQt.a.iQtQt",
"QtQtQtQtQtQtQtQtQtQtQtQtQtQtQtQt.j.k.lQt.m.n.o.p.q.r.s.t.u.eQtQt",
"QtQtQtQtQtQtQtQtQtQtQtQtQtQtQtQt.s.v.w.x.y.z.A.B.C.D.E.F.GQtQtQt",
"QtQtQtQtQtQtQtQtQtQtQtQtQtQtQtQtQt.s.H.I.J.K.L.M.N.O.P.Q.sQtQtQt",
"QtQtQtQtQtQtQtQtQtQtQtQtQtQtQtQtQt.R.S.T.U.V.W.L.X.Y.Z.0.fQtQtQt",
"QtQtQt.1.2.eQtQtQtQtQtQtQtQtQtQtQt.3.4.5.6.7.7.7.7.6.8.9#.QtQtQt",
"Qt.t###a#b#c#dQtQtQtQtQtQtQt.a#e.g#f#g#h#i.7.7.7.7#i#j#k#l#m#n#o",
"Qt#p#q#r#b#b#s#t#uQtQtQtQtQt.e.l#v#w#x#y#i.7.7.7.7.L#z#A#w.b#B#C",
".1#D#E#F#G#b#b#H#I#uQtQtQtQtQtQtQt#J#K#L.Y.7.7.7.7.U#M#N#OQtQtQt",
"#P#Q#R#R#S#G#T#T#U#V.eQtQtQtQtQtQt.r#W#X.Y.V#i#Y.X.6#Z#0#1QtQtQt",
"#P#D#R#R#E#2#3#T#T#4#5.eQtQtQtQtQt.R#6#7#8#9a.a#aaabacad.sQtQtQt",
"Qtae#D#RafafagahaiajakalamanaoaoapaqarasatauavawaxayazaAaB.fQtQt",
"QtQtaCaDafafaEaFaGaHaIaJaKaLaLaMaNaOaPaQaRaSaTaUaVaW.R#vaO#oQtQt",
"QtQtQtaCaXafaYaDaZa0a1a2a3a4a5a6a7a8a9b.b#babb.tQtQtQt.sbcbdQtQt",
"QtQtQtQtaCbebfa0bgbhbibjbkblbmbnbobpbqbrbsajbtbuQtQtQtQtQtQtQtQt",
"QtQtQtQtQtaCbvbw#EbxbybzbAbBbCbDbDbEbFbGbHbI.1bJQtQtQtQtQtQtQtQt",
"QtQtQtQtQtQt.tbKbLbMbNbObPbQbDbDbDbRbSbTbsbUQtQtQtQtQtQtQtQtQtQt",
"QtQtQtQtQtQtQtbVbWbXbYafbCbZb0bDbDb1b2b3b4aeQtQtQtQtQtQtQtQtQtQt",
"QtQtQtQtQtQtQtb5b6a0b7b8b9bobQc.bDbDc#cacb.eQtQtQtQtQtQtQtQtQtQt",
"QtQtQtQtQtQtQtQtcccdcec.bDbDb9bZc.bDcfcgaeQtQtQtQtQtQtQtQtQtQtQt",
"QtQtQtQtQtQtQtQtchcicjbDbDbDbDbDbQc.ckclQtQtQtQtQtQtQtQtQtQtQtQt",
"QtQtQtQtQtQtQtQtcmcncobDbDbDbDbDbobQ#5.1Qt#u#uQtQtQtQtQtQtQtQtQt",
"QtQtQtQtQtQtQtQtcpcqbDbDbDbDbDbDbDbQaCae.ecrcs#uQtQtQtQtQtQtQtQt",
"QtQtQtQtQtQtQtQtctcubDbDbDbDbDbDbC.tQt.1cvcwcx.tQtQtQtQtQtQtQtQt",
"QtQtQtQtQtQtQtQtQtbZbobDbDbDbDcy.1QtQtaCcza5a5#2.1QtQtQtQtQtQtQt",
"QtQtQtQtQtQtQtQt#ucAb0bDbocBaeQtQtQt.ecAcxcCa5cwcr#uQtQtQtQtQtQt",
"QtQtQtQtQtQtQtQtQt.tcDcEcF.eQtQtQtQtQtQtcFcAcxcGbOaCQtQtQtQtQtQt",
"QtQtQtQtQtQtQtQtQtQtQtQtQtQtQtQtQtQtQtQtQtQt.1cAcHcI.eQtQtQtQtQt",
"QtQtQtQtQtQtQtQtQtQtQtQtQtQtQtQtQtQtQtQtQtQtQtQtcFcAcv#uQtQtQtQt",
"QtQtQtQtQtQtQtQtQtQtQtQtQtQtQtQtQtQtQtQtQtQtQtQtQtQtaeaeQtQtQtQt"};
