/* XPM */
static char *dummy[]={
"32 32 15 1",
"e c #2d2d2d",
"d c #494949",
"c c #565656",
"# c #696969",
"b c #767676",
"a c #808080",
"f c #8b8c8c",
". c #9a9a9a",
"g c #a1a1a1",
"k c #ababab",
"j c #b7b8b8",
"h c #bfc0c0",
"m c #c5c5c5",
"i c #d4d4d4",
"l c #e8e8e8",
"................................",
".#ab#acdeee#b#bbcceeeeeeeedcdce.",
".#aeeddeecbfg.ba.ceeeedeeeedbce.",
".c#eee#eecfhijk#eee#bca#eedcaee.",
".#ceeecd#agiligceeedf.fceecbfde.",
".eccd#eedajli.a#eeedfhfceecfg#d.",
".eebfbdecfhij#eeeddb..jf##fkbee.",
".edajf##a.gmkdeeeea.babaf#c#aee.",
".##fjhj.#b..g#eeeebfacdcceee#ce.",
"...jilkf#af#afced#fkfcdcceeec.#.",
".c#aklmk..##bbfa#bfj.##bbdedbf#.",
".ee#fmijkgab#cbccd#.j.gac#af..#.",
".de#.ijfbf.ceedeeecfhhfceecbbab.",
".ee#gijf#bfeeedeed#.ghaceeca###.",
".eec.mjgba.#eec#cb#c#gabccbf##f.",
".ee#.hg.gkkfaa...ceecadecf.kaff.",
".ced#..gjjbced##adeed#eee##akjg.",
".eeec##.ff#eeeeec#eed#eeeddcfmk.",
".eee#ccac#bdeeeeeceeeaceceec..f.",
".ecbf##bee##ddeed#dd#.abdd#a#cc.",
".ca#af.fde#bcc###ga##akbccabded.",
".g#d#.##aba.ab..gja##ah.afg#eec.",
".af#a#eedfjf##akimkffkkbccbacce.",
".##..deee#ff#cbk.f.mij.#eecgfee.",
".c#f.ceeeb#bg.jbddc..#c#cd#ffde.",
".##.bace#f#bg.gceed##eeeabacdde.",
".aaced#d#fa.fa.ceedc#eee#k#eeed.",
".cbeeecafkjj..k#cc#cbeee#k#eeed.",
".edeeecc#akijjmgfceed#dca##cdce.",
".eebcddee#khkkj.fceee#g.deec.ce.",
"................................",
"................................"};
