/* XPM */
static char *render_projection[] = {
/* width height num_colors chars_per_pixel */
"    32    32      153            2",
/* colors */
"`` c #040004",
"`. c #080408",
"`# c #100c10",
"`a c #101010",
"`b c #042804",
"`c c #381838",
"`d c #282428",
"`e c #382834",
"`f c #3c2c38",
"`g c #343434",
"`h c #3c343c",
"`i c #004800",
"`j c #147114",
"`k c #385038",
"`l c #247520",
"`m c #2c7928",
"`n c #441844",
"`o c #4c244c",
"`p c #403840",
"`q c #443844",
"`r c #593459",
"`s c #692c69",
"`t c #444444",
"`u c #4c404c",
"`v c #484848",
"`w c #594859",
"`x c #555555",
"`y c #595959",
"`z c #654465",
"`A c #656565",
"`B c #696969",
"`C c #79697d",
"`D c #757575",
"`E c #7d7181",
"`F c #048504",
"`G c #049104",
"`H c #148114",
"`I c #04a104",
"`J c #08a108",
"`K c #0ca10c",
"`L c #00b600",
"`M c #08b608",
"`N c #0cb60c",
"`O c #14aa18",
"`P c #10b610",
"`Q c #2c992c",
"`R c #388938",
"`S c #309d30",
"`T c #389d38",
"`U c #28a128",
"`V c #30ae30",
"`W c #00ca00",
"`X c #04ca04",
"`Y c #08ca08",
"`Z c #00da00",
"`0 c #04da04",
"`1 c #10da10",
"`2 c #00e600",
"`3 c #04e604",
"`4 c #00f600",
"`5 c #4caa4c",
"`6 c #50aa50",
"`7 c #7d9d7d",
"`8 c #61a561",
".` c #65a565",
".. c #65ae65",
".# c #6daa6d",
".a c #6dbe6d",
".b c #79b279",
".c c #7d8181",
".d c #79a581",
".e c #8d7d8d",
".f c #916591",
".g c #818585",
".h c #898989",
".i c #89998d",
".j c #959599",
".k c #999999",
".l c #9d9d9d",
".m c #9999a1",
".n c #9d9da5",
".o c #89a189",
".p c #95a199",
".q c #95aa99",
".r c #9da59d",
".s c #ae85b6",
".t c #a59da5",
".u c #aa9dae",
".v c #a1a1a5",
".w c #a5a1a5",
".x c #a1a5aa",
".y c #a5a1aa",
".z c #a5a5ae",
".A c #a5aaaa",
".B c #a5aaae",
".C c #aaa5aa",
".D c #aaaaaa",
".E c #aaaaae",
".F c #aaaeae",
".G c #aeaeae",
".H c #aea5b2",
".I c #aeaeb2",
".J c #aeb2b6",
".K c #b6aeba",
".L c #baaabe",
".M c #b2b2b2",
".N c #b2b2b6",
".O c #b2b6b6",
".P c #b6beb6",
".Q c #b6baba",
".R c #bababa",
".S c #bebebe",
".T c #beb2c2",
".U c #babec2",
".V c #bebec2",
".W c #bec2c2",
".X c #c2bec6",
".Y c #c6bec6",
".Z c #cabaca",
".0 c #cabece",
".1 c #cebece",
".2 c #ceb6d2",
".3 c #c1c1c1",
".4 c #c2c2c6",
".5 c #c6c2c6",
".6 c #c6c6c6",
".7 c #c6c2ca",
".8 c #c6c6ca",
"#` c #c6c6ce",
"#. c #cac2ce",
"## c #cac6ca",
"#a c #cec2ce",
"#b c #cacaca",
"#c c #cacace",
"#d c #cacece",
"#e c #cecece",
"#f c #cec2d2",
"#g c #cec6d2",
"#h c #cacad2",
"#i c #ceced2",
"#j c #ced2d2",
"#k c #d2c2d6",
"#l c #d2d2d6",
"#m c #d6d6d6",
"#n c #d2d2da",
"#o c #d6d2da",
"#p c #d6dada",
"#q c #dee2e2",
"#r c #fad6ff",
"#s c #e2e2e6",
"#t c #eae2f2",
"#u c #f2f2ee",
"#v c #f6f6f6",
/* pixels */
".3.3.3.3.3.3.3.3.3.3.3.3.3.3.3.3.3.3.3.3.3.3.3.3.3.3.3.3.3.3.3.3",
".3.3.3.3.3.3.3.3.3.3.3.3.3.3.3.3.3.3.3.3.3.3.3.3.3.3.3.3.3.3.3.3",
".3.3.3.3.4#b.6.3.3.3.3.3.3.3.3.3.3.3.3.3.3.3.3.3.3.3.3.3.3.3.3.3",
".3.3.3.3.4.v.x.U.8#b.3.3.3.3.3.3.3.3.3.3.3.3.3.3.3.3.3.3.3.3.3.3",
".3.3.3.3.W.v#m.M.M.M#p#i.4.3.3.3.3.3.3.3.3.3.3.3.3.3.3.3.3.3.3.3",
".3.3.3.3.6.m#v#v#v```a.g#d#d#b.6.3.3.3.3.3.3.3.3.3.3.3.3.3.3.3.3",
".3.3.3.3.6.m#v#v#v`````````D.M.B.V.8.4.3.3.3.3.3.3.3.3.3.3.3.3.3",
".3.3.3.3.6.m#v#v#v`````````A#v#j.F.G.V.4.3.4.O.5##.3.3.3.3.3.3.3",
".3.3.3.3.4.A#v#v#v`````````t#v#v#v#v.n.6.3.4`g`f`m.o.X.5.5.3.3.3",
".3.3.3.3.6`D#q#v#v`d```````t#v#v#v#v.n.6.3.8`p`w`L`Z`N`V.`.p.4.3",
".3.3.3.3#b`v```A#q`a```````t#v#v#v#v.m#d#e#l`e`z`L`4`2`2`2`K.D.6",
".3.3.3.3#b`y```````x`d`````t#v#v#v#v.H#s.7`C`n`c`L`2`Z`2`X.r#g.4",
".3.3.3.3.6`B``````#m#v#j`t`t#v#v#v#v.j`E`r`o`l`W`2`Z`2`X`7#f.3.3",
".3.3.3.3.6.n``````.R#v#v#v`D`h.3#v#v`q`o`k`I`4`4`2`2`0`8#a.3.3.3",
".3.3.3.3.6.n``````.M#v#v#v.c``````.e`h`G`4`4`Z`j`L`3`U.1.3.3.3.3",
".3.3.3.3#e.k``````.M#v#v#v.c`````````L`4`2`O`q`s`L`P.Z.3.3.3.3.3",
".3.3.6#.#t.H.C`d``.D#v#v#v.c`````````W`1.b.2`o`q`F.P.3.3.3.3.3.3",
".3.3#``H.d.s#v#v.U.c#v#v#v.h`````````R.Y.3.3.t`t.l.6.3.3.3.3.3.3",
".3.3.0`M`Z`G#h#v#v`t```A#v.k````````.T.3.3.3#b#n#c.3.3.3.3.3.3.3",
".3.3.3.#`Y`4`L.a#v`z```````h````````.R.3.3.3.4.8.3.3.3.3.3.3.3.3",
".3.3.3.7.L`L`2`2`Z`b```````x#v`t````.N.3.3.3.3.3.3.3.3.3.3.3.3.3",
".3.3.3.3#k`Q`2`I`4`i```````x#v#v#u`A.I.3.3.3.3.3.3.3.3.3.3.3.3.3",
".3.3.3.3.5`T`Z.f.b`b```````t#v#v#v#v.J.3.3.3.3.3.3.3.3.3.3.3.3.3",
".3.3.3.3.5`5`Z.u#r`u`.`````t#v#v#v#v.E.3.3.3.3.3.3.3.3.3.3.3.3.3",
".3.3.3.3.3..`0.n#o#c.D`#```h#v#v#v#v.z.3.3.3.3.3.3.3.3.3.3.3.3.4",
".3.3.3.3.5`6`0.y.3.3.4#j`y`t#v#v#v#v.E.3.3.3.3.3.3.3.3.3.3.3.3.4",
".3.3.3.3.5`S`2.w.3.3.3.3.6.W.v#s#v#v.I.3.3.3.3.3.3.3.3.3.3.3.3.3",
".3.3.3.3.3.q`J.i.3.3.3.3.3.3.W.F.Q#u.Q.3.3.3.3.3.3.3.3.3.3.3.3.3",
".3.3.3.3.3##.K.J.3.3.3.3.3.3.3.6.W.v.S.3.3.3.3.3.3.3.3.3.3.3.3.3",
".3.3.3.3.3.3.3.3.3.3.3.3.3.3.3.3.4.6.6.3.3.3.3.3.3.3.3.3.3.3.3.3",
".3.3.3.3.3.3.3.3.3.3.3.3.3.3.3.3.3.3.3.3.3.3.3.3.3.3.3.3.3.3.3.3",
".3.3.3.3.3.3.3.3.3.3.3.3.3.3.3.3.3.3.3.3.3.3.3.3.3.3.3.3.3.3.3.3"
};
