/* XPM */
static char * render_dl_reflection_xpm[] = {
"64 64 69 1",
" 	c None",
".	c #BEBEBE",
"+	c #5F5F5F",
"@	c #606060",
"#	c #686868",
"$	c #7C7C7C",
"%	c #A4A4A4",
"&	c #8E8E8E",
"*	c #646464",
"=	c #9C9C9C",
"-	c #000000",
";	c #353535",
">	c #ACACAC",
",	c #0A0A0A",
"'	c #7B7B7B",
")	c #494949",
"!	c #707070",
"~	c #6F6F6F",
"{	c #303030",
"]	c #242424",
"^	c #B9B9B9",
"/	c #0E0E0E",
"(	c #777777",
"_	c #727272",
":	c #1C1C1C",
"<	c #343434",
"[	c #363636",
"}	c #5A5A5A",
"|	c #202020",
"1	c #2A2A2A",
"2	c #A8A8A8",
"3	c #0B0B0B",
"4	c #565656",
"5	c #B6B6B6",
"6	c #828282",
"7	c #1A1A1A",
"8	c #090909",
"9	c #A7A7A7",
"0	c #121212",
"a	c #0D0D0D",
"b	c #010101",
"c	c #8A8A8A",
"d	c #4E4E4E",
"e	c #050505",
"f	c #3C3C3C",
"g	c #6D6D6D",
"h	c #B1B1B1",
"i	c #BDBDBD",
"j	c #B0B0B0",
"k	c #6C6C6C",
"l	c #2D2D2D",
"m	c #AAAAAA",
"n	c #939393",
"o	c #060606",
"p	c #1D1D1D",
"q	c #373737",
"r	c #7D7D7D",
"s	c #A9A9A9",
"t	c #131313",
"u	c #B4B4B4",
"v	c #6A6A6A",
"w	c #545454",
"x	c #BBBBBB",
"y	c #232323",
"z	c #030303",
"A	c #3E3E3E",
"B	c #8D8D8D",
"C	c #5C5C5C",
"D	c #767676",
"................................................................",
"................................................................",
"................................................................",
"................................................................",
"................................................................",
"................................................................",
"................................................................",
"................................................................",
"................................................................",
"................................................................",
"................................................................",
"................................................................",
"................................................................",
"................................................................",
"................................................................",
"................................................................",
"................................................................",
"................................................................",
"................................................................",
"................................................................",
"................................................................",
"................................................................",
"................................................................",
"..........++++++++@#$%......&+++++++++++*...++=.................",
"..........------------;>....+-----------,...--'.................",
"..........--)!!!!!~@{--]^...+-/+++++++++*...--'.................",
"..........--'........(--_...+-:.............--'.................",
"..........--'.........<-[...+-:.............--'.................",
"..........--'.........}-|...+-:.............--'.................",
"..........--'.........)-1...+-:.............--'.................",
"..........--'........23-4...+-:.............--'.................",
"..........--'......567-89...+-:.............--'.................",
"..........--300000ab--/c....+----------d....--'.................",
"..........---------efgh.....+----------d....--'.................",
"..........--'..ijk,-lm......+-:.............--'.................",
"..........--'.....no-ph.....+-:.............--'.................",
"..........--'......!--f.....+-:.............--'.................",
"..........--'.......q--r....+-:.............--'.................",
"..........--'.......s,-tu...+-:.............--'.................",
"..........--'........v--w...+-:.............--'.................",
"..........--'........xy-z=..+-:.............--A++++++++B........",
"..........--'.........nb-li.+-:.............-----------C........",
"..........++=..........D++s.&+g.............+++++++++++B........",
"................................................................",
"................................................................",
"................................................................",
"................................................................",
"................................................................",
"................................................................",
"................................................................",
"................................................................",
"................................................................",
"................................................................",
"................................................................",
"................................................................",
"................................................................",
"................................................................",
"................................................................",
"................................................................",
"................................................................",
"................................................................",
"................................................................",
"................................................................",
"................................................................"};
