/* XPM */
static char * render_dl_diffuseEnvLightShape_xpm[] = {
"32 32 702 2",
"  	c None",
". 	c #C1C1C1",
"+ 	c #9D8A86",
"@ 	c #896F65",
"# 	c #816152",
"$ 	c #7E5B4A",
"% 	c #7D5948",
"& 	c #7E5A48",
"* 	c #805D4B",
"= 	c #826354",
"- 	c #8A6F68",
"; 	c #9C8B85",
"> 	c #BDBCBA",
", 	c #9C8E83",
"' 	c #98857A",
") 	c #927A6F",
"! 	c #8A6D60",
"~ 	c #866555",
"{ 	c #846150",
"] 	c #84604F",
"^ 	c #85614E",
"/ 	c #866250",
"( 	c #886554",
"_ 	c #8A6A5C",
": 	c #8F7469",
"< 	c #957F75",
"[ 	c #9D897E",
"} 	c #988883",
"| 	c #917C70",
"1 	c #8B7164",
"2 	c #896C5C",
"3 	c #8A6B5B",
"4 	c #8B6A5B",
"5 	c #8B6959",
"6 	c #8C6958",
"7 	c #8D6958",
"8 	c #8E6957",
"9 	c #8E6A56",
"0 	c #8E6956",
"a 	c #8C6855",
"b 	c #886655",
"c 	c #876656",
"d 	c #8B6F60",
"e 	c #917B6F",
"f 	c #988983",
"g 	c #907B75",
"h 	c #866B60",
"i 	c #7F5F50",
"j 	c #815E4D",
"k 	c #866352",
"l 	c #8A6756",
"m 	c #8D6B5A",
"n 	c #906D5C",
"o 	c #926F5E",
"p 	c #94715F",
"q 	c #96715F",
"r 	c #96715D",
"s 	c #95705C",
"t 	c #926D59",
"u 	c #8D6854",
"v 	c #86624F",
"w 	c #825F4D",
"x 	c #806152",
"y 	c #866D62",
"z 	c #907D75",
"A 	c #8E7A75",
"B 	c #83665B",
"C 	c #7A5647",
"D 	c #7C5645",
"E 	c #805A48",
"F 	c #876150",
"G 	c #8D6858",
"H 	c #926E5E",
"I 	c #967363",
"J 	c #9A7868",
"K 	c #9E7A6A",
"L 	c #9F7B69",
"M 	c #9E7A67",
"N 	c #9E7966",
"O 	c #9B7562",
"P 	c #956F5C",
"Q 	c #8D6754",
"R 	c #85604D",
"S 	c #7F5B49",
"T 	c #7B5A4A",
"U 	c #82675B",
"V 	c #8E7B73",
"W 	c #82655B",
"X 	c #795547",
"Y 	c #7B5443",
"Z 	c #7F5745",
"` 	c #845D4B",
" .	c #8D6756",
"..	c #957161",
"+.	c #9C7A6A",
"@.	c #A07F70",
"#.	c #A68676",
"$.	c #AB897A",
"%.	c #AC8A7A",
"&.	c #AB8977",
"*.	c #A98674",
"=.	c #A47F6D",
"-.	c #9C7664",
";.	c #926C5A",
">.	c #8B6552",
",.	c #835D4B",
"'.	c #7D5846",
").	c #795747",
"!.	c #81665B",
"~.	c #8E7C73",
"{.	c #92837E",
"].	c #82685E",
"^.	c #795648",
"/.	c #7E5745",
"(.	c #835C49",
"_.	c #8C6655",
":.	c #997565",
"<.	c #A48374",
"[.	c #AB8C7E",
"}.	c #B09284",
"|.	c #B59789",
"1.	c #B99A8C",
"2.	c #BA998B",
"3.	c #B89687",
"4.	c #B49181",
"5.	c #AE8A78",
"6.	c #A57F6E",
"7.	c #9A7362",
"8.	c #906957",
"9.	c #87604D",
"0.	c #805A47",
"a.	c #7A5643",
"b.	c #795748",
"c.	c #82695E",
"d.	c #BBBBB9",
"e.	c #88736A",
"f.	c #795A4C",
"g.	c #795544",
"h.	c #7D5644",
"i.	c #88614F",
"j.	c #967160",
"k.	c #A78576",
"l.	c #B39587",
"m.	c #BA9E90",
"n.	c #BDA294",
"o.	c #C1A598",
"p.	c #C3A79B",
"q.	c #C3A699",
"r.	c #C1A194",
"s.	c #BD9C8D",
"t.	c #B79484",
"u.	c #AF8B79",
"v.	c #A37E6C",
"w.	c #96705F",
"x.	c #8A6251",
"y.	c #825B48",
"z.	c #7D5643",
"A.	c #7A5543",
"B.	c #7A594B",
"C.	c #88726A",
"D.	c #BBBABA",
"E.	c #8D7E79",
"F.	c #7E6458",
"G.	c #765444",
"H.	c #785341",
"I.	c #795441",
"J.	c #7D5947",
"K.	c #8C6755",
"L.	c #A07C6C",
"M.	c #B39282",
"N.	c #BEA092",
"O.	c #C2A79A",
"P.	c #C4AB9E",
"Q.	c #C7ADA1",
"R.	c #C8AEA2",
"S.	c #C8ADA0",
"T.	c #C6A89C",
"U.	c #C3A395",
"V.	c #BE9D8E",
"W.	c #B89584",
"X.	c #AD8A78",
"Y.	c #9D7967",
"Z.	c #8C6654",
"`.	c #7E5946",
" +	c #7A5440",
".+	c #79533F",
"++	c #775442",
"@+	c #7E6358",
"#+	c #8D7D79",
"$+	c #89726A",
"%+	c #755548",
"&+	c #734E3D",
"*+	c #714C3A",
"=+	c #704C3A",
"-+	c #8F6C5A",
";+	c #A88574",
">+	c #B99889",
",+	c #C1A395",
"'+	c #C5A99C",
")+	c #C7ADA0",
"!+	c #C9B0A3",
"~+	c #CBB3A5",
"{+	c #CAB0A1",
"]+	c #C7AB9C",
"^+	c #C3A495",
"/+	c #BD9C8C",
"(+	c #B59281",
"_+	c #A58170",
":+	c #8F6B59",
"<+	c #795643",
"[+	c #724D39",
"}+	c #734E39",
"|+	c #744F3C",
"1+	c #755647",
"2+	c #937F7B",
"3+	c #7E6258",
"4+	c #6F4C3D",
"5+	c #694533",
"6+	c #674231",
"7+	c #684534",
"8+	c #785545",
"9+	c #957262",
"0+	c #AE8D7C",
"a+	c #BE9E8F",
"b+	c #C4A799",
"c+	c #C8AC9F",
"d+	c #CAB0A3",
"e+	c #CBB3A6",
"f+	c #CCB5A8",
"g+	c #CDB5A8",
"h+	c #CCB4A6",
"i+	c #CAB0A2",
"j+	c #C6A99B",
"k+	c #BF9F90",
"l+	c #B69585",
"m+	c #A78473",
"n+	c #926F5D",
"o+	c #795644",
"p+	c #6B4834",
"q+	c #694530",
"r+	c #6A4633",
"s+	c #6F4E3D",
"t+	c #7D6358",
"u+	c #92807C",
"v+	c #785B50",
"w+	c #6F4F41",
"x+	c #664333",
"y+	c #5E3A29",
"z+	c #674433",
"A+	c #805C4C",
"B+	c #9D7B6A",
"C+	c #B59584",
"D+	c #C2A595",
"E+	c #C8AD9F",
"F+	c #CCB2A5",
"G+	c #CEB5A8",
"H+	c #CEB7AA",
"I+	c #CFB8AC",
"J+	c #CFB9AC",
"K+	c #CEB6A8",
"L+	c #C9AEA0",
"M+	c #BEA192",
"N+	c #B39283",
"O+	c #A68373",
"P+	c #967262",
"Q+	c #694734",
"R+	c #5F3D2A",
"S+	c #5F3C29",
"T+	c #664433",
"U+	c #6F5042",
"V+	c #775F55",
"W+	c #694939",
"X+	c #654333",
"Y+	c #5F3C2B",
"Z+	c #573423",
"`+	c #5A3827",
" @	c #694736",
".@	c #A07F6E",
"+@	c #B59786",
"@@	c #C2A798",
"#@	c #D1B9AD",
"$@	c #D3BDB0",
"%@	c #D4BEB2",
"&@	c #D4BEB3",
"*@	c #D3BEB3",
"=@	c #D3BDB2",
"-@	c #D1BBAF",
";@	c #BCA193",
">@	c #AC8E7F",
",@	c #9F7D6E",
"'@	c #83614F",
")@	c #6B4937",
"!@	c #5B3A27",
"~@	c #583523",
"{@	c #603D2B",
"]@	c #654434",
"^@	c #684B3B",
"/@	c #5F3F2D",
"(@	c #5F3E2B",
"_@	c #5C3927",
":@	c #553321",
"<@	c #6A4837",
"[@	c #856350",
"}@	c #987866",
"|@	c #AB8D7D",
"1@	c #BCA394",
"2@	c #CCB7A9",
"3@	c #D6C2B6",
"4@	c #DAC7BA",
"5@	c #DBC8BC",
"6@	c #DAC8BC",
"7@	c #D9C5BB",
"8@	c #D6C2B8",
"9@	c #CBB5AA",
"0@	c #B8A093",
"a@	c #A38779",
"b@	c #937364",
"c@	c #8C6A5B",
"d@	c #815F4D",
"e@	c #6C4A38",
"f@	c #563421",
"g@	c #5C3A27",
"h@	c #5F402D",
"i@	c #5C3B29",
"j@	c #5E3C29",
"k@	c #5D3A27",
"l@	c #583624",
"m@	c #6B4936",
"n@	c #7D5B47",
"o@	c #866654",
"p@	c #947868",
"q@	c #AC9486",
"r@	c #C7B3A7",
"s@	c #DAC8BD",
"t@	c #E0D0C6",
"u@	c #E2D2C8",
"v@	c #E1D1C7",
"w@	c #DCCBC2",
"x@	c #D6C3BA",
"y@	c #CFBAB0",
"z@	c #C6B0A6",
"A@	c #B19A8E",
"B@	c #967D70",
"C@	c #826556",
"D@	c #7C5C4C",
"E@	c #795845",
"F@	c #6C4A36",
"G@	c #5F3D29",
"H@	c #593824",
"I@	c #5D3C27",
"J@	c #5D3C28",
"K@	c #5A3B26",
"L@	c #5E3C2A",
"M@	c #5A3825",
"N@	c #5F3E2A",
"O@	c #6A4834",
"P@	c #72503D",
"Q@	c #735241",
"R@	c #7D5F50",
"S@	c #9A8174",
"T@	c #C0ADA1",
"U@	c #DCCCC3",
"V@	c #E7D9D1",
"W@	c #E9DCD4",
"X@	c #E6D8D1",
"Y@	c #DBCBC4",
"Z@	c #CEBBB3",
"`@	c #C2ACA3",
" #	c #BBA59A",
".#	c #A89083",
"+#	c #8B7163",
"@#	c #735546",
"##	c #6D4D3D",
"$#	c #704D3B",
"%#	c #6A4835",
"&#	c #5A3926",
"*#	c #5B3A26",
"=#	c #593A25",
"-#	c #563822",
";#	c #674635",
">#	c #644231",
",#	c #5E3C2B",
"'#	c #5B3A28",
")#	c #5E3D2A",
"!#	c #664430",
"~#	c #664532",
"{#	c #634332",
"]#	c #6B4D3E",
"^#	c #8D7366",
"/#	c #BAA69D",
"(#	c #DDCEC7",
"_#	c #ECE0DA",
":#	c #EDE2DC",
"<#	c #E6DAD4",
"[#	c #D2C3BC",
"}#	c #BBA89F",
"|#	c #AB958A",
"1#	c #A89185",
"2#	c #806556",
"3#	c #674838",
"4#	c #614030",
"5#	c #664432",
"6#	c #654330",
"7#	c #5A3826",
"8#	c #583725",
"9#	c #583926",
"0#	c #563926",
"a#	c #735544",
"b#	c #6C4C3B",
"c#	c #644230",
"d#	c #5C3A28",
"e#	c #5E3D2B",
"f#	c #5B3928",
"g#	c #593828",
"h#	c #654637",
"i#	c #BBA89E",
"j#	c #E0D3CB",
"k#	c #EFE5DE",
"l#	c #EEE4DE",
"m#	c #E0D5CE",
"n#	c #C2B2AA",
"o#	c #A28C82",
"p#	c #8F766A",
"q#	c #8F7669",
"r#	c #896E60",
"s#	c #755949",
"t#	c #603F2F",
"u#	c #5D3A29",
"v#	c #573523",
"w#	c #563624",
"x#	c #593B2B",
"y#	c #5C4031",
"z#	c #7E6658",
"A#	c #755848",
"B#	c #6C4B39",
"C#	c #64412F",
"D#	c #563423",
"E#	c #563524",
"F#	c #644636",
"G#	c #8A7163",
"H#	c #B7A59B",
"I#	c #DBCDC5",
"J#	c #EADFD8",
"K#	c #E8DED8",
"L#	c #D6C9C2",
"M#	c #B3A098",
"N#	c #8C7368",
"O#	c #75594C",
"P#	c #745749",
"Q#	c #735648",
"R#	c #684B3C",
"S#	c #5A3A2A",
"T#	c #553524",
"U#	c #573625",
"V#	c #543322",
"W#	c #583827",
"X#	c #614638",
"Y#	c #6C554A",
"Z#	c #8F7E77",
"`#	c #7E6659",
" $	c #6F4E3E",
".$	c #674331",
"+$	c #623F2E",
"@$	c #5A3928",
"#$	c #654636",
"$$	c #82695A",
"%$	c #A79287",
"&$	c #C6B5AC",
"*$	c #D8C9C2",
"=$	c #DBCEC8",
"-$	c #CBBBB4",
";$	c #A8938B",
">$	c #7F6459",
",$	c #66463A",
"'$	c #5F3F31",
")$	c #604032",
"!$	c #5D3E2F",
"~$	c #583728",
"{$	c #563526",
"]$	c #563525",
"^$	c #462B1D",
"/$	c #43291A",
"($	c #533220",
"_$	c #6E574C",
":$	c #8C8178",
"<$	c #836F66",
"[$	c #6C4E41",
"}$	c #6A4533",
"|$	c #664330",
"1$	c #63422F",
"2$	c #674736",
"3$	c #755849",
"4$	c #8A7164",
"5$	c #A38D83",
"6$	c #BBA79E",
"7$	c #C9B6AE",
"8$	c #C1ADA5",
"9$	c #A48C83",
"0$	c #7D6155",
"a$	c #624235",
"b$	c #563627",
"c$	c #573627",
"d$	c #563628",
"e$	c #4D3124",
"f$	c #583829",
"g$	c #583727",
"h$	c #42281B",
"i$	c #3E2517",
"j$	c #523220",
"k$	c #5C4131",
"l$	c #6E5E55",
"m$	c #BDBDBD",
"n$	c #857672",
"o$	c #6D564C",
"p$	c #5F4131",
"q$	c #633F2D",
"r$	c #684431",
"s$	c #694634",
"t$	c #745646",
"u$	c #86695B",
"v$	c #9F8477",
"w$	c #B4998E",
"x$	c #B49A8E",
"y$	c #9E8276",
"z$	c #7E6052",
"A$	c #654536",
"B$	c #583627",
"C$	c #543526",
"D$	c #1C120D",
"E$	c #482E22",
"F$	c #462B1E",
"G$	c #22140D",
"H$	c #23140C",
"I$	c #4D382C",
"J$	c #574439",
"K$	c #2B2724",
"L$	c #B1B1B1",
"M$	c #BABABA",
"N$	c #75655D",
"O$	c #5B4235",
"P$	c #573726",
"Q$	c #623E2C",
"R$	c #664230",
"S$	c #684533",
"T$	c #755342",
"U$	c #886757",
"V$	c #9B7B6C",
"W$	c #A18172",
"X$	c #957465",
"Y$	c #7D5C4D",
"Z$	c #6B4A3A",
"`$	c #624030",
" %	c #603E2E",
".%	c #5E3D2C",
"+%	c #503324",
"@%	c #160D09",
"#%	c #8C810A",
"$%	c #E2D305",
"%%	c #DDCE05",
"&%	c #847C0A",
"*%	c #232018",
"=%	c #A4A4A4",
"-%	c #867975",
";%	c #665349",
">%	c #513628",
",%	c #4F3020",
"'%	c #593825",
")%	c #603D29",
"!%	c #64402D",
"~%	c #684330",
"{%	c #6D4835",
"]%	c #765340",
"^%	c #825E4C",
"/%	c #876351",
"(%	c #815D4C",
"_%	c #755241",
":%	c #6D4A39",
"<%	c #694735",
"[%	c #63412F",
"}%	c #4E3121",
"|%	c #736A06",
"1%	c #FFEE00",
"2%	c #8A8109",
"3%	c #9B9B9B",
"4%	c #786A65",
"5%	c #5F4B41",
"6%	c #4B3124",
"7%	c #482A1A",
"8%	c #4C2C1A",
"9%	c #52311D",
"0%	c #593622",
"a%	c #5D3925",
"b%	c #5F3B27",
"c%	c #623F2B",
"d%	c #674430",
"e%	c #6A4734",
"f%	c #6A4735",
"g%	c #674432",
"h%	c #533728",
"i%	c #482F21",
"j%	c #26180F",
"k%	c #D2C407",
"l%	c #D8CA01",
"m%	c #4D4D4D",
"n%	c #878787",
"o%	c #999999",
"p%	c #756A63",
"q%	c #5C4A40",
"r%	c #462F22",
"s%	c #422717",
"t%	c #442715",
"u%	c #4B2A17",
"v%	c #502E1A",
"w%	c #52301C",
"x%	c #53311C",
"y%	c #54331E",
"z%	c #55341F",
"A%	c #553320",
"B%	c #4F3222",
"C%	c #492F1F",
"D%	c #281A11",
"E%	c #D0C204",
"F%	c #D8C901",
"G%	c #5C5C5C",
"H%	c #929292",
"I%	c #A1A1A1",
"J%	c #756965",
"K%	c #5D4C44",
"L%	c #483428",
"M%	c #3F281A",
"N%	c #3F2414",
"O%	c #412313",
"P%	c #432513",
"Q%	c #452613",
"R%	c #462814",
"S%	c #452614",
"T%	c #422413",
"U%	c #412415",
"V%	c #432617",
"W%	c #462A1A",
"X%	c #4A3020",
"Y%	c #422D21",
"Z%	c #766C06",
"`%	c #8B810B",
" &	c #AAAAAA",
".&	c #827773",
"+&	c #685B55",
"@&	c #54443B",
"#&	c #453026",
"$&	c #40281D",
"%&	c #3F2618",
"&&	c #3E2312",
"*&	c #3C200F",
"=&	c #381E0E",
"-&	c #341C0E",
";&	c #321B0F",
">&	c #352014",
",&	c #3C271C",
"'&	c #48342A",
")&	c #4C3F38",
"!&	c #1B1716",
"~&	c #6C660A",
"{&	c #CCBF01",
"]&	c #C5B800",
"^&	c #787009",
"/&	c #323232",
"(&	c #9C9C9C",
"_&	c #BBBAB7",
":&	c #7B706D",
"<&	c #695C57",
"[&	c #5B4A44",
"}&	c #4E3A32",
"|&	c #483328",
"1&	c #452F24",
"2&	c #412C21",
"3&	c #3E2A1F",
"4&	c #3A2920",
"5&	c #3B2B24",
"6&	c #44352F",
"7&	c #554944",
"8&	c #5D5350",
"9&	c #272423",
"0&	c #A4A5A3",
"a&	c #A8A8A8",
"b&	c #5D5D5D",
"c&	c #585858",
"d&	c #A5A5A5",
"e&	c #ABABAB",
"f&	c #3F3F3F",
"g&	c #8B7E7C",
"h&	c #766865",
"i&	c #6F645E",
"j&	c #6F635D",
"k&	c #6E625C",
"l&	c #6C615B",
"m&	c #695F5A",
"n&	c #69605C",
"o&	c #716766",
"p&	c #888283",
"q&	c #B4B4B4",
"r&	c #959595",
"s&	c #909090",
". . . . . . . . . . . . . . . . . . . . . . . . . . . . . . . . ",
". . . . . . . . . . . + @ # $ % & * = - ; . . . . . . . . . . . ",
". . . . . . . . > , ' ) ! ~ { ] ^ / ( _ : < [ > . . . . . . . . ",
". . . . . . . } | 1 2 3 4 5 6 7 8 9 0 a b c d e f . . . . . . . ",
". . . . . . g h i j k l m n o p q r s t u v w x y z . . . . . . ",
". . . . . A B C D E F G H I J K L M N O P Q R S T U V . . . . . ",
". . . . A W X Y Z `  ...+.@.#.$.%.&.*.=.-.;.>.,.'.).!.~.. . . . ",
". . . {.].^.Y /.(._.:.<.[.}.|.1.2.3.4.5.6.7.8.9.0.a.b.c.{.. . . ",
". . d.e.f.g.h.E i.j.k.l.m.n.o.p.q.r.s.t.u.v.w.x.y.z.A.B.C.D.. . ",
". . E.F.G.H.I.J.K.L.M.N.O.P.Q.R.S.T.U.V.W.X.Y.Z.`. +.+++@+#+. . ",
". . $+%+&+*+=+g.-+;+>+,+'+)+!+~+~+{+]+^+/+(+_+:+<+[+}+|+1+C.. . ",
". 2+3+4+5+6+7+8+9+0+a+b+c+d+e+f+g+h+i+j+k+l+m+n+o+p+q+r+s+t+u+. ",
". v+w+x+y+y+z+A+B+C+D+E+F+G+H+I+J+J+K+L+M+N+O+P+$ Q+R+S+T+U+V+. ",
". W+X+Y+Z+`+ @k .@+@@@~+#@$@%@&@*@=@-@e+;@>@,@9+'@)@!@~@{@]@^@. ",
". /@(@_@:@`+<@[@}@|@1@2@3@4@5@6@7@8@*@9@0@a@b@c@d@e@!@f@g@(@h@. ",
". i@j@k@l@j@m@n@o@p@q@r@s@t@u@v@w@x@y@z@A@B@C@D@E@F@G@H@I@J@K@. ",
". L@L@g@M@N@O@P@Q@R@S@T@U@V@W@X@Y@Z@`@ #.#+#@###$#%#(@&#*#=#-#. ",
". ;#>#,#'#)#!#~#{#]#^#/#(#_#:#<#[#}#|#1#S@2#3#4#5#6#L@7#8#9#0#. ",
". a#b#c#L@d#e#f#g#h#1 i#j#k#l#m#n#o#p#q#r#s#t#`+u#L@7#v#w#x#y#. ",
". z#A#B#C#{@'#D#E#F#G#H#I#J#K#L#M#N#O#P#Q#R#S#T#E#U#E#V#W#X#Y#. ",
". Z#`# $5+.$+$f#@$#$$$%$&$*$=$-$;$>$,$'$)$!$~${$]$^$/$($x#_$:$. ",
". . <$[$7+}$r+|$1$2$3$4$5$6$7$8$9$0$a$b$c$d$e$f$g$h$i$j$k$l$m$. ",
". . n$o$p$q$r$r+s$ @b#t$u$v$w$x$y$z$A$g#B$C$D$E$F$G$H$I$J$K$L$. ",
". . M$N$O$P$_@Q$R$S$s$)@T$U$V$W$X$Y$Z$`$ %.%+%@%#%$%%%&%*%=%. . ",
". . . -%;%>%,%($'%)%!%~%{%]%^%/%(%_%:%<%S$[%}%|%1%1%1%1%2%3%. . ",
". . . . 4%5%6%7%8%9%0%a%b%c%d%e%f%g%z+s$h%i%j%k%1%1%1%1%l%m%n%o%",
". . . . . p%q%r%s%t%u%v%w%x%y%z%A%A%v#&#B%C%D%E%1%1%1%1%F%G%H%I%",
". . . . . . J%K%L%M%N%O%P%Q%R%R%S%T%U%V%W%X%Y%Z%1%1%1%1%`% &. . ",
". . . . . . . .&+&@&#&$&%&N%&&*&=&-&;&>&,&'&)&!&~&{&]&^&/&(&. . ",
". . . . . . . . _&:&<&[&}&|&1&2&3&4&5&6&7&8&9&0&a&b&c&d&e&f&e&. ",
". . . . . . . . . . . g&h&i&j&k&l&m&n&o&p&. q&. . r&s&. . q&. . ",
". . . . . . . . . . . . . . . . . . . . . . . . . I%I%. . . . . "};
