/* XPM */
static char *dummy[]={
"32 32 569 2",
"gA c #5e5858",
"gN c #615858",
"gR c #767b7b",
"g0 c #777c7c",
"gG c #786969",
"gU c #787d7e",
"gJ c #796b6a",
"gT c #797d7d",
"gS c #797e7e",
"gZ c #7a7e7f",
"gy c #7a8383",
"gV c #7b7f80",
"gF c #7c6766",
"gK c #7c6969",
"gY c #7c8080",
"gi c #7d8687",
"fQ c #7d8688",
"gI c #7e6261",
"gE c #7e6361",
"gC c #7e6362",
"gX c #7e8080",
"fA c #7e8588",
"gH c #7f6261",
"gL c #7f6362",
"gD c #7f6462",
"gW c #7f8182",
"gB c #806564",
"fd c #808686",
"gM c #816564",
".l c #817d7b",
"gj c #818989",
"eh c #818a8c",
"eS c #818b8b",
"ez c #818b8c",
"d1 c #818b8e",
"dH c #82898c",
".v c #847f7c",
"dk c #848b8c",
"fR c #848c8d",
"fB c #848c8e",
"fe c #858c8e",
"c0 c #859091",
"c. c #868c8e",
"cA c #868f91",
"cq c #868f92",
"ei c #889091",
"dI c #889092",
"eT c #898d8e",
"dl c #898f91",
"bM c #8a9292",
"bs c #8a9495",
"aU c #8a9496",
"g1 c #8b8d8d",
"aC c #8b9396",
"af c #8c9091",
"c1 c #8c9292",
"cB c #8c9495",
"c# c #8c9496",
"gO c #8d8f8f",
".N c #8d9698",
"bN c #8e9395",
".a c #8f9294",
".e c #8f9394",
"#S c #8f9899",
"#v c #8f999a",
".4 c #8f999b",
".h c #909394",
".b c #909395",
".g c #909495",
"bt c #909797",
"ag c #90979a",
"aV c #909899",
"aD c #90989a",
"gk c #915b56",
"gQ c #919292",
"eU c #927874",
"#T c #929696",
".x c #92999b",
"f6 c #935951",
".c c #939596",
"eA c #945b55",
"c2 c #946f6c",
".f c #949697",
"#w c #949c9c",
".5 c #949c9d",
".O c #949c9e",
"fS c #965f54",
".d c #969899",
"cN c #985c56",
"ej c #986056",
".p c #98908c",
"bu c #996a68",
".s c #99908c",
"gz c #999a9a",
"fC c #9a6556",
"d2 c #9b6659",
"fc c #9c7b75",
".t c #9c908b",
"eR c #9d5750",
"gx c #9d5953",
"bb c #9d635c",
"cC c #9d645a",
"#x c #9d6663",
"ff c #9d6f5f",
".o c #9d908a",
"gh c #9e574d",
"dj c #9e6e6a",
".u c #9e8d86",
".m c #9f8f88",
".w c #9fa0a0",
"dJ c #a06a5a",
"cr c #a06b5e",
"dm c #a07a6b",
".r c #a08e87",
".q c #a08f87",
".n c #a08f88",
".i c #a0a1a2",
"bL c #a16662",
"bO c #a18278",
"cZ c #a25750",
"ey c #a25d51",
"f5 c #a25f50",
"aW c #a26a60",
"#h c #a36962",
"#U c #a38a84",
"#R c #a45f5d",
".# c #a4a5a6",
"ca c #a56f5e",
"br c #a65d55",
"cM c #a66255",
"aE c #a67062",
"eg c #a76455",
"fP c #a76552",
".k c #a7a8a8",
".6 c #a87166",
"#u c #aa635a",
"fz c #aa715d",
"ah c #aa7968",
"ba c #ab665a",
"cz c #ab6958",
"dG c #ab7b69",
"d0 c #ac6a56",
"b9 c #ac8477",
"#H c #ad130d",
".P c #ad7768",
"ae c #ad8a83",
"#C c #ae1610",
"#O c #ae1711",
"#E c #ae1812",
"#P c #af1711",
"#K c #af1811",
"#J c #af1812",
"#z c #af1913",
"#B c #af1a14",
"#D c #af1a15",
"#L c #af1b15",
"aT c #af6d5c",
"#I c #b01a14",
"#A c #b01a15",
"#g c #b06c5f",
"cp c #b16e59",
".y c #b18372",
"#Q c #b2140e",
"eO c #b41909",
"cV c #b51304",
"cX c #b51808",
"eI c #b5190a",
"eL c #b51a0b",
"eG c #b51b0c",
"#y c #b51b15",
"bG c #b52820",
"bD c #b52921",
"#F c #b52e29",
"aB c #b57863",
"cS c #b61808",
"bm c #b61907",
"cP c #b61909",
"cR c #b6190a",
"#o c #b61a08",
"cQ c #b61a0a",
"#p c #b61b08",
"eN c #b61d0d",
"eD c #b61d0e",
"eC c #b61e0f",
"eH c #b61f11",
"bx c #b62c24",
"bw c #b62d25",
"bA c #b62e26",
"bC c #b62e27",
"bB c #b62f27",
".3 c #b67361",
"bj c #b71b09",
"bh c #b71c0a",
"bp c #b71e0c",
"#s c #b71f0c",
"#l c #b71f0d",
"eM c #b71f11",
"bH c #b72f28",
"#N c #b7322d",
"be c #b81d0c",
"bd c #b81f0d",
"bi c #b81f0e",
"#j c #b8200e",
"#k c #b8210f",
"cY c #b91302",
"cT c #b9281a",
"eQ c #ba1a0a",
"gc c #ba1e09",
"gb c #ba200b",
"gf c #ba220e",
"cW c #ba2b1c",
"bK c #ba2b23",
"eE c #ba2e20",
"eP c #ba3124",
"bq c #bb1807",
"#t c #bb1a07",
"g. c #bb230f",
"f8 c #bb2410",
"f9 c #bb2511",
"by c #bb3d36",
"cO c #bc1a0a",
"bf c #bc2e1d",
"bo c #bc2f1f",
"bJ c #bc423b",
"eB c #bd2111",
"#m c #bd3121",
"bv c #bd322a",
"#r c #bd3323",
".M c #bd836e",
"bc c #be200e",
"#i c #be210f",
"gs c #be2417",
"g# c #be321f",
"gg c #bf200a",
"gr c #bf2519",
"gv c #bf271b",
"ev c #bf280d",
"er c #bf280f",
"eu c #bf2910",
"go c #bf291d",
"ep c #bf2a10",
"dc c #bf4c42",
"d# c #bf4c43",
"df c #bf4e44",
"a8 c #c02a0f",
"gm c #c02a1e",
"cJ c #c02b10",
"gn c #c02b1f",
"a7 c #c02c11",
"em c #c02c12",
"a4 c #c02d11",
"el c #c02d13",
"a2 c #c02e12",
"eq c #c02e14",
"ge c #c03d2a",
"eK c #c04c40",
"c8 c #c04f45",
"c4 c #c05046",
"da c #c05047",
"dh c #c05146",
"c5 c #c05147",
"dg c #c05249",
"db c #c0534b",
"c6 c #c0544c",
"#b c #c12d10",
"cG c #c12e14",
"aZ c #c12f14",
"cE c #c12f15",
"aY c #c13015",
"cF c #c13016",
"#e c #c13114",
"a3 c #c13116",
"cU c #c14b3f",
"c7 c #c15147",
"f7 c #c22712",
"f0 c #c22e11",
"fZ c #c23012",
"#. c #c23115",
".8 c #c23216",
".9 c #c23317",
"gp c #c23a2e",
"en c #c23b23",
"bk c #c24335",
"eJ c #c25349",
"#M c #c25552",
"#G c #c25854",
"f3 c #c33215",
"fW c #c33316",
"fU c #c33417",
"fV c #c33518",
"ew c #c33d26",
"bl c #c3483b",
"bE c #c35953",
"eF c #c35b51",
"ex c #c4290e",
"cH c #c43d25",
"cK c #c43f28",
"gu c #c4453b",
"ga c #c45141",
"c9 c #c45e54",
"bF c #c45f5a",
"gw c #c5271b",
"cL c #c52a0f",
"b# c #c52b0f",
"#f c #c52d10",
"a0 c #c53e25",
"b. c #c53f26",
"fX c #c54126",
"eb c #c63815",
"di c #c65147",
"bn c #c65447",
"de c #c6665d",
"gl c #c72d22",
"ek c #c72f15",
"cD c #c73116",
"aX c #c73216",
"ec c #c73613",
"e. c #c73714",
"d8 c #c73816",
"## c #c74228",
"#d c #c7442b",
"f2 c #c74a30",
"et c #c7533f",
"#q c #c75447",
"#n c #c75648",
"gd c #c75e50",
"g2 c #c7c7c7",
"f4 c #c83112",
".7 c #c83417",
"aP c #c83813",
"aM c #c83915",
"aK c #c83a16",
"d5 c #c83a18",
"d4 c #c83b19",
"d9 c #c83c1a",
"c3 c #c8564c",
"es c #c85a47",
"gq c #c85a50",
"bg c #c85b4f",
"bI c #c86b66",
".j c #c8c8c8",
"aH c #c93b18",
"aG c #c93c19",
"aL c #c93d1a",
"ct c #c93e1b",
"d6 c #c94828",
"a5 c #c9523d",
"gP c #c9c9c9",
"fT c #ca3619",
".W c #ca3913",
".X c #ca3a13",
"ee c #ca4a2b",
"cI c #ca5c49",
"eo c #ca604e",
"bz c #ca746f",
"Qt c #cacaca",
"fK c #cb3b14",
".0 c #cb3d17",
".R c #cb3e19",
".S c #cb3f1a",
"cu c #cb4a2a",
"a6 c #cb5742",
"fY c #cb5d47",
"gt c #cb665e",
"fJ c #cc3d15",
".T c #cc3d18",
"fN c #cc3e18",
".1 c #cc3f1a",
"fG c #cc4019",
"fE c #cc401a",
"fF c #cc411b",
"aI c #cc4a29",
"aR c #cc4b2a",
"cx c #cc4d2d",
"f1 c #cc6a55",
"dd c #cc7b74",
"d. c #cc7c74",
"aS c #cd3813",
"ef c #cd3814",
"cy c #cd3914",
"a9 c #cd624e",
"e2 c #cd7362",
"e9 c #cd7564",
"eW c #cd7565",
"fa c #cd7665",
"eZ c #cd7666",
"fH c #ce4b28",
"ea c #ce5f44",
"e6 c #ce7464",
"e5 c #ce7766",
".2 c #cf3a13",
"d3 c #cf3e1b",
"dW c #cf4014",
"dS c #cf4015",
"dP c #cf4117",
".U c #cf4d2b",
"fM c #cf5433",
"e# c #cf664c",
"a1 c #cf6855",
"d7 c #cf6c53",
"eX c #cf7c6d",
"e0 c #cf7c6f",
"e8 c #cf8074",
"e1 c #cf847a",
"e7 c #cf857b",
"aF c #d03f1a",
"cs c #d0401b",
"dV c #d04117",
"dM c #d0431a",
"dL c #d0441b",
"dR c #d0451b",
"dQ c #d0451c",
".Z c #d04f2d",
"aN c #d05d40",
"#c c #d0634f",
"#a c #d06550",
"ed c #d06b52",
"f# c #d08070",
"cl c #d14113",
"ci c #d14213",
"ce c #d14518",
"ck c #d14618",
"cj c #d14619",
"aO c #d16145",
"fI c #d16648",
"cw c #d1674d",
"cv c #d1684d",
"fO c #d23d15",
".Q c #d2401a",
"cf c #d24517",
"cc c #d24619",
"cd c #d2471a",
"dN c #d2512b",
"dY c #d2532c",
"fD c #d3431c",
"aQ c #d36b51",
"fL c #d37257",
"cg c #d45329",
"cn c #d4552c",
"aJ c #d47159",
"#4 c #d47866",
"a# c #d47966",
"#1 c #d47967",
"#W c #d47a67",
"e4 c #d48f80",
"e3 c #d49182",
"dZ c #d54215",
"ax c #d54f20",
"as c #d55022",
"aq c #d55023",
"av c #d55024",
"aw c #d55225",
"dU c #d56645",
"#5 c #d57966",
"ac c #d57a67",
"#X c #d57a68",
"fb c #d57a69",
"#0 c #d57b68",
"#8 c #d57b69",
"#Y c #d5806f",
"f. c #d59687",
"eY c #d59688",
"an c #d65123",
"ak c #d65225",
"ap c #d65226",
"aj c #d65326",
"ao c #d65427",
"ar c #d65428",
"dT c #d66d4d",
"dX c #d67253",
"eV c #d67e6e",
"ab c #d68272",
"co c #d74313",
"dK c #d7471c",
"fk c #d7592b",
"fr c #d75a2c",
".Y c #d76c51",
".V c #d76e52",
"ch c #d76f4c",
"dO c #d77456",
"#6 c #d78a7c",
"ft c #d85829",
"fp c #d8592a",
"fs c #d85a2c",
"fw c #d85b2c",
"fm c #d85c2e",
"fj c #d85c2f",
"fh c #d85d2f",
"fl c #d85d30",
"fi c #d85e30",
"al c #d86036",
"cm c #d86f4d",
"#7 c #d88c7f",
"aa c #d89185",
"cb c #d9481a",
"fx c #d95e30",
"fq c #d95e31",
"az c #d96238",
"fn c #d9693f",
"#2 c #d98774",
"#Z c #d99389",
"dw c #da663b",
"dz c #da663c",
"ds c #da683e",
"dE c #da683f",
"dp c #da693f",
"do c #da6940",
"dt c #da6a41",
"du c #da6b41",
"dv c #da6c43",
"a. c #da8c7b",
"aA c #db5121",
"dA c #db6c42",
"dB c #db6c43",
"fv c #db724c",
"dq c #db744e",
"at c #db744f",
"b2 c #db7a58",
"bY c #db7b59",
"b5 c #db7b5a",
"bV c #db7c5b",
"bQ c #db7c5c",
"bZ c #db7d5c",
"bR c #db7d5d",
"bU c #db7e5d",
"bS c #db7f5e",
"fo c #db8261",
"dD c #dc7752",
"au c #dc7855",
"b7 c #dc7f5f",
"ad c #dc7f6b",
"b0 c #dc8261",
"b1 c #dc8262",
"bW c #dc876a",
"fu c #dc8b6d",
"ai c #dd5728",
"b6 c #dd8363",
"#V c #dd8371",
"bT c #dd8463",
"dy c #dd8a6b",
"dx c #dd8f71",
"b4 c #dd8f75",
"dC c #dd9578",
"dr c #dd957a",
"#9 c #dd9684",
".F c #de5a2c",
".G c #de5a2d",
".K c #de5f32",
"ay c #de8261",
"#3 c #de9987",
"bX c #de9b84",
"fy c #df5c2c",
".J c #df5d30",
".C c #df5d31",
".A c #df5e32",
".B c #df5f33",
"am c #df886a",
"b3 c #df9c85",
"fg c #e06132",
"dF c #e06b40",
".D c #e16c44",
".I c #e27049",
"b8 c #e27f5e",
".L c #e35b2d",
"dn c #e37045",
"bP c #e38462",
".z c #e56234",
".H c #e58968",
".E c #e68b6b",
"Qt.#.a.b.b.b.b.b.b.b.c.d.e.b.b.b.b.b.b.e.d.f.b.b.b.b.b.b.g.h.i.j",
".k.l.m.n.m.m.m.m.m.n.o.p.q.m.m.m.m.m.m.r.s.t.n.m.m.m.m.m.u.n.v.w",
".x.y.z.A.B.B.B.B.B.C.D.E.F.B.B.B.B.B.B.G.H.I.J.B.B.B.B.B.K.L.M.N",
".O.P.Q.R.S.S.S.S.S.T.U.V.W.S.S.S.S.S.S.X.Y.Z.0.S.S.S.S.S.1.2.3.4",
".5.6.7.8.9.9.9.9.9#.###a#b.9.9.9.9.9.9#b#c#d#e.9.9.9.9.9.9#f#g.4",
".5#h#i#j#k#k#k#k#k#l#m#n#o#k#k#k#k#k#k#p#q#r#s#k#k#k#k#k#k#t#u#v",
"#w#x#y#z#A#B#C#D#A#E#F#G#H#I#A#J#K#L#I#H#M#N#O#I#A#P#z#A#I#Q#R#S",
"#T#U#V#W#X#Y#Z#0#X#1#2#3#4#0#5#6#7#5#8#4#9a.a##8#5aaabac#Xadaeaf",
"agahaiajakalamanaoaoapaqaraoasatauasaoaravawaraoaxayazakaoaAaBaC",
"aDaEaFaGaHaIaJaKaLaLaLaLaLaLaMaNaOaMaLaLaLaLaLaLaPaQaRaHaLaSaTaU",
"aVaWaXaYaZa0a1a2a3a3a3a3a3a3a4a5a6a7a3a3a3a3a3a3a8a9b.aZa3b#baaU",
"aVbbbcbdbebfbgbh#jbibibi#jbibjbkblbjbi#jbibi#jbibmbnbobp#jbqbrbs",
"btbubvbwbxbybzbxbAbAbBbBbCbAbDbEbFbGbAbAbBbHbAbAbGbIbJbxbAbKbLbM",
"bNbObPbQbRbSbTbUbRbVbWbXbYbRbZb0b1bZbRb2b3b4b5bRbZb6b7bZbZb8b9c.",
"c#cacbcccdcccecdcdcfcgchcicdcdcjckcdcdclcmcncfcdcdcecccdcdcocpcq",
"c#crcsaLctctctctctaGcucvaMctctctctctctaMcwcxaGctctctctctctcyczcA",
"cBcCcDcEcFcFcFcFcFcGcHcIcJcFcFcFcFcFcFcJcIcKcGcFcFcFcFcFcFcLcMcA",
"cBcNcOcPcQcRcPcQcQcScTcUcVcQcQcPcPcQcQcVcUcWcXcQcQcPcRcQcQcYcZc0",
"c1c2c3c4c5c5c6c5c7c8c9d.d#c5dadbdbc4dadcdddedfc5c5c6dgc5dhdidjdk",
"dldmdndodpdqdrdsdtdtdudvdtdtdwdxdydzdtdtdAdBdtdtdwdCdDdEdtdFdGdH",
"dIdJdKdLdMdNdOdPdQdQdRdLdQdQdSdTdUdVdQdQdLdRdQdQdWdXdYdMdQdZd0d1",
"dId2d3d4d5d6d7d8d9d9d9d9d9d9e.e#eaebd9d9d9d9d9d9ecedeed5d9efegeh",
"eiejekelemeneoepeqeqeqeqeqeqereseteueqeqeqeqeqeqeveoewemeqexeyez",
"eieAeBeCeDeEeFeGeHeHeCeDeHeHeIeJeKeLeMeMeNeCeHeHeOeFePeDeHeQeReS",
"eTeUeVeWeWeXeYeWeZeWe0e1eWeZe2e3e4e2e5e6e7e8e9eZe2f.f#eWfafbfcfd",
"fefffgfhfifjfkflflfmfnfofpflfqfrfsfiflftfufvfwflfxfkfjfiflfyfzfA",
"fBfCfDfEfFfFfFfFfFfGfHfIfJfFfFfFfFfFfFfKfLfMfNfFfFfFfFfFfFfOfPfQ",
"fRfSfTfUfVfVfVfVfVfWfXfYfZfVfVfVfVfVfVf0f1f2f3fVfVfVfVfVfVf4f5fQ",
"fRf6f7f8f9f9f9f9f9g.g#gagbf9f9f9f9f9f9gcgdgegff9f9f9f9f9f9ggghgi",
"gjgkglgmgngngngngngogpgqgrgngngngngngngsgtgugvgngngngngngngwgxgy",
"gzgAgBgCgCgCgDgCgCgEgFgGgHgCgCgCgCgCgCgIgJgKgIgCgLgCgCgCgCgMgNgO",
"gPgQgRgSgSgSgTgSgSgUgVgWgUgSgSgSgSgSgSgUgXgYgUgSgZgSgSgSgSg0g1g2"};
