/* XPM */
static char *render_rampshader[] = {
/* width height num_colors chars_per_pixel */
"    32    32      256            2",
/* colors */
"`` c #fd3337",
"`. c #eb3034",
"`# c #ff4142",
"`a c #ff4748",
"`b c #ff4a4c",
"`c c #ff4a4b",
"`d c #ff4d4e",
"`e c #ff5556",
"`f c #ff5c5f",
"`g c #fa2e35",
"`h c #fa3840",
"`i c #fa383f",
"`j c #fe424a",
"`k c #bfbbbc",
"`l c #73666c",
"`m c #bcb7ba",
"`n c #b8b3b7",
"`o c #765d73",
"`p c #a09ba4",
"`q c #898493",
"`r c #c0c0c2",
"`s c #a6aac7",
"`t c #263eda",
"`u c #324bd6",
"`v c #2d4ad4",
"`w c #b8bac4",
"`x c #b9bbc3",
"`y c #0933d3",
"`z c #123ad2",
"`A c #2d4ecc",
"`B c #3959cc",
"`C c #4c68ca",
"`D c #7587c7",
"`E c #919dc6",
"`F c #0335cc",
"`G c #0d39ce",
"`H c #2e55c9",
"`I c #bebfc2",
"`J c #b8b9bc",
"`K c #013bc6",
"`L c #707789",
"`M c #003cc4",
"`N c #1449c0",
"`O c #0041c1",
"`P c #0046ba",
"`Q c #959ca8",
"`R c #004cbe",
"`S c #0b50b9",
"`T c #014cb4",
"`U c #0052b3",
"`V c #336eb4",
"`W c #0054ac",
"`X c #1162b1",
"`Y c #015bac",
"`Z c #0162b5",
"`0 c #9babb8",
"`1 c #7497b1",
"`2 c #546775",
"`3 c #0061a2",
"`4 c #babdbf",
"`5 c #196fa5",
"`6 c #00689b",
"`7 c #4584a0",
"`8 c #0477a9",
".` c #006f9a",
".. c #04799e",
".# c #007193",
".a c #0f87a4",
".b c #3e7886",
".c c #738e95",
".d c #8ba6ad",
".e c #00768f",
".f c #017c96",
".g c #0c7c92",
".h c #058299",
".i c #1d7c8a",
".j c #128895",
".k c #50888e",
".l c #018287",
".m c #b7bebe",
".n c #bec1c1",
".o c #bdbfbf",
".p c #c1c2c2",
".q c #c0c1c1",
".r c #338d8a",
".s c #018a7e",
".t c #019382",
".u c #1a9384",
".v c #039773",
".w c #378d77",
".x c #179876",
".y c #039b6d",
".z c #06a578",
".A c #269978",
".B c #04a465",
".C c #16a56e",
".D c #278a63",
".E c #03b363",
".F c #279a66",
".G c #05ac59",
".H c #1c9e5c",
".I c #399a64",
".J c #09b553",
".K c #16ab55",
".L c #07ba49",
".M c #368d56",
".N c #0dc148",
".O c #1ab54a",
".P c #508d63",
".Q c #0dc03e",
".R c #14c538",
".S c #3da650",
".T c #32ad46",
".U c #20c332",
".V c #4d954e",
".W c #29ca27",
".X c #34c32a",
".Y c #40b034",
".Z c #46a43b",
".0 c #50a444",
".1 c #43b82c",
".2 c #40c71d",
".3 c #638855",
".4 c #4dc21d",
".5 c #57aa34",
".6 c #58b82c",
".7 c #60b332",
".8 c #5b9c3a",
"#` c #5bbe1e",
"#. c #5dc317",
"## c #69a73b",
"#a c #64aa27",
"#b c #66963c",
"#c c #69b81c",
"#d c #6ec418",
"#e c #709a42",
"#f c #6c9145",
"#g c #76ae2f",
"#h c #73ac20",
"#i c #78b914",
"#j c #7cb425",
"#k c #82be18",
"#l c #758c4e",
"#m c #82b325",
"#n c #76a129",
"#o c #85ae15",
"#p c #88a727",
"#q c #95b616",
"#r c #88a030",
"#s c #93ae0f",
"#t c #98ab23",
"#u c #95a413",
"#v c #a3b116",
"#w c #8d9039",
"#x c #7f8154",
"#y c #9a9e1a",
"#z c #a3a325",
"#A c #aca50f",
"#B c #888446",
"#C c #a49b15",
"#D c #b1a20d",
"#E c #b7a416",
"#F c #a59027",
"#G c #b7910f",
"#H c #b7971d",
"#I c #c8970b",
"#J c #b58a17",
"#K c #c68709",
"#L c #c08310",
"#M c #c88a17",
"#N c #aa7d28",
"#O c #d4880b",
"#P c #bf7f1c",
"#Q c #9a7640",
"#R c #a77836",
"#S c #d47607",
"#T c #ba772b",
"#U c #91724e",
"#V c #7c6852",
"#W c #d67817",
"#X c #e4720a",
"#Y c #e3720a",
"#Z c #c96e16",
"#0 c #da660b",
"#1 c #d76714",
"#2 c #ec6306",
"#3 c #c66825",
"#4 c #ac683a",
"#5 c #e75d07",
"#6 c #b9612b",
"#7 c #bb6a39",
"#8 c #e76117",
"a` c #f4570b",
"a. c #f4570c",
"a# c #e45210",
"aa c #f54d08",
"ab c #d7521c",
"ac c #d55a29",
"ad c #ed4c0f",
"ae c #f15417",
"af c #d15e34",
"ag c #c8522a",
"ah c #eb4719",
"ai c #e45327",
"aj c #ff3e0e",
"ak c #fb3d17",
"al c #fc441a",
"am c #af4e39",
"an c #eb3c1a",
"ao c #ea4627",
"ap c #a65446",
"aq c #fe371a",
"ar c #f73f22",
"as c #e83e26",
"at c #d6422a",
"au c #fe3a24",
"av c #d44837",
"aw c #f92f1e",
"ax c #e14234",
"ay c #c94237",
"az c #ffbeb8",
"aA c #ffc4bf",
"aB c #ff3b2e",
"aC c #f6372d",
"aD c #ffaca7",
"aE c #ffb2ad",
"aF c #f42d25",
"aG c #ff3129",
"aH c #fe3a33",
"aI c #fe3a34",
"aJ c #ff3d35",
"aK c #ff3d36",
"aL c #92504e",
"aM c #ff908c",
"aN c #ff9491",
"aO c #ff9a96",
"aP c #ffaca8",
"aQ c #e13330",
"aR c #ec3834",
"aS c #ff403c",
"aT c #ff5151",
"aU c #ff5453",
"aV c #ff5b59",
"aW c #ff5c5b",
"aX c #ff6464",
"aY c #ff6968",
"aZ c #ff6a69",
"a0 c #ff6b6b",
"a1 c #ff6f6e",
"a2 c #ff706f",
"a3 c #ff7572",
"a4 c #ff7d7b",
"a5 c #ff8280",
"a6 c #c2c1c1",
"a7 c #c1c1c1",
"a8 c #ffffff",
/* pixels */
"a7a7a7a7a7a7a7a7a7a7a6a6a6a6a7a7a7a7a7a7a7a7a7a7a7a7a7a7a7a7a7a7",
"a7a7a7a7a7a7a7a6a6a6`m`Q`L`L`2`2`2`2.c.c`0.oa7a7a7a7a7a7a7a7a7a7",
"a7a7a7a7a7a7a6a6`n`q`oaLapapapap#U#U#x.3.M.k.d.m.qa7a7a7a7a7a7a7",
"a7a7a7a7a7a7`k`p`oapayayayayayagam#4#Q#B#f.V.D.r.d.o.pa7a7a7a7a7",
"a7a7a7a7a6`m`qaLavaQaQ`.`.`.`.aQatag#6#R#w#f.V.D.i`1.m.pa7a7a7a7",
"a7a7a7a6`m`qamaxaRaR`i`j`j`j`i`gaFanab#3#N#w#b.V.F.g`1.ma7a7a7a7",
"a7a7a6`m`qamaoaR`h`j`fa0a0a0`f`b``aFanab#Z#F#r.8.M.x.f`1.na7a7a7",
"a7a7a6`paLaias```caXa4aMaMaMa5aYaT``awan#1#P#F#n.Z.H.t`5`0.pa7a7",
"a7a6`m`lafaoaC`#`fa4aOaPaEaPaNa5aY`jaGaka##Z#J#p.5.T.v.f`V.ma7a7",
"a7a6`q#4acaoaI`ca0aMaDazaAazaDaMa3`eaKaqad#1#J#y#a.T.B.l`3`1a7a7",
"a7`J`l#7acasaHaTa2aNaEaAaAazaEaNa3aWaSaqad#0#L#y#h.Y.K.s`3`V`ra7",
"a7`Q#V#7acaoaH`da2aMaDazaAazaDaMa3aWaSaqad#0#L#C#h.Y.K.v`6`S`sa7",
"a7.c#U#7acasaB`aaXa5aOaDaEaDaOa5a0`eaKaqad#0#L#C#h.1.O.v.#`T`Da6",
"a7`L#U#4acaiauaSaUaZa5aMaNaMa5a1`f`aaBakad#0#L#y#h.1.O.y.e`U`Ca7",
".n`2#x#R#3aiaraB`#aUaXa1a3a1aXaV`caKaqal#5#S#G#u#c.1.O.y.e`W`Ba7",
".p.b#x#Q#TacaharaBaS`caTaUaU`c`#aHauajaa#0#L#C#o#`.X.L.y.e`T`va7",
"a7.b.3#B#R#3#8aealauaBaJaJaJaBauaqajaa#5#S#G#u#i.4.U.J.v`6`T`va6",
"a6.b.P#l#w#T#W#8aeaealalalakakajaaa`#2#S#K#A#o#c.2.U.G.s`6`P`Ba6",
"a7.k.P.3#w#F#P#W#1#8#8a.a.a.a.a`#2#Y#S#I#D#s#i.4.X.Q.B.l`3`O`Ca7",
"a6`1.w.P#f#w#F#H#M#W#Y#Y#X#Y#Y#Y#O#O#I#A#s#i#..2.U.L.y.e`W`M`Da7",
"a7`0.i.I.V#e#r#z#H#H#M#M#M#O#O#I#I#D#v#q#i#..2.W.Q.G.s`3`P`G`sa7",
"a6.o`7.r.I.V###r#t#z#H#E#E#E#E#E#v#q#k#d#..2.W.R.J.v.#`W`M`H`Ia7",
"a7.p.d.j.A.I.0###g#m#t#t#t#v#q#q#k#d#..4.2.W.R.L.B.l`3`P`F`Da7a7",
"a7a7`4`7.a.A.I.S.0###g#j#m#m#j#c#`.4.X.W.U.R.L.B.s`6`T`F`B`xa7a7",
"a7a7a7`0`5.a.u.A.I.S.0.5.7.7.6.1.X.U.R.N.N.L.B.s.#`W`M`G`Ea6a7a7",
"a7a7a6.q`1`X`8.j.u.F.F.S.S.T.T.T.O.J.E.E.B.v.s.#`W`O`G`Da7a7a7a7",
"a7a7a7a6`r`1`S`Z`8.a.j.u.x.C.C.z.z.z.t.t.l.e`6`W`O`G`D`Ia7a7a7a7",
"a7a7a7a7a6`r`D`N`R`Z`Z`8...h.h.h.f.f.`.``3`Y`T`M`z`D`x`ra7a7a7a7",
"a7a7a7a7a7a6.q`0`B`M`O`R`U`U`Y`Y`Y`W`U`T`P`M`F`B`E`Ia6a7a7a7a7a7",
"a7a7a7a7a7a7`r`r`4`D`H`y`F`F`K`K`M`K`F`F`y`A`D`wa6a7a7a7a7a7a7a7",
"a7a7a7a7a7a7a7a7a7a6`r`s`D`C`u`t`t`v`B`D`s`Ia7a6a7a7a7a7a7a7a7a7",
"a7a7a7a7a7a7a7a7a7a7a7a7a6`ra6a7a7`ra7`r`ra7a7a7a7a7a7a7a7a7a7a7"
};
