/* XPM */
static char * render_dl_mattePaint_xpm[] = {
"32 32 163 2",
"  	c None",
". 	c #C1C1C1",
"+ 	c #C1C1C3",
"@ 	c #C2C2C6",
"# 	c #B2B6B6",
"$ 	c #C6C2C6",
"% 	c #CAC6CA",
"& 	c #767676",
"* 	c #383838",
"= 	c #2B2B2B",
"- 	c #515151",
"; 	c #565656",
"> 	c #858585",
", 	c #C0C0C0",
"' 	c #C4C4C4",
") 	c #343434",
"! 	c #3C2C38",
"~ 	c #2C7928",
"{ 	c #89A189",
"] 	c #C2BEC6",
"^ 	c #535353",
"/ 	c #1C1C1C",
"( 	c #262626",
"_ 	c #7B7B7B",
": 	c #DEDEDE",
"< 	c #ADADAD",
"[ 	c #B9B9BB",
"} 	c #C5C5C5",
"| 	c #C6C6CA",
"1 	c #403840",
"2 	c #594859",
"3 	c #00B600",
"4 	c #00DA00",
"5 	c #0CB60C",
"6 	c #30AE30",
"7 	c #65A565",
"8 	c #95A199",
"9 	c #B0B0B0",
"0 	c #151515",
"a 	c #020202",
"b 	c #6A6A6A",
"c 	c #CECECE",
"d 	c #B2B2B2",
"e 	c #9D9D9D",
"f 	c #606060",
"g 	c #464646",
"h 	c #A6A6AB",
"i 	c #C9CDCD",
"j 	c #D2D2D6",
"k 	c #382834",
"l 	c #654465",
"m 	c #00F600",
"n 	c #00E600",
"o 	c #0CA10C",
"p 	c #AAAAAA",
"q 	c #C6C6C6",
"r 	c #7C7C7C",
"s 	c #040404",
"t 	c #676767",
"u 	c #080808",
"v 	c #010101",
"w 	c #8E8E8E",
"x 	c #9A9A9A",
"y 	c #919191",
"z 	c #737373",
"A 	c #2D2D2D",
"B 	c #D7D7D7",
"C 	c #AFA6B3",
"D 	c #E2E2E6",
"E 	c #C6C2CA",
"F 	c #79697D",
"G 	c #441844",
"H 	c #381838",
"I 	c #04CA04",
"J 	c #9DA59D",
"K 	c #CEC6D2",
"L 	c #898989",
"M 	c #272727",
"N 	c #0D0D0D",
"O 	c #8C8C8C",
"P 	c #2E2E2E",
"Q 	c #090909",
"R 	c #6E6E6E",
"S 	c #494949",
"T 	c #A2A2A2",
"U 	c #212121",
"V 	c #1A1A1A",
"W 	c #434343",
"X 	c #247520",
"Y 	c #00CA00",
"Z 	c #7D9D7D",
"` 	c #CEC2D2",
" .	c #363636",
"..	c #292929",
"+.	c #121212",
"@.	c #636363",
"#.	c #202020",
"$.	c #C2C2C2",
"%.	c #3E3E3E",
"&.	c #04DA04",
"*.	c #61A561",
"=.	c #CEC2CE",
"-.	c #333333",
";.	c #1F1F1F",
">.	c #101010",
",.	c #252525",
"'.	c #4E4E4E",
").	c #414141",
"!.	c #3B3B3B",
"~.	c #5C5C5C",
"{.	c #818181",
"].	c #141414",
"^.	c #147114",
"/.	c #04E604",
"(.	c #28A128",
"_.	c #CEBECE",
":.	c #4C4C4C",
"<.	c #A1A1A1",
"[.	c #161616",
"}.	c #313131",
"|.	c #692C69",
"1.	c #10B610",
"2.	c #CABACA",
"3.	c #0E0E0E",
"4.	c #060606",
"5.	c #BDBEBE",
"6.	c #B4B4B4",
"7.	c #111111",
"8.	c #999999",
"9.	c #373737",
"0.	c #443844",
"a.	c #048504",
"b.	c #B6BEB6",
"c.	c #5A5A5A",
"d.	c #050505",
"e.	c #979797",
"f.	c #0C0C0C",
"g.	c #A09BA0",
"h.	c #444444",
"i.	c #6D6D6D",
"j.	c #222222",
"k.	c #CACACA",
"l.	c #D2D2DA",
"m.	c #CACACE",
"n.	c #1D1D1D",
"o.	c #BDBDBD",
"p.	c #B8B8B8",
"q.	c #191919",
"r.	c #4B4B4B",
"s.	c #030303",
"t.	c #181818",
"u.	c #7E7E7E",
"v.	c #BEBEBE",
"w.	c #808080",
"x.	c #070707",
"y.	c #ACACAC",
"z.	c #232323",
"A.	c #AB8A8A",
"B.	c #0A0A0A",
"C.	c #6D6969",
"D.	c #7D7D7D",
"E.	c #BABABA",
"F.	c #C1BFBF",
". . . . . . . . . . . . . . . . . . . . . . . . . . . . . . . . ",
". . . . . . . . . . . . . . . . . . . . . . . . . . . . . . . . ",
". . . . . . . . . . . . . . . . . . . . . . . . . . . . . . . . ",
". . . . . . . . . . . . . . . . . . . . . . . . . . . . . . . . ",
". . . . . . . . . . . . . . . . . . . . . . . . . . . . . . . . ",
". . . . . . . . . . . . . . . . . . . . . . . . . . . . . . . . ",
". . . . . . . . . . . . . . . . . . . . . . . . . . . . . . . . ",
". . . . . . . . . . . . . . . . . . . + . @ # $ % . . . . . . . ",
". . . . . . . . & * = - ; > . . . . , ' . @ ) ! ~ { ] $ $ . . . ",
". . . . . . . ^ / ( _ : _ * < . . . [ } . | 1 2 3 4 5 6 7 8 @ . ",
". . . 9 . . 9 0 a b c d e f g . . . h i c j k l 3 m n n n o p q ",
". . r s ; . t u v w x y z > A . . B C D E F G H 3 n 4 n I J K @ ",
". . L M N O P u Q R R S T z U R q V W f _ O X Y n 4 n I Z ` . . ",
". . . .  .M ..+.s ^ @.#.) z ..- $.v v v v v %.m n n &.*.=.. . . ",
". . . . R -.;.>.,.'.'.'.S W ).!.).~.{.].v v '.^.3 /.(._.. . . . ",
". . < V / :.<.- [.+.}.). ./ M M ; s g r v v @.|.3 1.2.. . . . . ",
". > 3.4. .: 5.6.r ).>...P 7.%.8.^ 9.M {.v v r 0.a.b.. . . . . . ",
". c.a d.{.e.<.O r r P f.7.- {.~.).) ].[.v v g.h.e q . . . . . . ",
". - v ].b & r S T i.9.v / ,.c.W = ( f.j.u v k.l.m.. . . . . . . ",
". !.v [.f f b #.) f M a 3.= [. .n.j.o.. p.t @ | . . . . . . . . ",
". !.v q.W - - - r.r.s s.V !.n.t.;., , . . . . . . . . . . . . . ",
". u.N d. .r.W r.W #.v N M -  .q.p.. . . . . . . . . . . . . . . ",
". . O !.n.-.* %./ 4.v ].M %.q.. . . . . . . . . . . . . . . . . ",
". . . v.w.,.q.7.x.v v s.s.v ,.. . . . . . . . . . . . . . . . . ",
". . . . . y.z./ v 0 4.4.v v v y . . . . . . . . . . . . . . . @ ",
". . . . . . A.B.= ~.-.Q 3.].s M y . . . . . . . . . . . . . . @ ",
". . . . . . , C.D.e x ].z.E.n.s ;.. F.. . . . . . . . . . . . . ",
". . . . . . . . . . . . . . . . . . . . . . . . . . . . . . . . ",
". . . . . . . . . . . . . . . . . . . . . . . . . . . . . . . . ",
". . . . . . . . . . . . . . . . . . . . . . . . . . . . . . . . ",
". . . . . . . . . . . . . . . . . . . . . . . . . . . . . . . . ",
". . . . . . . . . . . . . . . . . . . . . . . . . . . . . . . . "};
